#define noname_width 163
#define noname_height 18
static char noname_bits[] = {
 0x00,0x00,0x00,0x00,0x00,0x04,0x00,0x00,0x00,0x00,0x04,0x00,0x00,0x00,0x00,
 0x00,0x00,0x00,0x40,0x00,0x00,0xfc,0x00,0x00,0x00,0x00,0x06,0x00,0x00,0x00,
 0x80,0x0f,0xe0,0x1b,0x00,0x00,0xf0,0x0f,0x07,0x60,0x00,0x00,0x30,0x00,0x00,
 0x00,0x00,0x82,0x03,0x00,0x00,0x00,0x09,0x30,0x0e,0x00,0x00,0xc0,0x18,0x06,
 0x60,0x00,0x00,0x18,0x00,0x00,0x00,0x00,0xc3,0x03,0x00,0x00,0x80,0x19,0x18,
 0x0c,0x00,0x00,0x60,0x30,0x02,0x20,0x00,0x00,0x18,0x00,0x00,0x00,0x00,0x01,
 0x03,0x00,0x00,0x80,0x11,0x0c,0x0c,0x00,0x00,0x60,0x38,0x03,0x30,0x00,0x00,
 0x18,0x00,0x00,0x00,0x80,0x01,0x03,0x00,0x00,0x80,0x31,0x0e,0x0c,0x00,0x00,
 0x60,0x18,0x03,0x30,0x00,0x00,0x18,0x00,0x00,0x00,0x80,0x01,0x03,0x00,0x00,
 0xf8,0x30,0x06,0x00,0x00,0x00,0x60,0x0e,0x1f,0x10,0xce,0x06,0x0c,0x00,0xc0,
 0xff,0x81,0x01,0x03,0x00,0x00,0xcc,0x30,0x06,0x00,0x00,0x00,0xf0,0x0f,0x33,
 0x18,0xcf,0x06,0x0c,0x00,0x00,0x00,0x80,0x01,0x03,0xfc,0x1f,0xcc,0x30,0x86,
 0x0f,0xfe,0x0f,0x30,0x8c,0x31,0x18,0xcd,0x04,0x0c,0x01,0x00,0x00,0x80,0x01,
 0x03,0xfc,0x1f,0xce,0x30,0x02,0x07,0xfe,0x0f,0x30,0x9c,0x19,0x08,0x66,0x04,
 0x0c,0x7d,0xc0,0xff,0x81,0x01,0x03,0x00,0x00,0x46,0x31,0x06,0x03,0x00,0x00,
 0x30,0x8c,0x59,0x08,0x66,0x06,0x86,0x7d,0x00,0x00,0x80,0x01,0x03,0x00,0x00,
 0x66,0x31,0x06,0x03,0x00,0x00,0x18,0x8e,0x38,0x0c,0x66,0x02,0xff,0x08,0x00,
 0x00,0x80,0xc1,0x0f,0x00,0x00,0xfc,0x30,0xcc,0x03,0x00,0x00,0xfc,0xc7,0x38,
 0x04,0xfc,0x03,0x00,0x08,0x00,0x00,0x00,0x01,0x00,0x00,0x00,0x00,0x10,0x70,
 0x00,0x00,0x00,0x00,0x00,0x00,0x04,0x00,0x00,0x00,0x0c,0x00,0x00,0x00,0x03,
 0x00,0x00,0x00,0x00,0x18,0x00,0x00,0x00,0x00,0x00,0x00,0x00,0x06,0x00,0x00,
 0x00,0x00,0x00,0x00,0x00,0x02,0x00,0x00,0x00,0x00,0x08,0x00,0x00,0x00,0x00,
 0x00,0x00,0x00,0x02,0x00,0x00,0x00,0x00,0x00,0x00,0x00,0x06,0x00,0x00,0x00,
 0x00,0x0c,0x00,0x00,0x00,0x00,0x00,0x00,0x00,0x02,0x00,0x00,0x00,0x00,0x00,
 0x00,0x00,0x04,0x00,0x00,0x00,0x00,0x04,0x00,0x00,0x00,0x00,0x00,0x00,0x00,
 0x00,0x00,0x00};
