#define noname_width 15
#define noname_height 14
static char noname_bits[] = {
 0xfc,0x00,0x30,0x00,0x18,0x00,0x18,0x00,0x18,0x00,0x18,0x00,0x0c,0x00,0x0c,
 0x00,0x0c,0x01,0x0c,0x7d,0x86,0x7d,0xff,0x08,0x00,0x08,0x00,0x0c};
