#define noname_width 11
#define noname_height 7
static char noname_bits[] = {
 0xce,0x06,0xcf,0x06,0xcd,0x04,0x66,0x04,0x66,0x06,0x66,0x02,0xfc,0x03};
