#define noname_width 16
#define noname_height 14
static char noname_bits[] = {
 0xfc,0x03,0x30,0x06,0x18,0x0c,0x18,0x0e,0x18,0x06,0x98,0x03,0xfc,0x03,0x0c,
 0x03,0x0c,0x07,0x0c,0xfb,0x86,0xfb,0xff,0x11,0x00,0x10,0x00,0x18};
