#define noname_width 17
#define noname_height 16
static char noname_bits[] = {
 0xfc,0x03,0x00,0x30,0x06,0x00,0x18,0x0c,0x00,0x18,0x0e,0x00,0x18,0x06,0x00,
 0x98,0x03,0x00,0xfc,0x83,0x01,0x0c,0x83,0x01,0x0c,0xc7,0x00,0x0c,0xe3,0x01,
 0x86,0x43,0x00,0xff,0x41,0x00,0x00,0x40,0x00,0x00,0x60,0x00,0x00,0x70,0x00,
 0x00,0x38,0x00};
