#define noname_width 9
#define noname_height 12
static char noname_bits[] = {
 0x1c,0x00,0x18,0x00,0x08,0x00,0x0c,0x00,0x0c,0x00,0x7c,0x00,0xcc,0x00,0xc6,
 0x00,0x66,0x00,0x66,0x01,0xe2,0x00,0xe3,0x00};
