#define noname_width 210
#define noname_height 17
static char noname_bits[] = {
 0x00,0x00,0x00,0x00,0x00,0x00,0x00,0x00,0x00,0x00,0x00,0x00,0x00,0x00,0x00,
 0x00,0x02,0x00,0x00,0x00,0x00,0x00,0x00,0x00,0x00,0x00,0x00,0xfc,0x00,0x00,
 0x00,0x00,0x00,0x00,0x00,0x00,0x00,0x00,0x00,0x00,0x00,0x00,0x00,0x03,0x00,
 0x00,0x00,0x00,0x00,0x00,0xc0,0x39,0x00,0x00,0x30,0x00,0x00,0x00,0x00,0x07,
 0x1f,0x0f,0x0f,0x00,0x00,0xf0,0xf1,0xe1,0xe1,0x01,0xf3,0x03,0x00,0x00,0xf0,
 0xf0,0xf1,0x80,0x31,0x00,0x00,0x18,0x00,0x00,0x00,0x80,0x87,0x99,0x99,0x19,
 0x00,0x00,0x30,0x13,0x33,0x33,0x03,0xf1,0x01,0x00,0x00,0x98,0x99,0x99,0x81,
 0x31,0x00,0x00,0x18,0x00,0x00,0x00,0x00,0x86,0x99,0x98,0x18,0x00,0x00,0x30,
 0x3b,0x13,0x13,0x83,0x11,0x00,0x00,0x00,0x8c,0x99,0x89,0x81,0x31,0x00,0x00,
 0x18,0x00,0x00,0x00,0x00,0x86,0xc1,0xd8,0x18,0x00,0x00,0x00,0x3b,0x1b,0x1b,
 0x83,0x11,0x00,0x00,0x00,0x8c,0x19,0x8c,0x81,0x31,0x00,0x00,0x18,0x00,0x00,
 0x00,0x00,0xc6,0xcf,0xd8,0x18,0x00,0x00,0x80,0x01,0x1b,0x1b,0x83,0xf0,0x01,
 0x00,0x00,0x8c,0xfd,0x8c,0x81,0xf1,0xe3,0x01,0x0c,0x00,0xc0,0xff,0x01,0xc6,
 0xd9,0xd8,0x18,0x00,0x00,0xe0,0x81,0x1b,0x1b,0xc3,0x30,0x03,0xfc,0x1f,0x98,
 0x9d,0x8d,0x81,0x31,0x36,0x01,0x0c,0x00,0x00,0x00,0x00,0xc6,0xd8,0xd8,0x18,
 0xf0,0x7f,0x00,0x83,0x19,0x1b,0xc3,0x00,0x03,0x00,0x00,0xd8,0x8d,0x8d,0x81,
 0x31,0xf6,0x01,0x0c,0x01,0x00,0x00,0x00,0xc6,0xd8,0xd8,0x18,0xf0,0x7f,0x10,
 0xc3,0x18,0x1b,0x43,0x10,0x03,0x00,0x00,0xf0,0x8d,0x8d,0x81,0x31,0xe6,0x01,
 0x0c,0x7d,0xc0,0xff,0x01,0x86,0x98,0x98,0x18,0x00,0x00,0x38,0x63,0x12,0x13,
 0x43,0x18,0x03,0xfc,0x1f,0x80,0x89,0x89,0x81,0x31,0x16,0x03,0x86,0x7d,0x00,
 0x00,0x00,0x86,0x99,0x99,0x19,0x00,0x00,0x18,0x33,0x32,0x33,0x63,0x18,0x03,
 0x00,0x00,0x98,0x99,0x99,0x81,0x31,0x36,0x03,0xff,0x08,0x00,0x00,0x80,0x9f,
 0x8f,0x8f,0x0f,0x00,0x00,0xb0,0xfb,0xf3,0xf1,0x21,0xb0,0x01,0x00,0x00,0xc8,
 0xf8,0xf8,0xc0,0xf3,0xf3,0x01,0x00,0x08,0x00,0x00,0x00,0x00,0x06,0x06,0x06,
 0x00,0x00,0xe0,0x00,0xc0,0xc0,0x20,0xe0,0x00,0x00,0x00,0x30,0x60,0x60,0x00,
 0x00,0x00,0x00,0x00,0x0c,0x00,0x00,0x00,0x00,0x00,0x00,0x00,0x00,0x00,0x00,
 0x00,0x00,0x00,0x30,0x00,0x00,0x00,0x00,0x00,0x00,0x00,0x00,0x00,0x00,0x00,
 0x00,0x00,0x00,0x00,0x00,0x00,0x00,0x00,0x00,0x00,0x00,0x00,0x00,0x00,0x00,
 0x10,0x00,0x00,0x00,0x00,0x00,0x00,0x00,0x00,0x00,0x00,0x00,0x00,0x00,0x00,
 0x00,0x00,0x00,0x00,0x00,0x00,0x00,0x00,0x00,0x00,0x00,0x00,0x10,0x00,0x00,
 0x00,0x00,0x00,0x00,0x00,0x00,0x00,0x00,0x00};
