#define noname_width 469
#define noname_height 16
static char noname_bits[] = {
 0x00,0x00,0x00,0x00,0x70,0x07,0x00,0x00,0x60,0x00,0x00,0x00,0x00,0x00,0x00,
 0xc0,0x00,0x00,0x0e,0x00,0x00,0x00,0x00,0x00,0x3f,0x00,0x00,0x60,0x00,0x00,
 0x00,0x00,0x00,0x00,0xc0,0x00,0x00,0x1c,0x00,0x00,0x00,0x00,0x80,0x1f,0x00,
 0x00,0x0c,0x00,0x00,0x00,0x00,0x00,0x00,0x18,0x00,0x80,0x03,0x00,0x00,0x3e,
 0x3e,0x3c,0x3c,0x60,0x06,0x00,0x80,0x60,0x00,0x00,0x00,0x00,0x7c,0x78,0xc0,
 0x00,0x00,0x0c,0x00,0x00,0x00,0x00,0x00,0x0c,0x00,0x80,0x60,0x00,0x00,0x00,
 0x00,0xfc,0x78,0xc0,0x00,0x00,0x18,0x00,0x00,0x00,0x00,0x00,0x06,0x00,0x20,
 0x0c,0x00,0x00,0x00,0x80,0x1f,0x0f,0x18,0x00,0x00,0x03,0x00,0x00,0x66,0x62,
 0x66,0x66,0x60,0x06,0x00,0x80,0x60,0x00,0x00,0x00,0x00,0xc4,0xcc,0xc0,0x00,
 0x00,0x0c,0x00,0x00,0x00,0x00,0x00,0x06,0x00,0x80,0x60,0x00,0x00,0x00,0x00,
 0x7c,0xcc,0xc0,0x00,0x00,0x18,0x00,0x00,0x00,0x00,0x00,0x03,0x00,0x20,0x0c,
 0x00,0x00,0x00,0x80,0x8f,0x19,0x18,0x00,0x00,0x03,0x00,0x00,0x66,0x67,0x62,
 0x62,0x60,0x06,0x00,0x80,0x00,0x00,0x00,0x00,0x00,0xce,0xc4,0x00,0x00,0x00,
 0x0c,0x00,0x00,0x00,0x00,0x00,0x06,0x00,0x80,0x00,0x00,0x00,0x00,0x00,0x04,
 0xc4,0x00,0x00,0x00,0x18,0x00,0x00,0x00,0x00,0x00,0x03,0x00,0x20,0x00,0x00,
 0x00,0x00,0x80,0x80,0x18,0x00,0x00,0x00,0x03,0x00,0x00,0x60,0x67,0x63,0x63,
 0x60,0x06,0x00,0xc0,0x00,0x00,0x00,0x00,0x00,0xce,0xc6,0x00,0x00,0x00,0x0c,
 0x00,0x00,0x00,0x00,0x00,0x06,0x00,0xc0,0x00,0x00,0x00,0x00,0x00,0x04,0xc6,
 0x00,0x00,0x00,0x18,0x00,0x00,0x00,0x00,0x00,0x03,0x00,0x30,0x00,0x00,0x00,
 0x00,0x80,0xc0,0x18,0x00,0x00,0x00,0x03,0x00,0x00,0x30,0x60,0x63,0x63,0x60,
 0x7e,0x3c,0xe0,0x73,0xff,0x8f,0x8f,0x07,0xc0,0xc6,0xe0,0xfe,0xf0,0xfd,0xf8,
 0x78,0x00,0x00,0x00,0x06,0x00,0xe0,0x73,0xff,0x8f,0x8f,0x07,0x7c,0xc6,0xe0,
 0xfc,0xe1,0xfb,0xf1,0x79,0x00,0x00,0x00,0x03,0x00,0xf8,0xce,0xff,0xe3,0xf3,
 0x80,0xcf,0x18,0x9c,0x3f,0x7c,0x3f,0x3e,0x0f,0x3c,0x70,0x63,0x63,0x60,0xc6,
 0x26,0xc0,0x60,0xc6,0xc8,0xd9,0x04,0xe0,0xc6,0xc0,0x8c,0x98,0x8d,0x9c,0x4d,
 0xe0,0xff,0x00,0x03,0x30,0xc0,0x60,0xc6,0xc8,0xd9,0x04,0xcc,0xc6,0xc0,0x18,
 0x31,0x1b,0x39,0x4f,0x00,0x00,0x80,0x01,0x00,0x30,0x8c,0x31,0x72,0x9e,0x80,
 0xd9,0x18,0x18,0x23,0x66,0x23,0xe7,0x09,0x60,0x30,0x63,0x63,0x60,0xc6,0x3e,
 0xc0,0x60,0xc6,0xc8,0xdf,0x07,0x60,0xc6,0xc0,0x8c,0x0c,0x8c,0xfc,0x7d,0x00,
 0x00,0x00,0x03,0x30,0xc0,0x60,0xc6,0xc8,0xdf,0x07,0xc0,0xc6,0xc0,0x18,0x19,
 0x18,0xf9,0x7f,0xe0,0xff,0x80,0x01,0x00,0x30,0x8c,0x31,0xf2,0xff,0x00,0xd8,
 0x18,0x18,0x23,0x03,0x23,0xff,0x0f,0x62,0x18,0x63,0x63,0x60,0xc6,0x3c,0xc0,
 0x60,0xc6,0xc8,0x80,0x07,0x30,0xc6,0xc0,0x8c,0x0c,0x8c,0x0c,0x78,0x00,0x00,
 0x00,0x43,0x18,0xc0,0x60,0xc6,0xc8,0x80,0x07,0xc4,0xc6,0xc0,0x18,0x19,0x18,
 0x19,0x78,0xe0,0xff,0x80,0x21,0x00,0x30,0x8c,0x31,0x32,0xf0,0x80,0xd8,0x18,
 0x18,0x23,0x03,0x23,0x03,0x0f,0x67,0x4c,0x62,0x62,0x60,0xc6,0x62,0xc0,0x62,
 0xc6,0xc8,0x40,0x0c,0x98,0xc4,0xc0,0x8c,0x0c,0x8c,0x0c,0xc4,0xe0,0xff,0x00,
 0x43,0x3c,0xc0,0x62,0xc6,0xc8,0x40,0x0c,0xc6,0xc4,0xc0,0x18,0x19,0x18,0x19,
 0xc4,0x00,0x00,0x80,0xa1,0x0f,0xb0,0x8c,0x31,0x32,0x88,0xc1,0x98,0x18,0x18,
 0x23,0x03,0x23,0x83,0x18,0x63,0x46,0x66,0x66,0x60,0xc6,0x66,0xc0,0x62,0xc6,
 0xc8,0xd1,0x0c,0x8c,0xcc,0xc0,0x8c,0x18,0x8d,0x1c,0xcd,0x00,0x00,0x80,0x61,
 0x08,0xc0,0x62,0xc6,0xc8,0xd1,0x0c,0xc6,0xcc,0xc0,0x18,0x31,0x1a,0x39,0xce,
 0x00,0x00,0xc0,0xb0,0x0f,0xb0,0x8c,0x31,0x72,0x9c,0xc1,0x98,0x19,0x18,0x23,
 0x46,0x23,0xc7,0x19,0x76,0x7f,0x3e,0x3e,0xf0,0x7e,0x3e,0x80,0xf3,0xef,0xbf,
 0xcf,0x07,0xfe,0x7c,0xe0,0xff,0xf3,0xfe,0xfb,0x7c,0x00,0x00,0xc0,0x3f,0x08,
 0x80,0xf3,0xef,0xbf,0xcf,0x07,0x6c,0x7c,0xe0,0xfd,0xe7,0xfd,0xf7,0x7d,0x00,
 0x00,0xe0,0x1f,0x01,0xe0,0xde,0xfb,0xef,0xfb,0x80,0x8d,0x0f,0xbc,0xff,0xbc,
 0xff,0xbe,0x0f,0x1c,0x00,0x18,0x18,0x00,0x00,0x00,0x00,0x00,0x00,0x00,0x00,
 0x00,0x00,0x30,0x00,0x00,0x00,0x00,0x00,0x00,0x00,0x00,0x00,0x00,0x08,0x00,
 0x00,0x00,0x00,0x00,0x00,0x38,0x30,0x00,0x00,0x00,0x00,0x00,0x00,0x00,0x00,
 0x00,0x00,0x01,0x00,0x00,0x00,0x00,0x00,0x00,0x07,0x06,0x00,0x00,0x00,0x00,
 0x00,0x00,0x00,0x00,0x00,0x00,0x00,0x00,0x00,0x00,0x00,0x00,0x00,0x00,0x00,
 0x00,0x00,0x00,0x00,0x00,0x00,0x00,0x00,0x00,0x00,0x00,0x00,0x0c,0x00,0x00,
 0x00,0x00,0x00,0x00,0x00,0x00,0x00,0x00,0x00,0x00,0x00,0x00,0x00,0x00,0x00,
 0x80,0x01,0x00,0x00,0x00,0x00,0x00,0x00,0x00,0x00,0x00,0x00,0x00,0x00,0x00,
 0x00,0x00,0x00,0x00,0x00,0x00,0x00,0x00,0x00,0x00,0x00,0x00,0x00,0x00,0x00,
 0x00,0x00,0x00,0x00,0x00,0x00,0x00,0x00,0x00,0x00,0x00,0x0e,0x00,0x00,0x00,
 0x00,0x00,0x00,0x00,0x00,0x00,0x00,0x00,0x00,0x00,0x00,0x00,0x00,0x00,0x00,
 0x00,0x00,0x00,0x00,0x00,0x00,0x00,0x00,0x00,0x00,0x00,0x00,0x00,0x00,0x00,
 0x00,0x00,0x00,0x00,0x00,0x00,0x00,0x00,0x00,0x00,0x00,0x00,0x00,0x00,0x00,
 0x00,0x00,0x00,0x00,0x00,0x00,0x00,0x00,0x00,0x00,0x07,0x00,0x00,0x00,0x00,
 0x00,0x00,0x00,0x00,0x00,0x00,0x00,0x00,0x00,0x00,0x00,0x00,0x00,0x00,0x00,
 0x00,0x00,0x00,0x00,0x00,0x00,0x00,0x00,0x00,0x00,0x00,0x00,0x00,0x00};
