#define noname_width 218
#define noname_height 17
static char noname_bits[] = {
 0x00,0x00,0x00,0x00,0x00,0x00,0x00,0x00,0x00,0x00,0x00,0x00,0x00,0x00,0x00,
 0x00,0x04,0x00,0x00,0x00,0x00,0x00,0x00,0x00,0x00,0x00,0x00,0x00,0xfc,0x00,
 0x00,0x00,0x00,0x00,0x00,0x00,0x00,0x00,0x00,0x00,0x00,0x00,0x00,0x00,0x06,
 0x00,0x00,0x00,0x00,0x00,0x00,0x00,0xc0,0x39,0x00,0x00,0x30,0x00,0x00,0x00,
 0x00,0x0e,0x3e,0x1e,0x1e,0x00,0x00,0xe0,0xe3,0xc3,0xc3,0x03,0xe6,0x07,0x00,
 0x00,0xf8,0xf8,0xc0,0xf0,0x80,0x31,0x00,0x00,0x18,0x00,0x00,0x00,0x00,0x0f,
 0x33,0x33,0x33,0x00,0x02,0x60,0x26,0x66,0x66,0x06,0xe2,0x03,0x00,0x00,0x88,
 0x89,0xc1,0x98,0x81,0x31,0x00,0x00,0x18,0x00,0x00,0x00,0x00,0x0c,0x33,0x31,
 0x31,0x00,0x02,0x60,0x76,0x26,0x26,0x06,0x23,0x00,0x00,0x00,0x9c,0x9d,0xe1,
 0x88,0x81,0x31,0x00,0x00,0x18,0x00,0x00,0x00,0x00,0x0c,0x83,0xb1,0x31,0x00,
 0x02,0x00,0x76,0x36,0x36,0x06,0x23,0x00,0x00,0x00,0x9c,0x9d,0xf1,0x8c,0x81,
 0x31,0x00,0x00,0x18,0x00,0x00,0x00,0x00,0x8c,0x9f,0xb1,0x31,0x00,0x02,0x00,
 0x03,0x36,0x36,0x06,0xe1,0x03,0x00,0x00,0x80,0x81,0xd1,0x8c,0x81,0xf1,0xe3,
 0x01,0x0c,0xc0,0x80,0xff,0x03,0x8c,0xb3,0xb1,0x31,0x00,0x02,0xc0,0x03,0x37,
 0x36,0x86,0x61,0x06,0xfc,0x1f,0xc0,0xc1,0xd9,0x8c,0x81,0x31,0x36,0x01,0x0c,
 0xc0,0x00,0x00,0x00,0x8c,0xb1,0xb1,0x31,0xf0,0x7f,0x00,0x06,0x33,0x36,0x86,
 0x01,0x06,0x00,0x00,0xc0,0xc0,0xc8,0x8c,0x81,0x31,0xf6,0x01,0x0c,0x61,0x00,
 0x00,0x00,0x8c,0xb1,0xb1,0x31,0xf0,0x7f,0x20,0x86,0x31,0x36,0x86,0x20,0x06,
 0x00,0x00,0x60,0x60,0xfc,0x8f,0x81,0x31,0xe6,0x01,0x0c,0xf1,0x80,0xff,0x03,
 0x0c,0x31,0x31,0x31,0x00,0x02,0x70,0xc6,0x24,0x26,0x86,0x30,0x06,0xfc,0x1f,
 0x30,0x31,0xc1,0x88,0x81,0x31,0x16,0x03,0x86,0x21,0x00,0x00,0x00,0x0c,0x33,
 0x33,0x33,0x00,0x02,0x30,0x66,0x64,0x66,0xc6,0x30,0x06,0x00,0x00,0x18,0x19,
 0xc1,0x98,0x81,0x31,0x36,0x03,0xff,0x20,0x00,0x00,0x00,0x3f,0x1f,0x1f,0x1f,
 0x00,0x02,0x60,0xf7,0xe7,0xe3,0x43,0x60,0x03,0x00,0x00,0xfc,0xfd,0xe1,0xf9,
 0xc0,0xf3,0xf3,0x01,0x00,0x20,0x00,0x00,0x00,0x00,0x0c,0x0c,0x0c,0x00,0x02,
 0xc0,0x01,0x80,0x81,0x41,0xc0,0x01,0x00,0x00,0x00,0x00,0x00,0x60,0x00,0x00,
 0x00,0x00,0x00,0x30,0x00,0x00,0x00,0x00,0x00,0x00,0x00,0x00,0x02,0x00,0x00,
 0x00,0x00,0x60,0x00,0x00,0x00,0x00,0x00,0x00,0x00,0x00,0x00,0x00,0x00,0x00,
 0x00,0x38,0x00,0x00,0x00,0x00,0x00,0x00,0x00,0x00,0x00,0x00,0x00,0x00,0x00,
 0x20,0x00,0x00,0x00,0x00,0x00,0x00,0x00,0x00,0x00,0x00,0x00,0x00,0x00,0x1c,
 0x00,0x00,0x00,0x00,0x00,0x00,0x00,0x00,0x00,0x00,0x00,0x00,0x00,0x20,0x00,
 0x00,0x00,0x00,0x00,0x00,0x00,0x00,0x00,0x00,0x00,0x00};
