#define noname_width 16
#define noname_height 16
static char noname_bits[] = {
 0xfc,0x00,0x30,0x00,0x18,0x00,0x18,0x00,0x18,0x00,0x18,0x00,0x0c,0xc0,0x0c,
 0xc0,0x0c,0x61,0x0c,0xf1,0x86,0x21,0xff,0x20,0x00,0x20,0x00,0x30,0x00,0x38,
 0x00,0x1c};
