#define noname_width 279
#define noname_height 18
static char noname_bits[] = {
 0x00,0x00,0x00,0x00,0x00,0x00,0x00,0x00,0x00,0x00,0x00,0x00,0x00,0x00,0x00,
 0x00,0x00,0x40,0x00,0x00,0x00,0x00,0x00,0x00,0x00,0x00,0x00,0x00,0x00,0x00,
 0x00,0x00,0x00,0x00,0x08,0xfc,0x00,0x00,0x00,0x00,0x7e,0x00,0x00,0x00,0x00,
 0x00,0x00,0x00,0x00,0xce,0x01,0x00,0x60,0x80,0x03,0x06,0x00,0x06,0x00,0x00,
 0x0e,0x00,0x00,0x00,0x00,0x00,0x00,0x00,0x00,0x18,0x30,0x00,0x00,0x00,0x00,
 0x18,0x00,0x00,0x00,0xc0,0xc7,0x87,0x87,0x07,0x8c,0x01,0x00,0x20,0x08,0x03,
 0x06,0x00,0x06,0x00,0x00,0x0c,0x00,0x00,0x00,0x00,0x80,0x00,0x00,0x00,0x10,
 0x18,0x00,0x00,0x08,0x00,0x0c,0x00,0x00,0x00,0xc0,0x4c,0xcc,0xcc,0x0c,0x8c,
 0x01,0x00,0x30,0x08,0x03,0x06,0x00,0x06,0x00,0x00,0x0c,0x00,0x00,0x00,0x00,
 0x80,0x00,0x00,0x00,0x30,0x18,0x00,0x00,0x08,0x00,0x0c,0x00,0x00,0x00,0xc0,
 0xec,0x4c,0x4c,0x0c,0x8c,0x01,0x00,0x10,0x08,0x03,0x00,0x00,0x00,0x00,0x00,
 0x0c,0x00,0x00,0x00,0x00,0x80,0x00,0x00,0x00,0x20,0x18,0x00,0x00,0x08,0x00,
 0x0c,0x00,0x00,0x00,0x00,0xec,0x6c,0x6c,0x0c,0x8c,0x01,0x00,0x18,0x0c,0x03,
 0x00,0x00,0x00,0x00,0x00,0x0c,0x00,0x00,0x00,0x00,0xc0,0x00,0x00,0x00,0x60,
 0x18,0x00,0x00,0x08,0x00,0x0c,0x00,0x00,0x00,0x00,0x06,0x6c,0x6c,0x0c,0x8c,
 0x1f,0x0f,0x18,0x3e,0x3f,0xc7,0x03,0xc7,0x03,0x7c,0xec,0xff,0x7c,0xef,0x3c,
 0xe0,0xfb,0xef,0xf8,0x60,0x0c,0xc0,0x00,0x08,0x00,0x06,0x00,0xe0,0xff,0x80,
 0x07,0x6e,0x6c,0x0c,0x8c,0xb1,0x09,0x18,0x0c,0x23,0x66,0x02,0x66,0x02,0x6c,
 0xcc,0x4c,0x6c,0x46,0x26,0xc0,0xb0,0x8d,0x9c,0x61,0x0c,0xc0,0xc0,0xff,0x01,
 0x06,0x00,0x00,0x00,0x00,0x0c,0x66,0x6c,0x0c,0x8c,0xb1,0x0f,0x18,0x0c,0x23,
 0xe6,0x03,0xe6,0x03,0x70,0xcc,0x4e,0x70,0x6c,0x3e,0xc0,0x30,0x8c,0xfc,0x61,
 0x0c,0x61,0xc0,0xff,0x01,0x86,0x00,0x00,0x00,0x40,0x0c,0x63,0x6c,0x0c,0x8c,
 0x31,0x0f,0x18,0x0c,0x23,0xc6,0x03,0xc6,0x03,0x5c,0x8c,0x7b,0x5c,0x2c,0x3c,
 0xc0,0x30,0x8c,0x0c,0x60,0x0c,0xf1,0x00,0x08,0x00,0x86,0x3e,0xe0,0xff,0xe0,
 0x8c,0x49,0x4c,0x0c,0x8c,0xb1,0x18,0x18,0x2c,0x23,0x26,0x06,0x26,0x06,0x4e,
 0x8d,0x3b,0x4e,0x29,0x62,0xc0,0x32,0x8c,0x0c,0x60,0x86,0x21,0x00,0x08,0x00,
 0xc3,0x3e,0x00,0x00,0x60,0xcc,0xc8,0xcc,0x0c,0x8c,0xb1,0x19,0x18,0x2c,0x23,
 0x66,0x06,0x66,0x06,0x66,0x8d,0x33,0x66,0x19,0x66,0xc0,0x32,0xcc,0x1c,0x61,
 0xff,0x20,0x00,0x08,0x80,0x7f,0x04,0x00,0x00,0xc0,0xee,0xcf,0xc7,0x07,0x9e,
 0x9f,0x0f,0x18,0xb8,0xff,0xef,0x03,0xef,0x03,0xfc,0x1f,0x31,0xfc,0x19,0x3e,
 0x80,0xfb,0xf8,0xfb,0x60,0x00,0x20,0x00,0x08,0x00,0x00,0x04,0x00,0x00,0x80,
 0x03,0x00,0x03,0x03,0x00,0x00,0x00,0x10,0x00,0x00,0x00,0x00,0x00,0x00,0x00,
 0x00,0x00,0x00,0x18,0x00,0x00,0x00,0x00,0x00,0x20,0x00,0x30,0x00,0x08,0x00,
 0x00,0x06,0x00,0x00,0x00,0x00,0x00,0x00,0x00,0x00,0x00,0x00,0x30,0x00,0x00,
 0x00,0x00,0x00,0x00,0x00,0x00,0x00,0x00,0x0b,0x00,0x00,0x00,0x00,0x00,0x30,
 0x00,0x38,0x00,0x00,0x00,0x00,0x00,0x00,0x00,0x00,0x00,0x00,0x00,0x00,0x00,
 0x00,0x00,0x20,0x00,0x00,0x00,0x00,0x00,0x00,0x00,0x00,0x00,0x00,0x0f,0x00,
 0x00,0x00,0x00,0x00,0x10,0x00,0x1c,0x00,0x00,0x00,0x00,0x00,0x00,0x00,0x00,
 0x00,0x00,0x00,0x00,0x00,0x00,0x00,0x60,0x00,0x00,0x00,0x00,0x00,0x00,0x00,
 0x00,0x00,0x00,0x06,0x00,0x00,0x00,0x00,0x00,0x18,0x00,0x00,0x00,0x00,0x00,
 0x00,0x00,0x00,0x00,0x00,0x00,0x00,0x00,0x00,0x00,0x00,0x00,0x40,0x00,0x00,
 0x00,0x00,0x00,0x00,0x00,0x00,0x00,0x00,0x00,0x00,0x00,0x00,0x00,0x00,0x08};
