#define noname_width 8
#define noname_height 7
static char noname_bits[] = {
 0x7c,0x66,0x66,0x67,0xa3,0xb3,0x7e};
