#define noname_width 11
#define noname_height 12
static char noname_bits[] = {
 0xfc,0x07,0x30,0x06,0x18,0x04,0x18,0x04,0x98,0x04,0xd8,0x00,0xfc,0x00,0xcc,
 0x00,0x4c,0x00,0x0c,0x00,0x06,0x00,0x1f,0x00};
