#define noname_width 43
#define noname_height 13
static char noname_bits[] = {
 0x00,0x00,0x00,0x00,0x80,0x07,0x00,0x00,0x00,0x00,0xc0,0x04,0x30,0x00,0x00,
 0x80,0x8f,0x06,0x30,0x00,0x00,0x80,0x18,0x06,0x38,0x00,0x00,0xc0,0x19,0x03,
 0x3c,0x00,0x00,0xc0,0x99,0x05,0x34,0x00,0x00,0x00,0xd8,0x07,0x36,0xc0,0xff,
 0x01,0x1c,0x00,0x32,0x00,0x00,0x00,0x0c,0x00,0xff,0x00,0x00,0x00,0x06,0x00,
 0x30,0xc0,0xff,0x01,0x13,0x00,0x30,0x00,0x00,0x80,0x11,0x00,0x78,0x00,0x00,
 0xc0,0x1f,0x00};
