#define noname_width 5
#define noname_height 11
static char noname_bits[] = {
 0x08,0x08,0x0c,0x0c,0x1f,0x04,0x06,0x06,0x16,0x1a,0x0e};
