#define noname_width 52
#define noname_height 17
static char noname_bits[] = {
 0x00,0x00,0x00,0x00,0x00,0x04,0x00,0x00,0x00,0x00,0x00,0x00,0x06,0x00,0x08,
 0x00,0x00,0x00,0x00,0x06,0x00,0x08,0x00,0x00,0x00,0x00,0x02,0x00,0x0c,0x00,
 0x00,0x00,0x00,0x03,0x00,0x0c,0x00,0x00,0x00,0x00,0x03,0x00,0x1f,0x00,0x00,
 0xe0,0x0e,0xc1,0x07,0x04,0xf0,0x7f,0xf0,0x8c,0x61,0x06,0x06,0x00,0x00,0xd0,
 0x8c,0x61,0x06,0x06,0x00,0x00,0x60,0x84,0x70,0x06,0x16,0xf0,0x7f,0x60,0x84,
 0x30,0x0a,0x1a,0x00,0x00,0x60,0xc2,0x30,0x0b,0x0e,0x00,0x00,0xc0,0x43,0xe0,
 0x07,0x00,0x00,0x00,0x00,0x40,0x00,0x00,0x00,0x00,0x00,0x00,0x60,0x00,0x00,
 0x00,0x00,0x00,0x00,0x20,0x00,0x00,0x00,0x00,0x00,0x00,0x20,0x00,0x00};
