#define noname_width 14
#define noname_height 7
static char noname_bits[] = {
 0xfe,0x0f,0x8d,0x19,0xcd,0x18,0xc6,0x0c,0xc6,0x2c,0x46,0x1c,0x66,0x1c};
