#define noname_width 8
#define noname_height 7
static char noname_bits[] = {
 0xfc,0xf2,0x32,0x18,0x98,0xdb,0x7f};
