#define noname_width 131
#define noname_height 34
static char noname_bits[] = {
 0x00,0x00,0x00,0x00,0x00,0x00,0x00,0x00,0x00,0x00,0x00,0x00,0x00,0x3c,0x00,
 0x00,0x00,0x00,0x00,0x00,0x00,0x00,0x00,0x00,0x00,0x00,0x00,0x00,0x00,0x00,
 0x3c,0x00,0x20,0x00,0x00,0x00,0x00,0x00,0x00,0x00,0x00,0x00,0x00,0x00,0x00,
 0x00,0x00,0x06,0x00,0x20,0x00,0x00,0x00,0x00,0x00,0x00,0x00,0x00,0x00,0x00,
 0x00,0x00,0x00,0x00,0x06,0x00,0x20,0x00,0x00,0x00,0x00,0x00,0x00,0x00,0x00,
 0x00,0x00,0x00,0x00,0x00,0x00,0x06,0x00,0x30,0x00,0x00,0x00,0x00,0x00,0x00,
 0x00,0x00,0x00,0x00,0x00,0x00,0x00,0x00,0xdf,0xe7,0xfb,0x00,0x00,0x00,0x00,
 0x00,0x00,0x00,0x00,0x00,0x00,0x00,0x00,0x00,0x00,0xe6,0x7c,0x36,0x00,0x00,
 0x00,0x00,0x00,0x00,0x00,0x00,0x00,0x00,0x00,0x00,0x00,0x00,0xe6,0xff,0x37,
 0x00,0x00,0x00,0x00,0x00,0x00,0x00,0x00,0x00,0x00,0x00,0x00,0x00,0x00,0x66,
 0x30,0x30,0x00,0x00,0x00,0x00,0x00,0x00,0x00,0x00,0x00,0x00,0x00,0x00,0x00,
 0x00,0x66,0x30,0xb0,0x00,0x00,0x00,0x00,0x00,0x00,0x00,0x00,0x00,0x00,0x00,
 0x00,0x00,0x00,0xe6,0x78,0xb4,0x00,0x00,0xf0,0x0d,0x00,0x00,0x00,0x00,0x00,
 0x00,0x00,0x00,0x00,0x00,0xcf,0xe7,0xe3,0x00,0x0e,0x18,0x07,0x00,0x00,0x00,
 0x00,0x00,0x00,0x3e,0x3e,0x80,0x03,0x00,0x00,0x00,0x00,0x0f,0x0c,0x06,0x00,
 0x00,0x00,0x00,0x00,0x00,0x66,0x62,0xc0,0x03,0x00,0x00,0x00,0x00,0x0c,0x06,
 0x06,0x00,0x00,0x00,0x00,0x00,0x00,0x66,0x67,0x00,0x03,0x00,0x00,0x00,0x00,
 0x0c,0x07,0x06,0xfe,0x0f,0x00,0x00,0x00,0x00,0x60,0x67,0x00,0x03,0x00,0x00,
 0x00,0x00,0x0c,0x03,0x00,0x00,0x00,0xf0,0x01,0x00,0x00,0x30,0x60,0x00,0x03,
 0x00,0x00,0x00,0x00,0x0c,0x03,0x00,0x00,0x00,0x98,0x01,0xff,0x07,0x3c,0x70,
 0x00,0x03,0x00,0x00,0x00,0x00,0x0c,0xc3,0x07,0xfe,0x0f,0x98,0x01,0x00,0x00,
 0x60,0x30,0x00,0x83,0xff,0xff,0xff,0x07,0x0c,0x81,0x03,0xfe,0x0f,0x9c,0x01,
 0x00,0x00,0x62,0x18,0x00,0x03,0x00,0x00,0x00,0x00,0x0c,0x83,0x01,0x00,0x00,
 0x8c,0x02,0xff,0x07,0x67,0x4c,0x00,0x03,0x00,0x00,0x00,0x00,0x0c,0x83,0x01,
 0x00,0x00,0xcc,0x02,0x00,0x00,0x63,0x46,0x06,0x03,0x00,0x00,0x00,0x00,0x3f,
 0xe6,0x01,0xfe,0x0f,0xf8,0x01,0x00,0x00,0x76,0x7f,0xc6,0x0f,0x00,0x00,0x00,
 0x00,0x00,0x38,0x00,0x00,0x00,0x00,0x00,0x00,0x00,0x1c,0x00,0x00,0x00,0x00,
 0x00,0xe0,0x01,0x00,0x00,0x00,0x00,0x00,0x00,0x00,0x00,0x00,0x00,0x00,0x00,
 0x00,0x00,0x00,0x30,0x01,0x00,0x00,0x00,0x00,0x00,0x00,0x00,0x00,0x00,0x00,
 0x00,0x00,0x00,0x00,0x00,0xa0,0x01,0x00,0x00,0x00,0x00,0x00,0x00,0x00,0x00,
 0x00,0x00,0x00,0x00,0x00,0x00,0x00,0x80,0x01,0x00,0x00,0x00,0x00,0x00,0x00,
 0x00,0x00,0x00,0x00,0x00,0x00,0x00,0xcf,0xc7,0xc7,0x00,0x00,0x00,0x00,0x00,
 0x00,0x00,0x00,0x00,0x00,0x00,0x00,0x00,0x80,0xe9,0x6c,0x66,0x01,0x00,0x00,
 0x00,0x00,0x00,0x00,0x00,0x00,0x00,0x00,0x00,0x00,0x80,0xef,0x3f,0xf0,0x01,
 0x00,0x00,0x00,0x00,0x00,0x00,0x00,0x00,0x00,0x00,0x00,0x00,0x00,0x6f,0x30,
 0x00,0x00,0x00,0x00,0x00,0x00,0x00,0x00,0x00,0x00,0x00,0x00,0x00,0x00,0x80,
 0x78,0x30,0x00,0x00,0x00,0x00,0x00,0x00,0x00,0x00,0x00,0x00,0x00,0x00,0x00,
 0x00,0x80,0xf9,0x68,0x04,0x00,0x00,0x00,0x00,0x00,0x00,0x00,0x00,0x00,0x00,
 0x00,0x00,0x00,0x80,0xcf,0xc7,0x03,0x00};
