#define noname_width 90
#define noname_height 17
static char noname_bits[] = {
 0x00,0x00,0x40,0x00,0x00,0x00,0x00,0x00,0x00,0x00,0x00,0x00,0x00,0x00,0x60,
 0x00,0x00,0x00,0x00,0x00,0x00,0x10,0x00,0x00,0x3c,0x7e,0x60,0x7e,0x3c,0x00,
 0x00,0x00,0x0e,0xf0,0xe7,0x01,0x62,0x3e,0x20,0x3e,0x66,0x00,0x00,0x00,0x0f,
 0xf0,0x33,0x03,0x42,0x02,0x30,0x02,0x62,0x00,0x00,0x00,0x0c,0x10,0x13,0x03,
 0x66,0x02,0x30,0x02,0x63,0x00,0x00,0x00,0x0c,0x00,0x19,0x03,0x3e,0x3e,0x10,
 0x3e,0x63,0x00,0x00,0x00,0x0c,0x80,0x18,0x03,0x3c,0x66,0x18,0x66,0x63,0xc0,
 0xff,0x01,0x0c,0xc0,0x18,0x03,0x76,0x60,0x18,0x60,0x63,0x00,0x00,0x00,0x0c,
 0xc0,0x18,0x03,0x63,0x62,0x08,0x62,0x63,0x00,0x00,0x00,0x0c,0x40,0x18,0x03,
 0x43,0x63,0x08,0x63,0x62,0xc0,0xff,0x01,0x0c,0x60,0x10,0x03,0x43,0x63,0x0c,
 0x63,0x66,0x00,0x00,0x00,0x0c,0x63,0x30,0x03,0x76,0x36,0x04,0x36,0x3e,0x00,
 0x00,0x00,0x3f,0x63,0xf0,0x01,0x1c,0x1c,0x04,0x1c,0x18,0x00,0x00,0x00,0x00,
 0x40,0xc0,0x00,0x00,0x00,0x06,0x00,0x00,0x00,0x00,0x00,0x00,0x00,0x00,0x00,
 0x00,0x00,0x02,0x00,0x00,0x00,0x00,0x00,0x00,0x00,0x00,0x00,0x00,0x00,0x02,
 0x00,0x00,0x00,0x00,0x00,0x00,0x00,0x00,0x00};
