#define noname_width 12
#define noname_height 13
static char noname_bits[] = {
 0xf0,0x0d,0x18,0x07,0x0c,0x06,0x06,0x06,0x07,0x06,0x03,0x00,0x03,0x00,0xc3,
 0x07,0x81,0x03,0x83,0x01,0x83,0x01,0xe6,0x01,0x38,0x00};
