#define noname_width 27
#define noname_height 16
static char noname_bits[] = {
 0x00,0x78,0x9e,0x07,0x00,0x30,0x0c,0x03,0x00,0x30,0x0c,0x01,0x00,0x30,0x8e,
 0x01,0x00,0x30,0x8e,0x00,0x8c,0x30,0xcf,0x00,0xcc,0x30,0x4d,0x00,0xcc,0xb0,
 0x6c,0x00,0xc6,0xb0,0x2c,0x00,0x46,0x71,0x1c,0x00,0x66,0x71,0x1c,0x00,0xfe,
 0x30,0x08,0x00,0x03,0x20,0x08,0x00,0x03,0x00,0x00,0x00,0x03,0x00,0x00,0x00,
 0x03,0x00,0x00,0x00};
