#define noname_width 104
#define noname_height 17
static char noname_bits[] = {
 0x00,0x00,0x40,0x00,0x00,0x00,0x00,0x00,0x00,0x00,0x00,0x00,0x00,0x00,0x00,
 0x60,0x00,0x00,0x00,0x00,0x00,0x00,0x00,0x00,0x00,0xdf,0x7c,0x3c,0x60,0x7e,
 0x3c,0x00,0x00,0x00,0x0e,0xf0,0xe1,0x81,0x71,0x66,0x66,0x20,0x3e,0x66,0x00,
 0x00,0x00,0x0f,0x10,0x33,0xc3,0x60,0x66,0x62,0x30,0x02,0x62,0x00,0x00,0x00,
 0x0c,0x38,0x13,0x63,0x60,0x06,0x63,0x30,0x02,0x63,0x00,0x00,0x00,0x0c,0x38,
 0x1b,0x73,0x60,0x3f,0x63,0x10,0x3e,0x63,0x00,0x00,0x00,0x0c,0x00,0x1b,0x33,
 0x00,0x67,0x63,0x18,0x66,0x63,0xc0,0xff,0x01,0x0c,0x80,0x1b,0x33,0x00,0x63,
 0x63,0x18,0x60,0x63,0x00,0x00,0x00,0x0c,0x80,0x19,0x33,0x7c,0x63,0x63,0x08,
 0x62,0x63,0x00,0x00,0x00,0x0c,0xc0,0x18,0x13,0x38,0x62,0x62,0x08,0x63,0x62,
 0xc0,0xff,0x01,0x0c,0x60,0x12,0x33,0x18,0x66,0x66,0x0c,0x63,0x66,0x00,0x00,
 0x00,0x0c,0x33,0x32,0x33,0x18,0x3e,0x3e,0x04,0x36,0x3e,0x00,0x00,0x00,0x3f,
 0xfb,0xf3,0x61,0x1e,0x18,0x18,0x04,0x1c,0x18,0x00,0x00,0x00,0x00,0x00,0xc0,
 0x80,0x03,0x00,0x00,0x06,0x00,0x00,0x00,0x00,0x00,0x00,0x00,0x00,0x00,0x00,
 0x00,0x00,0x02,0x00,0x00,0x00,0x00,0x00,0x00,0x00,0x00,0x00,0x00,0x00,0x00,
 0x02,0x00,0x00,0x00,0x00,0x00,0x00,0x00,0x00,0x00,0x00};
