#define noname_width 41
#define noname_height 13
static char noname_bits[] = {
 0x00,0x20,0x00,0x00,0xbe,0x01,0x0e,0xe0,0xcf,0x03,0xe3,0x00,0x0f,0xe0,0x67,
 0x86,0xc1,0x00,0x0c,0x20,0x26,0xc6,0xc0,0x00,0x0c,0x00,0x32,0xe6,0xc0,0x00,
 0x0c,0x00,0x31,0x66,0x00,0x00,0x0c,0x80,0x31,0x66,0x00,0x00,0x0c,0x80,0x31,
 0x66,0xf8,0x00,0x0c,0x80,0x30,0x26,0x70,0x00,0x0c,0xc0,0x20,0x66,0x30,0x00,
 0x0c,0xc3,0x60,0x66,0x30,0x00,0x3f,0xc3,0xe0,0xc3,0x3c,0x00,0x00,0x80,0x80,
 0x01,0x07,0x00};
