#define noname_width 142
#define noname_height 19
static char noname_bits[] = {
 0x00,0xf0,0xff,0xff,0x7f,0x00,0x00,0x00,0x00,0x00,0x00,0x00,0x00,0x00,0x00,
 0x00,0x00,0x00,0x00,0x10,0x00,0x00,0x00,0x00,0x00,0x00,0x00,0x00,0x00,0x00,
 0x00,0x00,0x00,0x00,0x00,0x00,0x00,0x18,0x00,0x00,0x00,0x00,0x00,0x00,0x00,
 0x00,0x00,0x00,0x00,0x00,0x00,0x00,0x00,0x00,0x00,0x08,0x00,0x00,0x00,0x00,
 0x00,0x00,0x00,0x00,0x00,0x00,0x00,0x00,0x00,0x00,0xe0,0x00,0x00,0xcc,0x07,
 0x00,0x00,0x00,0x00,0x80,0x83,0x87,0x07,0x60,0x78,0x00,0x00,0x00,0xc0,0x00,
 0x00,0x44,0x0c,0x00,0x00,0x00,0x00,0xc0,0xc3,0x4c,0x0c,0x60,0xc4,0x00,0x00,
 0x00,0xc0,0x00,0x00,0xe6,0x0c,0x00,0x00,0x00,0x00,0x00,0x63,0x4c,0x08,0x70,
 0x84,0x00,0x00,0x00,0xc0,0x00,0x00,0xe2,0x0c,0x00,0x00,0x00,0x00,0x00,0x63,
 0xcc,0x0c,0x78,0xcc,0x00,0x00,0x00,0xc0,0x00,0x06,0x03,0x8c,0x0f,0x3f,0x00,
 0x00,0x00,0x63,0xcc,0x07,0x68,0x7c,0xc0,0xff,0xf3,0xc7,0x0f,0x07,0x01,0xce,
 0x8c,0x3c,0xf0,0x7f,0x00,0xc3,0x8c,0x07,0x6c,0x78,0x80,0x31,0x62,0xcc,0x08,
 0x8f,0x01,0xc6,0x8c,0x0c,0x00,0x00,0x00,0xc3,0xce,0x0e,0x64,0xec,0x80,0x31,
 0x62,0xcc,0x08,0x8c,0x00,0xe3,0x0c,0x06,0x00,0x00,0x00,0x83,0x6f,0x0c,0xfe,
 0xc7,0x80,0x31,0x62,0xcc,0x08,0xcc,0x80,0x69,0x14,0x26,0xf0,0x7f,0x00,0x03,
 0x6c,0x08,0x60,0x86,0x80,0x31,0x62,0xcc,0x08,0x58,0xc0,0x68,0xd6,0x36,0x00,
 0x00,0x00,0xc3,0x6c,0xc8,0x60,0x86,0x80,0x31,0x62,0xcc,0x08,0x78,0xe0,0xcf,
 0xcf,0x1f,0x00,0x00,0xc0,0x4f,0xc6,0xce,0xf0,0xec,0xc0,0xfb,0xef,0xe7,0x3f,
 0x30,0x00,0x00,0x00,0x00,0x00,0x00,0x00,0x80,0x81,0x03,0x00,0x38,0x00,0x00,
 0x60,0x00,0x00,0x30,0x00,0x00,0x00,0x00,0x00,0x00,0x00,0x00,0x00,0x00,0x00,
 0x00,0x00,0x00,0x60,0x00,0x00,0x00,0x00,0x00,0x00,0x00,0x00,0x00,0x00,0x00,
 0x00,0x00,0x00,0x00,0x00,0x00,0x60,0x00,0x00,0x00,0x00,0x00,0x00,0x00,0x00,
 0x00,0x00,0x00,0x00,0x00,0x00,0x00,0x00,0x00,0xf0,0x00,0x00};
