#define noname_width 215
#define noname_height 16
static char noname_bits[] = {
 0x00,0x00,0x00,0x00,0x00,0x00,0x00,0x00,0x00,0x00,0x00,0x00,0x00,0x00,0x00,
 0x00,0xc0,0x03,0x00,0x00,0x00,0x00,0x00,0x00,0x00,0x70,0x00,0x3e,0x80,0x87,
 0x0f,0x00,0x00,0xf8,0xf8,0xf0,0x00,0x00,0x00,0x1c,0x3c,0x1c,0x3c,0xc0,0x03,
 0x00,0x08,0x00,0x00,0x00,0x00,0x00,0x60,0x00,0x66,0xc0,0xcc,0x0c,0x00,0x00,
 0x98,0x99,0x99,0x01,0x00,0x00,0x1e,0x66,0x1e,0x66,0x60,0x00,0x00,0x08,0x00,
 0x00,0x00,0x00,0x00,0x40,0x00,0x66,0x40,0xcc,0x0c,0x00,0x00,0x98,0x99,0x89,
 0x01,0x00,0x00,0x18,0x62,0x18,0x62,0x60,0x00,0x00,0x08,0x00,0x00,0x00,0x00,
 0x00,0x40,0x00,0x60,0x60,0xcc,0x00,0x18,0x0c,0x80,0x81,0x8d,0x01,0x00,0x00,
 0x18,0x63,0x18,0x63,0x60,0x00,0x00,0x0c,0x00,0x00,0x00,0x00,0x00,0x40,0x00,
 0x30,0x60,0xec,0x07,0x30,0x06,0xc0,0xc0,0x8c,0x01,0x00,0x00,0x18,0x63,0x18,
 0x63,0xf0,0x7d,0x7c,0x3e,0xe0,0x8f,0xcf,0x9d,0x3f,0x7c,0x3c,0x3c,0x60,0xec,
 0x0c,0x60,0x03,0xf0,0xf0,0x8c,0x01,0xff,0x07,0x18,0x63,0x18,0x63,0x60,0xc6,
 0xc6,0x0c,0xc0,0xd8,0x98,0x11,0x23,0x66,0x26,0x60,0x60,0x6c,0x0c,0xc0,0x01,
 0x80,0x81,0x8d,0x01,0x00,0x00,0x18,0x63,0x18,0x63,0x60,0x86,0x87,0x0d,0xc0,
 0xd8,0xb0,0x11,0x23,0x43,0x3e,0x62,0x60,0x6c,0x0c,0xc0,0x01,0x88,0x89,0x8d,
 0x01,0x00,0x00,0x18,0x63,0x18,0x63,0x60,0x86,0x87,0x0d,0xdf,0xd8,0xb0,0x11,
 0x23,0x43,0x3c,0x67,0x40,0x4c,0x0c,0x60,0x03,0x9c,0x9d,0x89,0x01,0xff,0x07,
 0x18,0x62,0x18,0x62,0x60,0x86,0x87,0x2d,0xc0,0xd8,0xb0,0x11,0x23,0x43,0x62,
 0x63,0xc6,0xcc,0x0c,0x30,0x06,0x8c,0x8d,0x99,0x01,0x00,0x00,0x18,0x66,0x18,
 0x66,0x60,0xce,0xce,0x2c,0xc0,0xd8,0x99,0x19,0x23,0x66,0x66,0x76,0xc6,0xc7,
 0x07,0x18,0x0c,0xd8,0xd9,0xf9,0x00,0x00,0x00,0x7e,0x3e,0x7e,0x3e,0xf0,0x7c,
 0x7c,0x38,0xc0,0x8f,0x0f,0xff,0xff,0xfc,0x3f,0x1c,0x00,0x03,0x03,0x00,0x00,
 0x70,0x70,0x60,0x00,0x00,0x00,0x00,0x18,0x00,0x18,0x00,0x00,0x00,0x00,0xc0,
 0x00,0x00,0x00,0x00,0x00,0x00,0x00,0x00,0x00,0x00,0x00,0x00,0x00,0x00,0x00,
 0x00,0x00,0x00,0x00,0x00,0x00,0x00,0x00,0x00,0x00,0x00,0xc0,0x00,0x00,0x00,
 0x00,0x00,0x00,0x00,0x00,0x00,0x00,0x00,0x00,0x00,0x00,0x00,0x00,0x00,0x00,
 0x00,0x00,0x00,0x00,0x00,0x00,0x00,0x00,0xc0,0x00,0x00,0x00,0x00,0x00,0x00,
 0x00,0x00,0x00,0x00,0x00,0x00,0x00,0x00,0x00,0x00,0x00,0x00,0x00,0x00,0x00,
 0x00,0x00,0x00,0x00,0x00,0xe0,0x01,0x00,0x00,0x00,0x00,0x00};
