#define noname_width 151
#define noname_height 26
static char noname_bits[] = {
 0x00,0x00,0x00,0x00,0x00,0xfe,0xff,0xff,0xff,0xff,0xff,0x07,0x00,0x00,0x00,
 0x00,0x00,0x00,0x00,0x00,0x00,0x00,0x00,0x00,0x06,0x00,0x00,0x00,0x00,0x00,
 0x00,0x00,0x00,0x00,0x00,0x00,0x00,0x00,0x00,0x00,0x00,0x00,0x00,0x02,0x00,
 0x00,0x00,0x00,0x00,0x00,0x00,0x00,0x00,0x00,0x00,0x00,0x00,0x00,0x00,0x00,
 0x00,0x00,0x03,0x00,0x00,0x00,0x00,0x00,0x00,0x00,0x00,0x00,0xe0,0xff,0xff,
 0x7f,0x00,0x00,0x00,0x00,0x00,0x03,0x00,0x00,0x00,0x00,0x01,0x00,0x00,0x00,
 0x00,0x20,0x00,0x00,0x00,0x00,0x00,0x00,0x00,0x00,0x01,0x00,0x00,0x00,0x80,
 0x01,0x00,0x00,0x00,0x00,0x30,0x00,0x00,0x00,0x08,0x00,0x00,0x00,0x80,0x71,
 0xf8,0xf8,0xf0,0x80,0xf1,0x00,0x00,0x00,0x00,0x10,0x07,0x9f,0x1f,0x08,0x00,
 0x00,0x00,0x80,0x79,0x98,0x89,0x99,0x81,0x88,0x01,0x00,0x00,0x00,0x98,0x87,
 0x99,0x0f,0x0c,0x00,0x00,0x00,0x80,0x60,0x98,0x9d,0x89,0xc1,0x08,0x01,0x00,
 0x00,0x00,0x08,0x86,0x99,0x00,0x0c,0x00,0x00,0x00,0xc0,0x60,0x80,0x9d,0x8d,
 0xc1,0x98,0x01,0x00,0x00,0x00,0x0c,0x86,0x81,0x00,0x1f,0x00,0x00,0x00,0xc0,
 0x60,0xc0,0x80,0x8d,0x41,0xf8,0x00,0x00,0x00,0x00,0x04,0xc6,0x8f,0x0f,0x04,
 0xf0,0x7f,0x00,0x40,0x60,0xf0,0xc0,0x8d,0x61,0xf0,0x00,0xff,0x07,0x0c,0x06,
 0xc6,0x99,0x19,0x06,0x00,0x00,0x00,0x60,0x60,0x80,0xc1,0x8c,0x61,0xd8,0x01,
 0x00,0x00,0x0e,0x02,0xc6,0x18,0x18,0x06,0x00,0x00,0xc0,0x60,0x60,0x88,0x61,
 0x8c,0x21,0x8c,0x01,0x00,0x00,0x1e,0x03,0xc6,0x98,0x18,0x16,0xf0,0x7f,0xe0,
 0x20,0x60,0x9c,0x31,0x89,0x21,0x0c,0x01,0xff,0x07,0x18,0x01,0x86,0xd8,0x18,
 0x1a,0x00,0x00,0xc0,0x30,0x60,0x8c,0x19,0x99,0x31,0x0c,0x01,0x00,0x00,0x98,
 0x01,0x86,0xd9,0x18,0x0e,0x00,0x00,0x80,0x31,0xf8,0xd9,0xfd,0xf9,0x10,0xd8,
 0x01,0x00,0x00,0xb0,0x80,0x9f,0x8f,0x0d,0x00,0x00,0x00,0x80,0x11,0x00,0x70,
 0x00,0x60,0x10,0x70,0x00,0x00,0x00,0xf0,0x00,0x00,0x06,0x07,0x00,0x00,0x00,
 0x80,0x19,0x00,0x00,0x00,0x00,0x18,0x00,0x00,0x00,0x00,0x60,0x00,0x00,0x00,
 0x00,0x00,0x00,0x00,0x00,0x19,0x00,0x00,0x00,0x00,0x08,0x00,0x00,0x00,0x00,
 0x60,0x00,0x00,0x00,0x00,0x00,0x00,0x00,0x00,0x0b,0x00,0x00,0x00,0x00,0x08,
 0x00,0x00,0x00,0x00,0x00,0x00,0x00,0x00,0x00,0x00,0x00,0x00,0x00,0x0f,0x00,
 0x00,0x00,0x00,0x00,0x00,0x00,0x00,0x00,0x00,0x00,0x00,0x00,0x00,0x00,0x00,
 0x00,0x00,0x0f,0x00,0x00,0x00,0x00,0x00,0x00,0x00,0x00,0x00,0x00,0x00,0x00,
 0x00,0x00,0x00,0x00,0x00,0x00,0x06,0x00,0x00,0x00,0x00,0x00,0x00,0x00,0x00,
 0x00,0x00,0x00,0x00,0x00,0x00,0x00,0x00,0x00,0x00,0x06,0x00,0x00,0x00,0x00,
 0x00,0x00,0x00,0x00,0x00,0x00,0x00,0x00,0x00,0x00,0x00,0x00,0x00,0x00,0x06,
 0x00,0x00,0x00,0x00,0x00,0x00,0x00,0x00,0x00,0x00,0x00,0x00,0x00,0x00};
