#define noname_width 296
#define noname_height 17
static char noname_bits[] = {
 0x00,0x00,0x00,0x00,0x00,0x00,0x00,0x00,0x00,0x00,0x00,0x00,0x00,0x00,0x00,
 0x80,0x00,0x00,0x00,0x00,0x00,0x00,0x00,0x00,0x00,0x00,0x00,0x00,0x00,0x00,
 0x00,0x00,0x00,0x00,0x00,0x00,0x00,0x00,0x00,0x00,0x00,0xc0,0x03,0x00,0x00,
 0x00,0x00,0x00,0x00,0x00,0xe0,0x00,0xc0,0x00,0x00,0x00,0x00,0xf0,0x00,0x00,
 0x00,0x00,0x00,0x00,0x00,0x04,0x00,0x00,0x00,0x00,0x00,0x00,0xe0,0x00,0x3e,
 0x1c,0x3c,0x3c,0xc0,0x03,0x00,0x10,0x00,0x00,0x00,0x00,0x00,0xc0,0x00,0xc0,
 0x38,0x00,0x0f,0x0f,0xf0,0x00,0x80,0x00,0x00,0x00,0x7c,0x78,0xfc,0x79,0x00,
 0x00,0x00,0x00,0x00,0xc0,0x00,0x66,0x1e,0x66,0x66,0x60,0x00,0x00,0x10,0x00,
 0x00,0x00,0x00,0x00,0x80,0x00,0x40,0x3c,0x80,0x99,0x18,0x18,0x00,0x80,0x00,
 0x00,0x00,0xc4,0xc4,0xfc,0xcc,0x00,0x00,0x00,0x00,0x00,0x80,0x00,0x66,0x18,
 0x62,0x62,0x60,0x00,0x00,0x10,0x00,0x00,0x00,0x00,0x00,0x80,0x00,0x60,0x30,
 0x80,0x98,0x10,0x18,0x00,0x80,0x00,0x00,0x00,0xce,0x84,0xc4,0xc4,0x00,0x00,
 0x00,0x00,0x00,0x80,0x00,0x60,0x18,0x63,0x63,0x60,0x00,0x00,0x18,0x00,0x00,
 0x00,0x00,0x00,0x80,0x00,0x60,0x30,0xc0,0x98,0x19,0x18,0x00,0xc0,0x00,0x00,
 0x00,0xce,0xcc,0x40,0xc6,0x00,0x00,0x00,0x00,0x00,0x80,0x00,0x30,0x18,0x63,
 0x63,0xf0,0x7d,0xf8,0x7c,0xe0,0x0f,0x9f,0x3b,0x7f,0xf8,0x78,0x20,0x30,0xc0,
 0x98,0x0f,0x7c,0x9f,0xef,0x03,0x00,0x00,0xc0,0x7c,0x20,0xc6,0xc0,0x1f,0x9f,
 0x3b,0x7f,0xf8,0x78,0x3c,0x18,0x63,0x63,0x60,0xc6,0x8c,0x19,0xc0,0x98,0x31,
 0x23,0x46,0xcc,0x4c,0x30,0x30,0xc0,0x18,0x0f,0x98,0xf3,0xd9,0x00,0xfe,0x0f,
 0xe0,0x78,0x30,0xc6,0x80,0xb1,0x31,0x23,0x46,0xcc,0x4c,0x60,0x18,0x63,0x63,
 0x60,0x86,0x0d,0x1b,0xc0,0x98,0x61,0x23,0x46,0x86,0x7c,0x30,0x30,0xc0,0x98,
 0x1d,0x98,0xff,0xdf,0x00,0x00,0x00,0x60,0xec,0x30,0xc6,0x80,0xb1,0x61,0x23,
 0x46,0x86,0x7c,0x62,0x18,0x63,0x63,0x60,0x86,0x0d,0x1b,0xdf,0x98,0x61,0x23,
 0x46,0x86,0x78,0x10,0x30,0xc0,0xd8,0x18,0x98,0xc1,0xc0,0x00,0x00,0x00,0x30,
 0xc6,0x10,0xc6,0x80,0xb1,0x61,0x23,0x46,0x86,0x78,0x67,0x18,0x62,0x62,0x60,
 0x86,0x0d,0x5b,0xc0,0x98,0x61,0x23,0x46,0x86,0xc4,0x10,0x30,0x80,0xd8,0x10,
 0x98,0xc1,0xc0,0x02,0xfe,0x0f,0x98,0x86,0x18,0xc4,0x80,0xb1,0x61,0x23,0x46,
 0x86,0xc4,0x63,0x18,0x66,0x66,0x60,0xce,0x9c,0x59,0xc0,0x98,0x33,0x33,0x46,
 0xcc,0xcc,0x18,0x30,0x8c,0xd9,0x10,0x98,0xe3,0xd1,0x02,0x00,0x00,0x8c,0x86,
 0x18,0xcc,0x80,0xb1,0x33,0x33,0x46,0xcc,0xcc,0x76,0x7e,0x3e,0x3e,0xf0,0x7c,
 0xf8,0x70,0xc0,0x0f,0x1f,0xfe,0xff,0xf9,0x7f,0x08,0xfc,0x8c,0x8f,0x1d,0x3c,
 0x9f,0x8f,0x03,0x00,0x00,0xfe,0xec,0x18,0x7c,0x80,0x1f,0x1f,0xfe,0xff,0xf9,
 0x7f,0x1c,0x00,0x18,0x18,0x00,0x00,0x00,0x00,0xc0,0x00,0x00,0x00,0x00,0x00,
 0x00,0x08,0x00,0x00,0x06,0x07,0x00,0x00,0x00,0x00,0x00,0x00,0x00,0x38,0x10,
 0x30,0x80,0x01,0x00,0x00,0x00,0x00,0x00,0x00,0x00,0x00,0x00,0x00,0x00,0x00,
 0x00,0xc0,0x00,0x00,0x00,0x00,0x00,0x00,0x0c,0x00,0x00,0x00,0x00,0x00,0x00,
 0x00,0x00,0x00,0x00,0x00,0x00,0x00,0x00,0x80,0x01,0x00,0x00,0x00,0x00,0x00,
 0x00,0x00,0x00,0x00,0x00,0x00,0x00,0x00,0xc0,0x00,0x00,0x00,0x00,0x00,0x00,
 0x04,0x00,0x00,0x00,0x00,0x00,0x00,0x00,0x00,0x00,0x00,0x00,0x00,0x00,0x00,
 0x80,0x01,0x00,0x00,0x00,0x00,0x00,0x00,0x00,0x00,0x00,0x00,0x00,0x00,0x00,
 0xe0,0x01,0x00,0x00,0x00,0x00,0x00,0x04,0x00,0x00,0x00,0x00,0x00,0x00,0x00,
 0x00,0x00,0x00,0x00,0x00,0x00,0x00,0xc0,0x03,0x00,0x00,0x00,0x00,0x00};
