#define noname_width 332
#define noname_height 39
static char noname_bits[] = {
 0x00,0x00,0x00,0x00,0x00,0x00,0x00,0x00,0x00,0x00,0x00,0x00,0x00,0x00,0x00,
 0x00,0x00,0x00,0x00,0x00,0x00,0x00,0x00,0x00,0x00,0x00,0x00,0x00,0x00,0x00,
 0x00,0x00,0x00,0x00,0x00,0x20,0x00,0x00,0x00,0x00,0x00,0x00,0x00,0x00,0x00,
 0x00,0x00,0x00,0x00,0x00,0x00,0x00,0x00,0x00,0xec,0x00,0x00,0x00,0x00,0x00,
 0x00,0x00,0x00,0x00,0x00,0x00,0x00,0x00,0x00,0x00,0x00,0x00,0x00,0x80,0x07,
 0x00,0x00,0x30,0x00,0xc0,0x0e,0x00,0x00,0x00,0x00,0x00,0x00,0x00,0x00,0x00,
 0x00,0x00,0x00,0x00,0x00,0x00,0xcc,0x00,0x00,0x00,0x00,0x00,0x00,0x00,0x00,
 0x00,0x00,0x00,0x00,0x00,0x00,0x7e,0x3e,0x3c,0x3c,0x80,0x07,0x00,0x04,0x30,
 0x00,0xc0,0x0c,0x00,0x00,0x00,0x00,0x00,0x00,0x00,0x00,0x00,0x00,0x00,0x00,
 0x00,0x00,0x00,0xcc,0x00,0x00,0x00,0x00,0x00,0x00,0x00,0x00,0x00,0x00,0x00,
 0x00,0x00,0x00,0x3e,0x62,0x62,0x66,0xc0,0x00,0x00,0x04,0x10,0x00,0xc0,0x0c,
 0x00,0x00,0x00,0x00,0x00,0x00,0x00,0x00,0x00,0x00,0x00,0x00,0x00,0x00,0x00,
 0xc0,0x00,0x00,0x00,0x00,0x00,0x00,0x00,0x00,0x00,0x00,0x00,0x00,0x00,0x00,
 0x02,0x67,0x42,0x62,0xc0,0x00,0x00,0x04,0x18,0x00,0x00,0x0c,0x00,0x00,0x00,
 0x00,0x00,0x00,0x00,0x00,0x00,0x00,0x00,0x00,0x00,0x00,0x00,0xc0,0x00,0x00,
 0x00,0x00,0x00,0x00,0x00,0x00,0x00,0x00,0x00,0x00,0x00,0x00,0x02,0x67,0x66,
 0x63,0xc0,0x00,0x00,0x06,0x18,0x00,0x00,0x0c,0x00,0x00,0x00,0x00,0x00,0x00,
 0x00,0x00,0x00,0x00,0x00,0x00,0x00,0xf8,0x7f,0xce,0xf8,0x3c,0x00,0x00,0x00,
 0x00,0x00,0x00,0x00,0x00,0x00,0x00,0x00,0x00,0x3e,0x60,0x3e,0x63,0xe0,0xfb,
 0x7c,0x1f,0x88,0xff,0xe7,0x8c,0x0f,0x00,0x00,0x00,0x00,0x00,0x00,0x00,0x00,
 0x00,0x00,0x00,0x00,0x30,0x46,0xcc,0x9c,0x27,0x00,0x00,0x00,0x00,0x00,0x00,
 0x00,0x00,0x00,0x00,0x00,0x00,0x66,0x70,0x3c,0x63,0xc0,0x9c,0xcf,0x06,0x0c,
 0x63,0xc4,0xcc,0x19,0x00,0x00,0x00,0x00,0x00,0x00,0x00,0x00,0x00,0x00,0x00,
 0x00,0x30,0x46,0xcc,0xfc,0x3f,0x00,0x00,0x00,0x00,0x00,0x00,0x00,0x00,0x00,
 0x00,0x00,0x00,0x60,0x30,0x76,0x63,0xc0,0xfc,0xff,0x06,0x0c,0x63,0xc4,0xcc,
 0x1f,0x00,0x00,0x00,0x00,0x00,0x00,0x00,0x00,0x00,0x00,0x00,0x00,0x30,0x46,
 0xcc,0x0c,0x3c,0x00,0x00,0x00,0x00,0x00,0x00,0x00,0x00,0x00,0x00,0x00,0x00,
 0x62,0x18,0x63,0x63,0xc0,0x0c,0x06,0x06,0x04,0x63,0xc4,0xcc,0x00,0x00,0x00,
 0x00,0x00,0x00,0x00,0x00,0x00,0x00,0x00,0x00,0x00,0x30,0x46,0xcc,0x0c,0x62,
 0x00,0x00,0x00,0x00,0x00,0x00,0x00,0x00,0x00,0x00,0x00,0x00,0x63,0x4c,0x43,
 0x62,0xc0,0x0c,0x06,0x16,0x04,0x63,0xc4,0xcc,0x00,0x00,0x00,0x00,0x00,0x01,
 0x00,0x00,0x20,0x00,0x00,0x00,0x00,0x30,0x46,0xcc,0x1c,0x67,0x00,0x00,0x02,
 0x00,0x00,0x00,0x00,0x00,0x00,0x04,0x00,0x00,0x63,0x46,0x43,0x66,0xc0,0x1c,
 0x8f,0x16,0x06,0x63,0xc4,0xcc,0x11,0x00,0x00,0xc0,0x81,0xf1,0x00,0x00,0x60,
 0x00,0x00,0x00,0x00,0x78,0xff,0xff,0xf9,0x3e,0x00,0x00,0x03,0x00,0x00,0x00,
 0x00,0xc0,0x01,0x0c,0x00,0x00,0x36,0x7f,0x76,0x3e,0xe0,0xf9,0x7c,0x1c,0x82,
 0xf7,0xff,0x9f,0x0f,0x00,0x00,0x80,0x80,0xf0,0x00,0x00,0x41,0x00,0x00,0x00,
 0x00,0x00,0x00,0x00,0x00,0x00,0x80,0x00,0x01,0x00,0x00,0x00,0x00,0x80,0x01,
 0x08,0x00,0x00,0x1c,0x00,0x1c,0x18,0x00,0x00,0x00,0x00,0x02,0x00,0x00,0x00,
 0x00,0x00,0x00,0xc0,0xc0,0x18,0x00,0x00,0xc1,0x00,0x00,0x00,0x00,0x00,0x00,
 0x00,0x00,0x00,0x80,0x80,0x01,0x00,0x00,0x00,0x00,0x00,0x01,0x18,0x00,0x00,
 0x00,0x00,0x00,0x00,0x00,0x00,0x00,0x00,0x03,0x00,0x00,0x00,0x00,0x00,0x00,
 0xc0,0x40,0x18,0x00,0x00,0x81,0x00,0x00,0x00,0x00,0x00,0x00,0x00,0x00,0x00,
 0xc0,0x80,0x00,0x00,0x00,0x00,0x00,0x00,0x01,0x10,0x00,0x00,0x00,0x00,0x00,
 0x00,0x00,0x00,0x00,0x00,0x01,0x00,0x00,0x00,0x00,0x00,0x00,0xc0,0x60,0x18,
 0x00,0x80,0x81,0x01,0x00,0x00,0x00,0x00,0x00,0x00,0x00,0x00,0xc0,0xc0,0x00,
 0x00,0x00,0x00,0x00,0x00,0x01,0x30,0x00,0x00,0x00,0x00,0x00,0x00,0x00,0x00,
 0x00,0x00,0x01,0x00,0x00,0x00,0x00,0x00,0x00,0x7c,0x60,0x7c,0x1f,0xdf,0x87,
 0x01,0x00,0x00,0xee,0x00,0x00,0x00,0x00,0x00,0xf0,0xc1,0xe0,0xf9,0xf8,0x7c,
 0xfe,0xf0,0xf1,0x30,0x00,0x00,0x00,0x00,0x00,0x00,0x00,0x00,0x00,0x00,0x00,
 0x00,0x00,0x00,0x00,0x00,0x00,0x66,0x60,0x98,0xb3,0xb3,0x81,0x01,0xff,0x07,
 0xcf,0x00,0x00,0x00,0x00,0x00,0x40,0xc0,0x30,0x9d,0xcd,0xc6,0x8c,0x98,0x99,
 0x30,0x00,0x00,0x00,0x00,0x00,0x00,0x00,0x00,0x00,0x00,0x00,0x00,0x00,0x00,
 0x00,0x00,0x00,0x66,0x60,0x98,0xbf,0xbf,0x81,0x01,0x00,0x00,0xcd,0xf8,0xff,
 0xff,0xff,0xff,0x60,0xc0,0xf0,0xfd,0x07,0x86,0x8d,0x0c,0xf9,0x30,0xfe,0xff,
 0xff,0xff,0xff,0xff,0xff,0xff,0xff,0xff,0xff,0xff,0xff,0xff,0xff,0xff,0x0f,
 0x67,0x60,0x98,0x81,0x81,0x81,0x01,0x00,0x00,0x46,0x00,0x00,0x00,0x00,0x00,
 0x60,0xc0,0xe0,0x0d,0x06,0x86,0x8d,0x0c,0xf1,0x30,0x00,0x00,0x00,0x00,0x00,
 0x00,0x00,0x00,0x00,0x00,0x00,0x00,0x00,0x00,0x00,0x00,0x00,0xa3,0x60,0x98,
 0x81,0x81,0x85,0x01,0xff,0x07,0x46,0x00,0x00,0x00,0x00,0x00,0x60,0xc1,0x10,
 0x0f,0x06,0x86,0x8d,0x0c,0x89,0x31,0x00,0x00,0x00,0x00,0x00,0x00,0x00,0x00,
 0x00,0x00,0x00,0x00,0x00,0x00,0x00,0x00,0x00,0xb3,0x60,0x98,0xa3,0xa3,0x85,
 0x01,0x00,0x00,0x26,0x00,0x00,0x00,0x00,0x00,0xa0,0xc1,0x30,0x1f,0x8d,0xce,
 0x8c,0x98,0x99,0x31,0x00,0x00,0x00,0x00,0x00,0x00,0x00,0x00,0x00,0x00,0x00,
 0x00,0x02,0x00,0x00,0x00,0x00,0x7e,0x60,0x3c,0x1f,0x1f,0x87,0x01,0x00,0x00,
 0x3c,0xe0,0x00,0x00,0x00,0x00,0xe0,0xc0,0xf0,0xf9,0x78,0x7c,0xfe,0xf3,0xff,
 0x30,0x00,0x00,0x00,0x00,0x00,0x00,0x00,0x00,0x00,0x80,0x03,0x00,0x3b,0x00,
 0x00,0x00,0x00,0x00,0x40,0x00,0x00,0x00,0x80,0x00,0x00,0x00,0x00,0xc0,0x00,
 0x00,0x00,0x00,0x00,0x80,0x00,0x00,0x00,0x00,0x00,0x00,0x00,0x10,0x7c,0xf8,
 0x78,0x78,0x00,0x00,0x00,0x00,0x00,0x00,0x03,0x00,0x33,0x00,0x00,0x00,0x00,
 0x00,0xc0,0x00,0x00,0x00,0xc0,0x00,0x00,0x00,0x00,0xc0,0x00,0x00,0x00,0x00,
 0x00,0x80,0x01,0x00,0x00,0x00,0x00,0x00,0x00,0x18,0xcc,0xcc,0xcc,0xcc,0x00,
 0x00,0x00,0x00,0x00,0x00,0x02,0x00,0x31,0x00,0x00,0x00,0x00,0x00,0x80,0x00,
 0x00,0x00,0x40,0x00,0x00,0x00,0x00,0xc0,0x00,0x00,0x00,0x00,0x00,0x00,0x01,
 0x00,0x00,0x00,0x00,0x00,0x00,0x08,0xcc,0xcc,0xc4,0xc4,0x00,0x00,0x00,0x00,
 0x00,0x00,0x02,0x80,0x31,0x00,0x00,0x00,0x00,0x00,0x80,0x01,0x00,0x00,0x60,
 0x00,0x00,0x00,0x00,0xc0,0x00,0x00,0x00,0x00,0x00,0x00,0x03,0x00,0x00,0x00,
 0x00,0x00,0x00,0x0c,0xc0,0x0c,0xc6,0xc6,0x00,0x00,0x00,0x00,0x00,0x00,0x02,
 0x80,0x31,0x00,0x00,0x00,0x00,0x00,0x00,0x01,0x00,0x00,0x20,0x00,0x00,0x00,
 0x00,0xc0,0x8f,0xcf,0x9d,0x1f,0x00,0x00,0x02,0x00,0x00,0x00,0x00,0x00,0x00,
 0x04,0x60,0x7e,0xc6,0xc6,0xc0,0xe3,0xe3,0xfb,0xfc,0xe1,0xe3,0x81,0xf0,0xe3,
 0x73,0xe7,0x07,0x00,0x00,0x00,0x00,0x00,0x00,0x00,0x00,0x00,0x00,0xc0,0xc8,
 0x98,0x11,0x1b,0x00,0x00,0x00,0x00,0x00,0x00,0x00,0x00,0x00,0x00,0x78,0xce,
 0xc6,0xc6,0x60,0x72,0x36,0x8f,0x19,0x31,0x33,0xc1,0x30,0x32,0x66,0xc4,0x06,
 0x00,0x00,0x00,0x00,0x00,0x00,0x00,0x00,0x00,0x00,0xc0,0xc8,0xb0,0x11,0x03,
 0x00,0x00,0x00,0x00,0x00,0x00,0x00,0x00,0x00,0x00,0xc0,0xc6,0xc6,0xc6,0xe0,
 0xf3,0x1f,0x0c,0x1b,0x19,0xf2,0xc1,0x30,0x32,0x6c,0xc4,0x00,0x00,0x00,0x00,
 0x00,0x00,0x00,0x00,0x00,0x00,0x00,0xc0,0xc8,0xb0,0x11,0x03,0x00,0x00,0x00,
 0x00,0x00,0x00,0x00,0x00,0x00,0x00,0xc4,0xc6,0xc6,0xc6,0xc0,0x33,0x18,0x0c,
 0x1b,0x19,0xe2,0x41,0x30,0x32,0x6c,0xc4,0x00,0x00,0x00,0x00,0x00,0x00,0x00,
 0x00,0x00,0x00,0x00,0xc0,0xc8,0xb0,0x11,0x03,0x00,0x00,0x00,0x00,0x00,0x00,
 0x00,0x00,0x00,0x00,0xce,0xc4,0xc4,0xc4,0x20,0x36,0x18,0x0c,0x1b,0x19,0x12,
 0x43,0x30,0x32,0x6c,0xc4,0x00,0x00,0x00,0x00,0x00,0x00,0x00,0x00,0x00,0x00,
 0x00,0xc0,0xc8,0x99,0x19,0x03,0x00,0x00,0x00,0x00,0x00,0x00,0x00,0x00,0x00,
 0x00,0xc6,0xcc,0xcc,0xcc,0x60,0x76,0x34,0x9e,0x19,0x31,0x33,0x63,0x30,0x72,
 0x66,0xc6,0x00,0x00,0x00,0x00,0x00,0x00,0x00,0x00,0x00,0x00,0x00,0xe0,0xbf,
 0x0f,0xff,0x0f,0x00,0x00,0x00,0x00,0x00,0x00,0x00,0x00,0x00,0x00,0xec,0x7c,
 0x7c,0x7c,0xe0,0xe3,0xe3,0xf9,0xfc,0xe7,0xff,0x21,0xf8,0xef,0xc3,0xff,0x03,
 0x00,0x00,0x00,0x00,0x00,0x00,0x00,0x00,0x00,0x00,0x00,0x00,0x00,0x00,0x00,
 0x00,0x00,0x00,0x00,0x00,0x00,0x00,0x00,0x00,0x00,0x38,0x30,0x30,0x30,0x00,
 0x00,0x00,0x00,0x00,0x00,0x00,0x20,0x00,0x00,0x00,0x00,0x00,0x00,0x00,0x00,
 0x00,0x00,0x00,0x00,0x00,0x00,0x00,0x00,0x00,0x00,0x00,0x00,0x00,0x00,0x00,
 0x00,0x00,0x00,0x00,0x00,0x00,0x00,0x00,0x00,0x00,0x00,0x00,0x00,0x00,0x00,
 0x00,0x00,0x00,0x30,0x00,0x00,0x00,0x00,0x00,0x00,0x00,0x00,0x00,0x00,0x00,
 0x00,0x00,0x00,0x00,0x00,0x00,0x00,0x00,0x00,0x00,0x00,0x00,0x00,0x00,0x00,
 0x00,0x00,0x00,0x00,0x00,0x00,0x00,0x00,0x00,0x00,0x00,0x00,0x00,0x00,0x00,
 0x10,0x00,0x00,0x00,0x00,0x00,0x00,0x00,0x00,0x00,0x00,0x00,0x00,0x00,0x00,
 0x00,0x00,0x00,0x00,0x00,0x00,0x00,0x00,0x00,0x00,0x00,0x00,0x00,0x00,0x00,
 0x00,0x00,0x00,0x00,0x00,0x00,0x00,0x00,0x00,0x00,0x00,0x00,0x10,0x00,0x00,
 0x00,0x00,0x00};
