#define noname_width 9
#define noname_height 12
static char noname_bits[] = {
 0xc0,0x01,0x80,0x00,0xc0,0x00,0xc0,0x00,0xc0,0x00,0x7c,0x00,0x66,0x00,0x66,
 0x00,0x67,0x00,0xa3,0x00,0xb3,0x00,0x7e,0x00};
