#define noname_width 217
#define noname_height 20
static char noname_bits[] = {
 0x00,0x00,0x00,0x00,0x00,0x00,0x00,0x00,0x00,0x00,0x00,0x00,0x00,0x00,0x00,
 0x00,0x00,0x00,0x00,0x00,0x00,0x00,0x00,0x00,0x00,0x00,0xe0,0x01,0x00,0x00,
 0x00,0x00,0x00,0x00,0x00,0x00,0x00,0x00,0x00,0x00,0x00,0x00,0x00,0x00,0x00,
 0x00,0x00,0x00,0x00,0x00,0x00,0x00,0x00,0x00,0x30,0x01,0x00,0x00,0x01,0x00,
 0x00,0x40,0x00,0x00,0x00,0x00,0x00,0x00,0x00,0x02,0x00,0x80,0x00,0x00,0x40,
 0x00,0x00,0x00,0x00,0x00,0x00,0x80,0xa0,0x01,0xc0,0x81,0xe1,0x01,0x00,0xc0,
 0x00,0x00,0x00,0x00,0x00,0x00,0x00,0x03,0xdf,0x80,0x01,0x00,0x60,0x00,0x00,
 0x00,0x00,0x00,0x1c,0x80,0x81,0x01,0x80,0x80,0xe0,0x01,0x00,0x81,0x00,0x00,
 0x00,0x38,0xf8,0x00,0x00,0x81,0x71,0x00,0x01,0x10,0x20,0x00,0x00,0x00,0x00,
 0x00,0x18,0x00,0xc1,0x00,0xc0,0xc0,0x30,0x00,0x00,0x81,0x01,0x00,0x00,0x3c,
 0xcc,0x00,0x80,0xc1,0x60,0x00,0x03,0x10,0x30,0x00,0x00,0x00,0x00,0x00,0x10,
 0x00,0x63,0x01,0xc0,0x40,0x30,0x00,0x00,0x01,0x01,0x00,0x00,0x30,0xcc,0x00,
 0x80,0x60,0x60,0x00,0x02,0x18,0x10,0x00,0x00,0x00,0x00,0x00,0x10,0x00,0xf2,
 0x01,0xc0,0x60,0x30,0x00,0x80,0x01,0x03,0x00,0x00,0x30,0x0c,0x00,0xc0,0x70,
 0x60,0x00,0x06,0x18,0x18,0x00,0x00,0x00,0x00,0x00,0x10,0x00,0x06,0x00,0x7c,
 0x60,0xf8,0x3e,0xdf,0x07,0x03,0x00,0x00,0x30,0x7e,0xf8,0xc0,0x30,0x00,0x1e,
 0x06,0x3e,0x18,0x1e,0x1f,0xdf,0xe7,0x0f,0x1f,0x0f,0x06,0x00,0x66,0x60,0x30,
 0xe7,0xb3,0x01,0x03,0xff,0x07,0x30,0xce,0xcc,0xc0,0x30,0x00,0x13,0x06,0x08,
 0x18,0x93,0xb3,0x79,0xcc,0x88,0x99,0x09,0x06,0x00,0x66,0x60,0x30,0xff,0xbf,
 0x01,0x03,0x00,0x00,0x30,0xc6,0xcc,0xc0,0x30,0x7c,0x1f,0x06,0x0c,0x18,0x9f,
 0xff,0x60,0xd8,0xc8,0x90,0x0f,0x06,0x00,0x67,0x60,0x30,0x83,0x81,0x01,0x03,
 0x00,0x00,0x30,0xc6,0xce,0xc0,0x10,0x38,0x1e,0x06,0x0c,0x18,0x9e,0xc1,0x60,
 0xd8,0xc8,0x10,0x0f,0x06,0x00,0xa3,0x60,0x30,0x83,0x81,0x05,0x03,0xff,0x07,
 0x30,0xc4,0x46,0xc1,0x30,0x18,0x31,0x06,0x2c,0x18,0xb1,0xc1,0x60,0xd8,0xc8,
 0x90,0x18,0x06,0x00,0xb3,0x60,0x30,0xc7,0xa3,0x05,0x03,0x00,0x00,0x30,0xcc,
 0x66,0xc1,0x30,0x18,0x33,0x06,0x34,0x18,0xb3,0xa3,0xf1,0xcc,0x88,0x99,0x19,
 0x06,0x00,0x7e,0x60,0x78,0x3e,0x1f,0x07,0x03,0x00,0x00,0xfc,0x7c,0xfc,0xc0,
 0x60,0x1e,0x1f,0x06,0x1c,0x18,0x1f,0x1f,0xcf,0xe7,0x3f,0xff,0x0f,0x06,0x00,
 0x00,0x40,0x00,0x00,0x00,0x00,0x01,0x00,0x00,0x00,0x30,0x00,0x80,0x80,0x03,
 0x00,0x02,0x00,0x10,0x00,0x00,0x00,0x00,0x00,0x00,0x00,0x02,0x00,0x00,0xc0,
 0x00,0x00,0x00,0x80,0x01,0x00,0x00,0x00,0x00,0x00,0x80,0x01,0x00,0x00,0x03,
 0x00,0x30,0x00,0x00,0x00,0x00,0x00,0x00,0x00,0x03,0x00,0x00,0x80,0x00,0x00,
 0x00,0x80,0x00,0x00,0x00,0x00,0x00,0x00,0x00,0x01,0x00,0x00,0x01,0x00,0x20,
 0x00,0x00,0x00,0x00,0x00,0x00,0x00,0x01,0x00,0x00,0x80,0x01,0x00,0x00,0xc0,
 0x00,0x00,0x00,0x00,0x00,0x00,0x00,0x03,0x00,0x80,0x01,0x00,0x60,0x00,0x00,
 0x00,0x00,0x00,0x00,0x80,0x01,0x00,0x00,0x00,0x01,0x00,0x00,0x40,0x00,0x00,
 0x00,0x00,0x00,0x00,0x00,0x02,0x00,0x80,0x00,0x00,0x40,0x00,0x00,0x00,0x00,
 0x00,0x00,0x80,0x00,0x00};
