#define noname_width 53
#define noname_height 19
static char noname_bits[] = {
 0x00,0x00,0x00,0x00,0x0e,0x00,0x00,0x00,0x00,0x00,0x00,0x0c,0xe0,0x1b,0x00,
 0x00,0x00,0x00,0x0c,0x30,0x0e,0x00,0x00,0x00,0x00,0x0c,0x18,0x0c,0x00,0x00,
 0x00,0x00,0x0c,0x0c,0x0c,0x00,0x00,0x00,0x00,0x0c,0x0e,0x0c,0x7c,0x00,0x00,
 0x00,0x1e,0x06,0x00,0x66,0xc0,0xff,0x01,0x00,0x06,0x00,0x66,0x00,0x00,0x00,
 0x3f,0x86,0x0f,0x67,0x00,0x00,0x00,0x00,0x02,0x07,0xa3,0xc0,0xff,0x01,0x00,
 0x06,0x03,0xb3,0x00,0x00,0x00,0x00,0x06,0x03,0x7e,0x00,0x00,0x00,0x1e,0xcc,
 0x03,0x00,0x00,0x00,0x00,0x13,0x70,0x00,0x00,0x00,0x00,0x00,0x1a,0x00,0x00,
 0x00,0x00,0x00,0x00,0x18,0x00,0x00,0x00,0x00,0x00,0x00,0x0c,0x00,0x00,0x00,
 0x00,0x00,0x00,0x16,0x00,0x00,0x00,0x00,0x00,0x00,0x1f,0x00,0x00};
