#define noname_width 62
#define noname_height 33
static char noname_bits[] = {
 0x00,0x00,0x00,0x00,0x1c,0x00,0x00,0x00,0x00,0x00,0x00,0x00,0x1e,0x00,0x00,
 0x00,0x00,0x00,0x00,0x00,0x18,0x00,0x00,0x00,0x00,0x00,0x00,0x00,0x18,0x00,
 0x00,0x00,0x00,0x00,0x00,0x00,0x18,0x00,0x00,0x00,0x00,0x00,0x00,0x00,0x18,
 0x00,0x00,0x00,0x00,0x00,0x00,0x00,0x18,0x00,0x00,0x00,0x00,0x00,0x00,0x00,
 0x18,0x00,0x00,0x00,0x00,0x00,0x00,0x00,0x18,0x00,0x00,0x3c,0x00,0x00,0x00,
 0x00,0x18,0x00,0x00,0x26,0xc0,0x01,0x00,0x00,0x7e,0x00,0x00,0x34,0x80,0x00,
 0x00,0x00,0x00,0x00,0x40,0x30,0xc0,0x00,0x00,0x00,0x00,0x00,0x40,0x18,0xc0,
 0x00,0x00,0x00,0x00,0x00,0x60,0x2c,0xc0,0x00,0x00,0x00,0x00,0x00,0x60,0x3e,
 0x7c,0x00,0x00,0x00,0x00,0xf0,0xf9,0x00,0x66,0xc0,0xff,0x01,0x00,0x98,0x21,
 0x00,0x66,0x00,0x00,0x00,0xff,0x99,0x31,0x00,0x67,0x00,0x00,0x00,0x00,0x9c,
 0x31,0x00,0xa3,0xc0,0xff,0x01,0x00,0x8c,0xb2,0x00,0xb3,0x00,0x00,0x00,0x00,
 0xcc,0xd2,0x00,0x7e,0x00,0x00,0x00,0x00,0xf8,0x71,0x00,0x00,0x00,0x00,0x00,
 0x3e,0x00,0x00,0x00,0x00,0x00,0x00,0x00,0x62,0x00,0x00,0x00,0x00,0x00,0x00,
 0x00,0x67,0x00,0x00,0x00,0x00,0x00,0x00,0x00,0x67,0x00,0x00,0x00,0x00,0x00,
 0x00,0x00,0x60,0x00,0x00,0x00,0x00,0x00,0x00,0x00,0x70,0x00,0x00,0x00,0x00,
 0x00,0x00,0x00,0x30,0x00,0x00,0x00,0x00,0x00,0x00,0x00,0x18,0x00,0x00,0x00,
 0x00,0x00,0x00,0x00,0x4c,0x00,0x00,0x00,0x00,0x00,0x00,0x00,0x46,0x00,0x00,
 0x00,0x00,0x00,0x00,0x00,0x7f,0x00,0x00,0x00};
