#define noname_width 323
#define noname_height 17
static char noname_bits[] = {
 0x00,0x00,0x00,0x00,0x00,0x00,0x00,0x00,0x00,0x00,0x00,0x00,0x00,0x00,0x00,
 0x00,0x00,0x00,0x00,0x00,0x00,0x00,0x00,0x00,0x00,0x00,0x00,0x00,0x00,0x20,
 0x00,0x00,0x00,0x00,0x00,0x00,0x00,0x00,0x00,0x00,0x00,0xc0,0x01,0x00,0x00,
 0x00,0x00,0x00,0x00,0x00,0x1c,0x00,0x80,0x01,0x00,0x00,0x00,0x00,0x00,0x00,
 0x00,0x00,0x00,0x0c,0x00,0x00,0x00,0x00,0x00,0x00,0x30,0x00,0x00,0x00,0x00,
 0x00,0x00,0x00,0xe0,0x01,0x00,0x00,0x80,0x00,0x00,0x00,0x0e,0x3f,0x00,0x00,
 0x00,0x18,0x00,0x84,0x01,0x00,0x00,0x00,0xe0,0x00,0x00,0x00,0x00,0x20,0x0c,
 0x00,0x00,0x00,0x00,0x1f,0x1f,0x30,0x0e,0x3f,0x00,0x00,0xc0,0xc7,0x07,0xe0,
 0x01,0x00,0x01,0xc0,0x00,0x00,0x00,0x0f,0x1f,0x00,0x00,0x00,0x18,0x00,0x84,
 0x01,0x00,0x00,0x00,0xf0,0x00,0x00,0x00,0x00,0x20,0x0c,0x00,0x00,0x00,0x00,
 0x31,0x31,0x10,0x0f,0x1f,0x00,0x00,0x40,0x4c,0x0c,0x30,0x00,0x00,0x01,0xc0,
 0x00,0x00,0x00,0x0c,0x01,0x00,0x00,0x00,0x18,0x00,0x04,0x00,0x00,0x00,0x00,
 0xc0,0x00,0x00,0x00,0x00,0x20,0x00,0x00,0x00,0x00,0x80,0xb3,0x33,0x18,0x0c,
 0x01,0x00,0x00,0xe0,0xec,0x0c,0x30,0x00,0x00,0x01,0xc0,0x00,0x00,0x00,0x0c,
 0x01,0x00,0x00,0x00,0x18,0x00,0x06,0x00,0x00,0x00,0x00,0xc0,0x00,0x00,0x00,
 0x00,0x30,0x00,0x00,0x00,0x00,0x80,0xb3,0x33,0x18,0x0c,0x01,0x00,0x00,0xe0,
 0xec,0x0c,0x30,0x00,0x80,0x01,0x7c,0x00,0x00,0x00,0x0c,0x1f,0xf8,0x7f,0xfe,
 0xf8,0x01,0xdf,0xf9,0x7f,0x7c,0x1e,0xc0,0x00,0x3c,0x1f,0x1f,0xf8,0xce,0xff,
 0xe3,0xf3,0x00,0x30,0x30,0x08,0x0c,0x1f,0x00,0x00,0x00,0x0c,0x0c,0xf8,0x3e,
 0xdf,0x07,0x66,0x80,0xff,0x03,0x0c,0x33,0x30,0x46,0x8c,0x19,0x01,0x86,0x31,
 0x46,0xce,0x13,0xc0,0x00,0xa6,0xb3,0x19,0x30,0x8c,0x31,0x72,0x9e,0x00,0x38,
 0x38,0x0c,0x0c,0x33,0xe0,0xff,0x00,0x0e,0x0e,0x30,0xe7,0xb3,0x01,0x66,0x00,
 0x00,0x00,0x0c,0x30,0x30,0x46,0x8c,0x19,0x01,0x86,0x31,0x46,0xfe,0x1f,0xc0,
 0x00,0xbe,0xff,0x00,0x30,0x8c,0x31,0xf2,0xff,0x00,0x18,0x18,0x0c,0x0c,0x30,
 0x00,0x00,0x00,0x06,0x06,0x30,0xff,0xbf,0x01,0x67,0x00,0x00,0x00,0x0c,0x31,
 0x30,0x46,0x8c,0x19,0x01,0x86,0x31,0x46,0x06,0x1e,0xc0,0x00,0xbc,0xc1,0x00,
 0x30,0x8c,0x31,0x32,0xf0,0x00,0x0c,0x0c,0x04,0x0c,0x31,0x00,0x00,0x00,0x03,
 0x03,0x30,0x83,0x81,0x01,0xa3,0x80,0xff,0x03,0x8c,0x31,0x30,0x46,0x8c,0x19,
 0x01,0x96,0x31,0x46,0x06,0x31,0xc0,0x00,0xe2,0xc1,0x00,0xb0,0x8c,0x31,0x32,
 0x88,0x01,0x26,0x26,0x04,0x8c,0x31,0xe0,0xff,0x80,0x89,0x09,0x30,0x83,0x81,
 0x05,0xb3,0x00,0x00,0x00,0x8c,0x31,0x30,0x46,0x8c,0x19,0x01,0x96,0x31,0x46,
 0x8e,0x33,0xc0,0x00,0xe6,0xa3,0x11,0xb0,0x8c,0x31,0x72,0x9c,0x01,0x23,0x23,
 0x06,0x8c,0x31,0x00,0x00,0xc0,0xc8,0x08,0x30,0xc7,0xa3,0x05,0x7e,0x00,0x00,
 0x00,0x3f,0x1b,0x78,0xff,0xfd,0xfc,0x07,0xdc,0x7b,0xff,0x7d,0x1f,0xf0,0x03,
 0x3e,0x1f,0x0f,0xe0,0xde,0xfb,0xef,0xfb,0x80,0xbf,0x3f,0x02,0x3f,0x1b,0x00,
 0x00,0xe0,0xef,0x0f,0x78,0x3e,0x1f,0x07,0x00,0x00,0x00,0x00,0x00,0x0e,0x00,
 0x00,0x0c,0x00,0x00,0x00,0x00,0x00,0x00,0x00,0x00,0x00,0x00,0x00,0x00,0x00,
 0x00,0x00,0x00,0x00,0x00,0x00,0x00,0x02,0x00,0x0e,0x00,0x00,0x00,0x00,0x00,
 0x00,0x00,0x00,0x00,0x00,0x00,0x00,0x00,0x00,0x00,0x00,0x00,0x0c,0x00,0x00,
 0x00,0x00,0x00,0x00,0x00,0x00,0x00,0x00,0x00,0x00,0x00,0x00,0x00,0x00,0x00,
 0x00,0x00,0x00,0x03,0x00,0x00,0x00,0x00,0x00,0x00,0x00,0x00,0x00,0x00,0x00,
 0x00,0x00,0x00,0x00,0x00,0x00,0x00,0x00,0x0c,0x00,0x00,0x00,0x00,0x00,0x00,
 0x00,0x00,0x00,0x00,0x00,0x00,0x00,0x00,0x00,0x00,0x00,0x00,0x00,0x00,0x01,
 0x00,0x00,0x00,0x00,0x00,0x00,0x00,0x00,0x00,0x00,0x00,0x00,0x00,0x00,0x00,
 0x00,0x00,0x00,0x00,0x1e,0x00,0x00,0x00,0x00,0x00,0x00,0x00,0x00,0x00,0x00,
 0x00,0x00,0x00,0x00,0x00,0x00,0x00,0x00,0x00,0x00,0x01,0x00,0x00,0x00,0x00,
 0x00,0x00,0x00,0x00,0x00,0x00,0x00};
