#define noname_width 158
#define noname_height 26
static char noname_bits[] = {
 0x00,0x00,0x00,0x00,0x00,0xff,0xff,0xff,0xff,0xff,0xff,0xff,0xff,0xff,0xff,
 0xff,0xff,0xff,0xff,0x3f,0x00,0x00,0x00,0x00,0x00,0x03,0x00,0x00,0x00,0x00,
 0x00,0x00,0x00,0x00,0x00,0x00,0x00,0x00,0x00,0x00,0x00,0x00,0x00,0x00,0x00,
 0x01,0x00,0x00,0x00,0x00,0x00,0x00,0x00,0x00,0x00,0x00,0x00,0x00,0x00,0x00,
 0x00,0x00,0x00,0x00,0x80,0x01,0x00,0x00,0x00,0x00,0x00,0x00,0x00,0x00,0x00,
 0x00,0x00,0x00,0x00,0x00,0x00,0x00,0x00,0x00,0x80,0x01,0x00,0x00,0x00,0x00,
 0x00,0x00,0x00,0x00,0x00,0x00,0x00,0x00,0x00,0x00,0x00,0x00,0x00,0x00,0x80,
 0x00,0x00,0x00,0x00,0x00,0x00,0x00,0x00,0x00,0x00,0x00,0x00,0x00,0x00,0x00,
 0x00,0x00,0x00,0x00,0xc0,0x00,0x00,0x02,0x00,0x00,0x80,0x00,0x00,0x00,0x00,
 0x00,0x04,0x00,0x00,0x01,0x00,0x00,0x00,0x00,0xc0,0x80,0x03,0xc3,0x03,0x00,
 0x80,0x01,0x00,0x00,0x00,0x00,0x06,0xbe,0x01,0x03,0x08,0x00,0x00,0x00,0x40,
 0x00,0x01,0xc1,0x03,0x00,0x02,0x01,0x38,0xf8,0x00,0x00,0x02,0xe3,0x00,0x02,
 0x08,0x00,0x00,0x00,0x60,0x80,0x81,0x61,0x00,0x00,0x02,0x03,0x3c,0xcc,0x00,
 0x00,0x83,0xc1,0x00,0x06,0x0c,0x00,0x00,0x00,0x60,0x80,0x81,0x60,0x00,0x00,
 0x02,0x02,0x30,0xcc,0x00,0x00,0xc1,0xc0,0x00,0x04,0x0c,0x00,0x00,0x00,0x20,
 0x80,0xc1,0x60,0x00,0x00,0x03,0x06,0x30,0x0c,0x00,0x80,0xe1,0xc0,0x00,0x0c,
 0x1f,0x00,0x00,0x00,0x30,0xf8,0xc0,0xf0,0x7d,0xbe,0x0f,0x06,0x30,0x7e,0xf8,
 0x80,0x61,0x00,0x3c,0x0c,0x04,0xf8,0x3f,0x60,0x30,0xcc,0xc0,0x60,0xce,0x67,
 0x03,0x06,0x30,0xce,0xcc,0x80,0x61,0x00,0x26,0x0c,0x06,0x00,0x00,0x70,0x10,
 0xcc,0xc0,0x60,0xfe,0x7f,0x03,0x06,0x30,0xc6,0xcc,0x80,0x61,0xf8,0x3e,0x0c,
 0x06,0x00,0x00,0x60,0x18,0xce,0xc0,0x60,0x06,0x03,0x03,0x06,0x30,0xc6,0xce,
 0x80,0x21,0x70,0x3c,0x0c,0x16,0xf8,0x3f,0xc0,0x18,0x46,0xc1,0x60,0x06,0x03,
 0x0b,0x06,0x30,0xc4,0x46,0x81,0x61,0x30,0x62,0x0c,0x1a,0x00,0x00,0xc0,0x08,
 0x66,0xc1,0x60,0x8e,0x47,0x0b,0x06,0x30,0xcc,0x66,0x81,0x61,0x30,0x66,0x0c,
 0x0e,0x00,0x00,0xc0,0x0c,0xfc,0xc0,0xf0,0x7c,0x3e,0x0e,0x06,0xfc,0x7c,0xfc,
 0x80,0xc1,0x3c,0x3e,0x0c,0x00,0x00,0x00,0x80,0x0c,0x00,0x80,0x00,0x00,0x00,
 0x00,0x02,0x00,0x30,0x00,0x00,0x01,0x07,0x00,0x04,0x00,0x00,0x00,0x80,0x05,
 0x00,0x80,0x01,0x00,0x00,0x00,0x03,0x00,0x00,0x00,0x00,0x03,0x00,0x00,0x06,
 0x00,0x00,0x00,0x80,0x07,0x00,0x00,0x01,0x00,0x00,0x00,0x01,0x00,0x00,0x00,
 0x00,0x02,0x00,0x00,0x02,0x00,0x00,0x00,0x80,0x07,0x00,0x00,0x03,0x00,0x00,
 0x80,0x01,0x00,0x00,0x00,0x00,0x06,0x00,0x00,0x03,0x00,0x00,0x00,0x00,0x03,
 0x00,0x00,0x02,0x00,0x00,0x80,0x00,0x00,0x00,0x00,0x00,0x04,0x00,0x00,0x01,
 0x00,0x00,0x00,0x00,0x03,0x00,0x00,0x00,0x00,0x00,0x00,0x00,0x00,0x00,0x00,
 0x00,0x00,0x00,0x00,0x00,0x00,0x00,0x00,0x00,0x03,0x00,0x00,0x00,0x00,0x00,
 0x00,0x00,0x00,0x00,0x00,0x00,0x00,0x00,0x00,0x00};
