#define noname_width 44
#define noname_height 12
static char noname_bits[] = {
 0xc0,0x01,0x00,0x00,0x00,0x00,0x80,0x00,0x00,0x00,0x00,0x04,0xc0,0x00,0x00,
 0x00,0x00,0x04,0xc0,0x00,0x00,0x00,0x00,0x06,0xc0,0x00,0x00,0x00,0x00,0x06,
 0x7c,0x00,0x00,0x80,0xbb,0x0f,0x66,0xc0,0xff,0xc1,0x33,0x02,0x66,0x00,0x00,
 0x40,0x33,0x03,0x67,0x00,0x00,0x80,0x11,0x03,0xa3,0xc0,0xff,0x81,0x11,0x0b,
 0xb3,0x00,0x00,0x80,0x09,0x0d,0x7e,0x00,0x00,0x00,0x0f,0x07};
