#define noname_width 13
#define noname_height 12
static char noname_bits[] = {
 0xc0,0x01,0x80,0x08,0xc0,0x08,0xc0,0x0c,0xc0,0x0c,0x7c,0x1f,0x66,0x04,0x66,
 0x06,0x67,0x06,0xa3,0x16,0xb3,0x1a,0x7e,0x0e};
