#define noname_width 69
#define noname_height 17
static char noname_bits[] = {
 0x00,0x00,0x00,0x00,0x00,0x00,0x40,0x00,0x00,0x00,0x00,0x00,0x00,0x70,0x00,
 0x60,0xc0,0x01,0x00,0x00,0x00,0x00,0x20,0x00,0x60,0x80,0x08,0x00,0x00,0x00,
 0x00,0x30,0x00,0x20,0xc0,0x08,0x00,0x00,0x00,0x00,0x30,0x00,0x30,0xc0,0x0c,
 0x00,0x00,0x00,0x00,0x30,0x00,0x30,0xc0,0x0c,0xee,0x00,0x00,0x00,0x1f,0x7e,
 0x10,0x7c,0x1f,0xcf,0xc0,0xff,0x81,0x19,0x79,0x18,0x66,0x04,0xcd,0x00,0x00,
 0x80,0x19,0x19,0x18,0x66,0x06,0x46,0x00,0x00,0xc0,0x19,0x0c,0x08,0x67,0x06,
 0x46,0xc0,0xff,0xc1,0x28,0x4c,0x08,0xa3,0x16,0x26,0x00,0x00,0xc0,0xac,0x6d,
 0x0c,0xb3,0x1a,0x3c,0x00,0x00,0x80,0x9f,0x3f,0x04,0x7e,0x0e,0x00,0x00,0x00,
 0x00,0x00,0x00,0x04,0x00,0x00,0x00,0x00,0x00,0x00,0x00,0x00,0x06,0x00,0x00,
 0x00,0x00,0x00,0x00,0x00,0x00,0x02,0x00,0x00,0x00,0x00,0x00,0x00,0x00,0x00,
 0x02,0x00,0x00};
