#define noname_width 60
#define noname_height 17
static char noname_bits[] = {
 0x00,0x00,0x00,0x00,0x00,0x0f,0x08,0x00,0x00,0x00,0x00,0x00,0x80,0x09,0x0c,
 0x00,0x00,0x00,0x00,0x00,0x00,0x0d,0x0c,0x00,0x00,0x00,0x00,0x00,0x00,0x0c,
 0x04,0x00,0x00,0x00,0x00,0x00,0x00,0x06,0x06,0x00,0x00,0x00,0x00,0x00,0x00,
 0x0b,0x06,0x00,0x7c,0x00,0x00,0x80,0xbb,0x0f,0xc2,0x0f,0x66,0xc0,0xff,0xc1,
 0x33,0x00,0xa3,0x0d,0x66,0x00,0x00,0x40,0x33,0x00,0xa3,0x01,0x67,0x00,0x00,
 0x80,0x11,0x00,0xc1,0x00,0xa3,0xc0,0xff,0x81,0x11,0x00,0xc1,0x00,0xb3,0x00,
 0x00,0x80,0x09,0x80,0xc1,0x00,0x7e,0x00,0x00,0x00,0x0f,0x80,0xc0,0x00,0x00,
 0x00,0x00,0x00,0x00,0x80,0x00,0x00,0x00,0x00,0x00,0x00,0x00,0xc0,0x00,0x00,
 0x00,0x00,0x00,0x00,0x00,0x40,0x00,0x00,0x00,0x00,0x00,0x00,0x00,0x40,0x00,
 0x00};
