#define noname_width 33
#define noname_height 17
static char noname_bits[] = {
 0x00,0x00,0x00,0x01,0x00,0xc0,0x01,0x80,0x01,0x00,0x80,0x00,0x80,0x01,0x00,
 0xc0,0x00,0x80,0x00,0x00,0xc0,0x00,0xc0,0x00,0x00,0xc0,0x00,0xc0,0x00,0x00,
 0x7c,0xfc,0x40,0xf8,0x01,0x66,0xf2,0x60,0xb4,0x01,0x66,0x32,0x60,0x34,0x00,
 0x67,0x18,0x20,0x18,0x00,0xa3,0x98,0x20,0x18,0x00,0xb3,0xdb,0x30,0x18,0x00,
 0x7e,0x7f,0x10,0x18,0x00,0x00,0x00,0x10,0x00,0x00,0x00,0x00,0x18,0x00,0x00,
 0x00,0x00,0x08,0x00,0x00,0x00,0x00,0x08,0x00,0x00};
