#define noname_width 75
#define noname_height 34
static char noname_bits[] = {
 0x00,0x00,0x00,0x00,0x00,0x00,0x00,0x80,0x03,0x00,0x00,0x00,0x00,0x00,0x00,
 0x00,0x00,0x00,0x01,0x00,0x00,0x00,0x00,0x00,0x00,0x00,0x00,0x80,0x01,0x00,
 0x00,0x00,0x00,0x00,0x00,0x00,0x00,0x80,0x01,0x00,0x00,0x00,0x00,0x00,0x00,
 0x00,0x00,0x80,0x01,0x00,0x00,0x00,0x00,0x00,0x00,0x00,0x00,0xf8,0xf0,0x03,
 0x00,0x00,0x00,0x00,0x00,0x00,0x00,0xcc,0xc8,0x03,0x00,0x00,0x00,0x00,0x00,
 0x00,0x00,0xcc,0xc8,0x00,0x00,0x00,0x00,0x00,0x00,0x00,0x00,0xce,0x60,0x00,
 0x00,0x00,0x00,0x00,0x00,0x00,0x00,0x46,0x61,0x02,0x00,0x00,0x00,0x00,0x00,
 0x00,0x00,0x66,0x6d,0x03,0xc0,0x01,0x00,0x00,0x00,0x70,0x00,0xfc,0xfc,0x01,
 0x80,0x00,0x00,0x00,0x00,0x20,0x00,0x00,0x00,0x00,0xc0,0x00,0x00,0x00,0x00,
 0x30,0x00,0x00,0x00,0x00,0xc0,0x00,0x00,0x00,0x00,0x30,0x00,0x00,0x00,0x00,
 0xc0,0x00,0x00,0x00,0x00,0x30,0x00,0x00,0x00,0x00,0x7c,0x7c,0x00,0x00,0x00,
 0x1f,0x3f,0x00,0x00,0x00,0x66,0x64,0xc0,0xff,0x81,0x99,0x3c,0x00,0x00,0x00,
 0x66,0x1c,0x00,0x00,0x80,0x99,0x0c,0xfe,0xff,0x07,0x67,0x3c,0x00,0x00,0xc0,
 0x19,0x06,0x00,0x00,0x00,0xa3,0x62,0xc0,0xff,0xc1,0x28,0x26,0x00,0x00,0x00,
 0xb3,0x23,0x00,0x00,0xc0,0xec,0x36,0x00,0x00,0x00,0x7e,0x3e,0x00,0x00,0x80,
 0xdf,0x1f,0x00,0x00,0x00,0x00,0x00,0x00,0x00,0x00,0x00,0x00,0x00,0x00,0x00,
 0x00,0x00,0x00,0x00,0x00,0x00,0x00,0x00,0x00,0x00,0x00,0x00,0x00,0x00,0x00,
 0x00,0x00,0x00,0x00,0x00,0x00,0x00,0x00,0x00,0x00,0x00,0x00,0x00,0x00,0x00,
 0x00,0x00,0x00,0x00,0x00,0x00,0x00,0x80,0x1f,0x00,0x00,0x00,0x00,0x00,0x00,
 0x00,0x00,0x40,0x1b,0x00,0x00,0x00,0x00,0x00,0x00,0x00,0x00,0x40,0x03,0x00,
 0x00,0x00,0x00,0x00,0x00,0x00,0x00,0x80,0x01,0x00,0x00,0x00,0x00,0x00,0x00,
 0x00,0x00,0x80,0x01,0x00,0x00,0x00,0x00,0x00,0x00,0x00,0x00,0x80,0x01,0x00,
 0x00,0x00,0x00,0x00,0x00,0x00,0x00,0x80,0x01,0x00};
