#define noname_width 182
#define noname_height 36
static char noname_bits[] = {
 0x00,0x00,0x00,0x00,0x00,0x00,0x00,0x00,0x00,0x00,0x00,0x00,0x00,0x00,0x00,
 0x00,0x00,0x00,0x00,0x00,0x00,0x00,0x0f,0x00,0x00,0x00,0x00,0xc0,0x01,0x00,
 0x00,0x00,0x00,0x00,0x00,0x0e,0x00,0xc0,0x01,0x00,0x00,0x00,0x00,0x00,0x80,
 0x09,0x00,0x00,0x00,0x00,0x80,0x00,0x00,0x0e,0x00,0x00,0x00,0x00,0x04,0x00,
 0x80,0x00,0x80,0x03,0x00,0x00,0x00,0x00,0x0d,0x00,0x00,0x00,0x00,0xc0,0x00,
 0x00,0x0f,0x00,0x00,0x00,0x00,0x06,0x00,0xc0,0x00,0xc0,0x03,0x00,0x00,0x00,
 0x00,0x0c,0x00,0x00,0x00,0x00,0xc0,0x00,0x00,0x0c,0x00,0x00,0x00,0x00,0x06,
 0x00,0xc0,0x00,0x00,0x03,0x00,0x00,0x00,0x00,0x06,0x00,0x00,0x00,0x00,0xc0,
 0x00,0x00,0x0c,0x00,0x00,0x00,0x00,0x06,0x00,0xc0,0x00,0x00,0x03,0x00,0x00,
 0x00,0x00,0x0b,0x00,0x00,0x00,0x00,0x7c,0x7c,0x00,0x0c,0x00,0x00,0x00,0xe0,
 0xe3,0x07,0x7c,0xfc,0x00,0x03,0x00,0x00,0x80,0xbb,0x0f,0x00,0x00,0x00,0x00,
 0x66,0x64,0x00,0x0c,0x00,0x00,0x00,0x30,0x93,0x07,0x66,0xf2,0x00,0x03,0x00,
 0x00,0xc0,0x33,0x00,0x00,0x00,0x00,0x00,0x66,0x1c,0x00,0x0c,0x00,0x00,0x00,
 0x30,0x93,0x01,0x66,0x32,0x00,0x03,0x00,0x00,0x40,0x33,0x00,0x00,0x00,0x00,
 0x00,0x67,0x3c,0x00,0x0c,0x00,0x00,0x00,0x38,0xc3,0x00,0x67,0x18,0x00,0x03,
 0x00,0x00,0x80,0x11,0x00,0x00,0x00,0x00,0x00,0xa3,0x62,0x00,0x0c,0x00,0x00,
 0x00,0x18,0xc5,0x04,0xa3,0x98,0x00,0x03,0x00,0x00,0x80,0x11,0x00,0x00,0x00,
 0x00,0x00,0xb3,0x23,0x00,0x0c,0x00,0x00,0x00,0x98,0xdd,0x06,0xb3,0xdb,0x00,
 0x03,0x00,0x00,0x80,0x09,0x00,0x00,0x00,0x00,0x00,0x7e,0x3e,0x00,0x3f,0x00,
 0x00,0x00,0xf0,0xfb,0x03,0x7e,0x7f,0xc0,0x0f,0x00,0x00,0x00,0x0f,0x00,0x00,
 0x00,0x00,0x00,0x00,0x00,0x00,0x00,0x00,0x00,0x00,0x00,0x00,0x00,0x00,0x00,
 0x00,0x00,0x00,0x00,0x00,0x00,0x00,0x00,0x00,0x00,0x00,0x00,0x00,0x00,0x00,
 0x00,0x00,0x00,0x00,0x00,0x00,0x00,0x00,0x00,0x00,0x00,0x00,0x00,0x00,0x00,
 0x00,0x00,0x00,0x00,0x00,0x00,0x00,0x00,0x00,0x00,0x00,0x00,0x00,0x00,0x00,
 0x00,0x00,0x00,0x00,0x00,0x00,0x00,0x00,0x00,0x00,0x00,0x00,0x00,0x00,0x00,
 0x00,0x00,0x00,0x00,0x00,0x00,0x00,0x00,0x00,0x00,0x00,0x00,0x00,0x00,0x00,
 0x00,0x00,0x00,0x00,0x00,0x00,0x00,0x00,0x00,0x00,0x00,0x00,0x00,0x00,0x00,
 0x00,0x00,0x00,0x00,0x00,0x00,0x00,0x00,0x00,0x7c,0x00,0x00,0x00,0x00,0x00,
 0x00,0x00,0x00,0x00,0x00,0x00,0x00,0x00,0x00,0x00,0x00,0x00,0x00,0x00,0x00,
 0x00,0x00,0x66,0xc0,0xff,0x01,0x00,0x00,0x00,0x00,0x00,0xfe,0x0f,0x00,0x00,
 0x00,0x00,0x00,0x00,0x00,0xf0,0x7f,0x00,0x00,0x00,0x66,0x00,0x00,0x00,0xff,
 0xff,0xf9,0xff,0x03,0x00,0x00,0xf8,0xff,0x1f,0xff,0xff,0xe3,0x3f,0x00,0x00,
 0xc0,0xff,0x3f,0x67,0x00,0x00,0x00,0x00,0x00,0x00,0x00,0x00,0x00,0x00,0x00,
 0x00,0x00,0x00,0x00,0x00,0x00,0x00,0x00,0x00,0x00,0x00,0xa3,0xc0,0xff,0x01,
 0x00,0x00,0x00,0x00,0x00,0xfe,0x0f,0x00,0x00,0x00,0x00,0x00,0x00,0x00,0xf0,
 0x7f,0x00,0x00,0x00,0xb3,0x00,0x00,0x00,0x00,0x00,0x00,0x00,0x00,0x00,0x00,
 0x00,0x00,0x00,0x00,0x00,0x00,0x00,0x00,0x00,0x00,0x00,0x00,0x7e,0x00,0x00,
 0x00,0x80,0x03,0x00,0x0e,0x00,0x00,0x00,0x00,0x38,0x00,0x00,0x07,0x00,0x00,
 0x00,0x00,0x00,0x00,0x00,0x00,0x00,0x00,0x00,0x00,0x11,0x00,0x84,0x00,0x00,
 0x00,0x00,0x10,0x01,0x00,0x22,0x00,0x00,0x00,0x00,0x00,0x00,0x00,0x00,0x00,
 0x00,0x00,0x80,0x11,0x00,0x86,0x00,0x00,0x00,0x00,0x18,0x01,0x00,0x23,0x00,
 0x00,0x00,0x00,0x00,0x00,0x00,0x00,0x00,0x00,0x00,0x80,0x19,0x00,0xc6,0x00,
 0x00,0x00,0x00,0x98,0x01,0x00,0x33,0x00,0x00,0x00,0x00,0x00,0x00,0x00,0x00,
 0x00,0x00,0x00,0x80,0x19,0x00,0xc6,0x00,0x00,0x00,0x00,0x98,0x01,0x00,0x33,
 0x00,0x00,0x00,0x00,0x00,0x00,0x00,0x00,0x00,0x00,0x00,0xf8,0x3e,0xe0,0xf3,
 0x01,0x00,0x00,0x80,0xef,0x03,0xf0,0x7d,0xc0,0x0f,0x00,0x00,0x00,0xf8,0x01,
 0x00,0x00,0x00,0x00,0xcc,0x08,0x30,0x43,0x00,0x00,0x00,0xc0,0x8c,0x00,0x98,
 0x11,0xa0,0x0d,0x00,0x00,0x00,0xb4,0x01,0x00,0x00,0x00,0x00,0xcc,0x0c,0x30,
 0x63,0x00,0x00,0x00,0xc0,0xcc,0x00,0x98,0x19,0xa0,0x01,0x00,0x00,0x00,0x34,
 0x00,0x00,0x00,0x00,0x00,0xce,0x0c,0x38,0x63,0x00,0x00,0x00,0xe0,0xcc,0x00,
 0x9c,0x19,0xc0,0x00,0x00,0x00,0x00,0x18,0x00,0x00,0x00,0x00,0x00,0x46,0x2d,
 0x18,0x65,0x01,0x00,0x00,0x60,0xd4,0x02,0x8c,0x5a,0xc0,0x00,0x00,0x00,0x00,
 0x18,0x00,0x00,0x00,0x00,0x00,0x66,0x35,0x98,0xa5,0x01,0x00,0x00,0x60,0x56,
 0x03,0xcc,0x6a,0xc0,0x00,0x00,0x00,0x00,0x18,0x00,0x00,0x00,0x00,0x00,0xfc,
 0x1c,0xf0,0xe3,0x00,0x00,0x00,0xc0,0xcf,0x01,0xf8,0x39,0xc0,0x00,0x00,0x00,
 0x00,0x18,0x00};
