#define noname_width 68
#define noname_height 16
static char noname_bits[] = {
 0xc0,0x01,0x00,0x00,0x00,0x70,0x00,0x0e,0x00,0x80,0x00,0x00,0x00,0x00,0x78,
 0x00,0x04,0x00,0xc0,0x00,0x00,0x00,0x00,0x18,0x00,0x06,0x00,0xc0,0x00,0x00,
 0x00,0x00,0x18,0x00,0x06,0x00,0xc0,0x00,0x00,0x00,0x00,0x08,0x00,0x06,0x00,
 0x7c,0x7c,0x00,0x00,0x00,0x3e,0xe0,0xc3,0x0f,0x66,0x64,0xc0,0xff,0x01,0x0c,
 0x30,0x23,0x0f,0x66,0x1c,0x00,0x00,0x00,0x0c,0x30,0x23,0x03,0x67,0x3c,0x00,
 0x00,0x00,0x0c,0x38,0x83,0x01,0xa3,0x62,0xc0,0xff,0x01,0x04,0x18,0x85,0x09,
 0xb3,0x23,0x00,0x00,0x00,0x06,0x98,0xb5,0x0d,0x7e,0x3e,0x00,0x00,0x00,0x06,
 0xf0,0xf3,0x07,0x00,0x00,0x00,0x00,0x00,0x06,0x00,0x00,0x00,0x00,0x00,0x00,
 0x00,0x80,0x02,0x00,0x00,0x00,0x00,0x00,0x00,0x00,0xc0,0x03,0x00,0x00,0x00,
 0x00,0x00,0x00,0x00,0x80,0x01,0x00,0x00,0x00};
