#define noname_width 16
#define noname_height 12
static char noname_bits[] = {
 0xc0,0x01,0x80,0x00,0xc0,0x00,0xc0,0x00,0xc0,0x00,0x7c,0xfc,0x66,0xf2,0x66,
 0x32,0x67,0x18,0xa3,0x98,0xb3,0xdb,0x7e,0x7f};
