#define noname_width 9
#define noname_height 16
static char noname_bits[] = {
 0xc0,0x01,0xe0,0x01,0x60,0x00,0x60,0x00,0x20,0x00,0xf8,0x00,0x30,0x00,0x30,
 0x00,0x30,0x00,0x10,0x00,0x18,0x00,0x18,0x00,0x18,0x00,0x0a,0x00,0x0f,0x00,
 0x06,0x00};
