#define noname_width 37
#define noname_height 17
static char noname_bits[] = {
 0x00,0x00,0x40,0x00,0x00,0xc0,0x01,0x60,0xc0,0x01,0x80,0x00,0x60,0x80,0x08,
 0xc0,0x00,0x20,0xc0,0x08,0xc0,0x00,0x30,0xc0,0x0c,0xc0,0x00,0x30,0xc0,0x0c,
 0x7c,0x7c,0x10,0x7c,0x1f,0x66,0x64,0x18,0x66,0x04,0x66,0x1c,0x18,0x66,0x06,
 0x67,0x3c,0x08,0x67,0x06,0xa3,0x62,0x08,0xa3,0x16,0xb3,0x23,0x0c,0xb3,0x1a,
 0x7e,0x3e,0x04,0x7e,0x0e,0x00,0x00,0x04,0x00,0x00,0x00,0x00,0x06,0x00,0x00,
 0x00,0x00,0x02,0x00,0x00,0x00,0x00,0x02,0x00,0x00};
