#define noname_width 7
#define noname_height 7
static char noname_bits[] = {
 0x7e,0x6d,0x0d,0x06,0x06,0x06,0x06};
