#define noname_width 66
#define noname_height 34
static char noname_bits[] = {
 0x00,0x00,0x00,0x00,0xc0,0x01,0x00,0x00,0x00,0x00,0x00,0x00,0x00,0x80,0x00,
 0x00,0x07,0x00,0x00,0x00,0x00,0x00,0xc0,0x00,0x80,0x07,0x00,0x00,0x00,0x00,
 0x00,0xc0,0x00,0x00,0x06,0x00,0x00,0x00,0x00,0x00,0xc0,0x00,0x00,0x06,0x00,
 0x00,0x00,0x00,0x00,0x7c,0x7c,0x00,0x06,0x00,0x00,0x00,0x00,0x00,0x66,0x64,
 0x00,0x06,0x00,0x00,0x00,0x00,0x00,0x66,0x1c,0x00,0x06,0x00,0x00,0x00,0x00,
 0x00,0x67,0x3c,0x00,0x06,0x00,0x00,0x00,0x00,0x00,0xa3,0x62,0x00,0x06,0x00,
 0x00,0x00,0x00,0x00,0xb3,0x23,0x00,0x06,0x00,0x00,0x00,0x00,0x00,0x7e,0x3e,
 0x80,0x1f,0x00,0x00,0x00,0x00,0x00,0x00,0x00,0x00,0x00,0x00,0x00,0x00,0x00,
 0x00,0x00,0x00,0x00,0x00,0x00,0x00,0x00,0x00,0x00,0x00,0x00,0x00,0x00,0x00,
 0x00,0x00,0x00,0x00,0x00,0x00,0x00,0x00,0x00,0x7c,0x00,0x00,0x00,0x00,0x00,
 0x00,0x00,0x00,0x66,0xc0,0xff,0x01,0x00,0x00,0x00,0x00,0x00,0x66,0x00,0x00,
 0x00,0xff,0xff,0xf9,0xff,0x03,0x67,0x00,0x00,0x00,0x00,0x00,0x00,0x00,0x00,
 0xa3,0xc0,0xff,0x01,0x00,0x00,0x00,0x00,0x00,0xb3,0x00,0x00,0x00,0x00,0x00,
 0x00,0x00,0x00,0x7e,0x00,0x00,0x00,0x80,0x03,0x00,0x0e,0x00,0x00,0x00,0x00,
 0x00,0x00,0x11,0x00,0x84,0x00,0x00,0x00,0x00,0x00,0x80,0x11,0x00,0x86,0x00,
 0x00,0x00,0x00,0x00,0x80,0x19,0x00,0xc6,0x00,0x00,0x00,0x00,0x00,0x80,0x19,
 0x00,0xc6,0x00,0x00,0x00,0x00,0x00,0xf8,0x3e,0xe0,0xf3,0x01,0x00,0x00,0x00,
 0x00,0xcc,0x08,0x30,0x43,0x00,0x00,0x00,0x00,0x00,0xcc,0x0c,0x30,0x63,0x00,
 0x00,0x00,0x00,0x00,0xce,0x0c,0x38,0x63,0x00,0x00,0x00,0x00,0x00,0x46,0x2d,
 0x18,0x65,0x01,0x00,0x00,0x00,0x00,0x66,0x35,0x98,0xa5,0x01,0x00,0x00,0x00,
 0x00,0xfc,0x1c,0xf0,0xe3,0x00};
