#define noname_width 167
#define noname_height 33
static char noname_bits[] = {
 0x1c,0x7e,0x00,0x00,0x00,0x00,0x00,0x00,0x00,0x00,0x00,0x00,0x00,0x00,0x00,
 0x00,0x00,0x00,0x00,0x00,0x00,0x1e,0x3e,0x00,0x00,0x00,0x00,0x00,0x00,0x00,
 0x00,0x00,0x00,0x00,0x00,0x00,0x00,0x00,0x00,0x00,0x00,0x00,0x18,0x02,0x00,
 0x00,0x00,0x00,0x00,0x00,0x00,0x00,0x00,0x00,0x00,0x00,0x00,0x00,0x00,0x00,
 0x00,0x00,0x00,0x18,0x02,0x00,0x00,0x00,0x00,0x00,0x00,0x00,0x00,0x00,0x00,
 0x00,0x00,0x00,0x00,0x00,0x00,0x00,0x00,0x00,0x18,0x3e,0x00,0x80,0xff,0xff,
 0xff,0xff,0xff,0xff,0xff,0xff,0xff,0xff,0xff,0xff,0xff,0xff,0xff,0xff,0x7f,
 0x18,0x66,0x00,0x80,0x01,0x00,0x00,0x00,0x00,0x00,0x00,0x00,0x00,0x00,0x00,
 0x00,0x00,0x00,0x00,0x00,0x00,0x18,0x60,0x00,0x80,0x00,0x00,0x00,0x00,0x00,
 0x00,0x00,0x00,0x00,0x00,0x00,0x00,0x00,0x00,0x00,0x00,0x00,0x18,0x62,0x00,
 0xc0,0x00,0x00,0x00,0x00,0x00,0x00,0x00,0x00,0x00,0x00,0x00,0x00,0x00,0x00,
 0x00,0x00,0x00,0x18,0x63,0x00,0xc0,0x00,0x00,0x00,0x00,0x00,0x00,0x00,0x00,
 0x00,0x00,0x00,0x00,0x00,0x00,0x00,0x00,0x00,0x18,0x63,0x00,0x40,0x00,0x00,
 0x00,0x00,0x00,0x20,0x00,0x00,0x00,0x20,0x00,0x00,0x10,0x00,0x00,0x00,0x02,
 0x7e,0x36,0x00,0x60,0x00,0x00,0x00,0x00,0x00,0x30,0x00,0x00,0x00,0x60,0x00,
 0x00,0x18,0x0f,0x00,0x00,0x06,0x00,0x1c,0x00,0x60,0x3e,0x3e,0x80,0x03,0x00,
 0x10,0x00,0x00,0x00,0x40,0x00,0x00,0x08,0x0f,0x00,0x10,0x04,0x00,0x00,0x00,
 0x20,0x66,0x62,0xc0,0x03,0x00,0x18,0x00,0x00,0x00,0xc0,0x00,0x00,0x8c,0x01,
 0x00,0x10,0x0c,0x00,0x00,0x00,0x30,0x66,0x67,0x00,0x03,0x00,0x08,0x00,0x00,
 0x00,0x80,0x00,0x00,0x84,0x01,0x00,0x10,0x08,0x00,0x00,0x00,0x30,0x60,0x67,
 0x00,0x03,0x00,0x0c,0x20,0x00,0x00,0x80,0x01,0x00,0x86,0x01,0x00,0x18,0x18,
 0x00,0x00,0x00,0x10,0x30,0x60,0x00,0x83,0x0f,0x0c,0x7f,0x1f,0x9f,0x87,0x01,
 0x7e,0xc6,0xf7,0xf1,0x7d,0x18,0x00,0x00,0x00,0x18,0x3c,0x70,0x00,0xc3,0x0c,
 0x8c,0x99,0xb3,0xf3,0x84,0x01,0x6d,0x86,0x39,0x3b,0x1b,0x18,0xff,0xff,0x31,
 0x18,0x60,0x30,0x00,0xc3,0x0c,0x8c,0x99,0xbf,0xff,0x87,0x01,0x0d,0x86,0xf9,
 0xfb,0x1b,0x18,0x00,0x00,0x38,0x08,0x62,0x18,0x00,0xe3,0x0c,0x0c,0x9b,0x81,
 0x81,0x87,0x01,0x06,0x86,0x19,0x18,0x18,0x18,0x00,0x00,0x30,0x0c,0x67,0x4c,
 0x00,0x63,0x14,0x0c,0x8f,0x81,0x41,0x8c,0x01,0x06,0x86,0x19,0x18,0x58,0x18,
 0x00,0x00,0x60,0x0c,0x63,0x46,0x06,0x63,0x16,0x0c,0x81,0xa3,0xe3,0x8c,0x01,
 0x06,0x86,0x39,0x3a,0x5a,0x18,0x00,0x00,0x60,0x04,0x76,0x7f,0xc6,0xcf,0x0f,
 0x0c,0x3f,0x1f,0xdf,0x87,0x01,0x06,0xc6,0xf3,0xf1,0x71,0x18,0x3e,0x3e,0x60,
 0x06,0x1c,0x00,0x00,0x00,0x00,0x88,0x71,0x00,0x00,0x80,0x00,0x00,0x04,0x00,
 0x00,0x00,0x08,0x62,0x62,0x40,0x06,0x00,0x00,0x00,0x00,0x00,0x98,0x60,0x00,
 0x00,0xc0,0x00,0x00,0x0c,0x00,0x00,0x00,0x0c,0x67,0x67,0xc0,0x02,0x00,0x00,
 0x00,0x00,0x00,0x90,0x31,0x00,0x00,0x40,0x00,0x00,0x08,0x00,0x00,0x00,0x04,
 0x67,0x67,0xc0,0x03,0x00,0x00,0x00,0x00,0x00,0x30,0x1f,0x00,0x00,0x60,0x00,
 0x00,0x18,0x00,0x00,0x00,0x06,0x60,0x60,0xc0,0x03,0x00,0x00,0x00,0x00,0x00,
 0x20,0x00,0x00,0x00,0x20,0x00,0x00,0x10,0x00,0x00,0x00,0x02,0x70,0x70,0x80,
 0x01,0x00,0x00,0x00,0x00,0x00,0x00,0x00,0x00,0x00,0x00,0x00,0x00,0x00,0x00,
 0x00,0x00,0x00,0x30,0x30,0x80,0x01,0x00,0x00,0x00,0x00,0x00,0x00,0x00,0x00,
 0x00,0x00,0x00,0x00,0x00,0x00,0x00,0x00,0x00,0x18,0x18,0x80,0x01,0x00,0x00,
 0x00,0x00,0x00,0x00,0x00,0x00,0x00,0x00,0x00,0x00,0x00,0x00,0x00,0x00,0x00,
 0x4c,0x4c,0x00,0x00,0x00,0x00,0x00,0x00,0x00,0x00,0x00,0x00,0x00,0x00,0x00,
 0x00,0x00,0x00,0x00,0x00,0x00,0x46,0x46,0x00,0x00,0x00,0x00,0x00,0x00,0x00,
 0x00,0x00,0x00,0x00,0x00,0x00,0x00,0x00,0x00,0x00,0x00,0x00,0x7f,0x7f,0x00,
 0x00,0x00,0x00,0x00,0x00,0x00,0x00,0x00,0x00,0x00,0x00,0x00,0x00,0x00,0x00,
 0x00,0x00,0x00};
