#define noname_width 15
#define noname_height 12
static char noname_bits[] = {
 0xc0,0x01,0x80,0x00,0xc0,0x00,0xc0,0x00,0xc0,0x00,0x7c,0x7c,0x66,0x64,0x66,
 0x1c,0x67,0x3c,0xa3,0x62,0xb3,0x23,0x7e,0x3e};
