#define noname_width 29
#define noname_height 7
static char noname_bits[] = {
 0xce,0x06,0x00,0x00,0xcf,0x06,0xfc,0x1f,0xcd,0x04,0x00,0x00,0x66,0x04,0x00,
 0x00,0x66,0x06,0xfc,0x1f,0x66,0x02,0x00,0x00,0xfc,0x03,0x00,0x00};
