#define noname_width 34
#define noname_height 14
static char noname_bits[] = {
 0xfc,0x01,0x00,0x00,0x00,0x30,0x07,0x00,0x00,0x00,0x18,0x06,0x00,0x00,0x00,
 0x18,0x06,0x00,0x00,0x00,0x18,0x07,0x00,0x00,0x00,0x98,0x03,0x00,0x00,0x00,
 0xfc,0x01,0x80,0xff,0x03,0x8c,0x01,0x00,0x00,0x00,0x8c,0x01,0x00,0x00,0x00,
 0x8c,0xe1,0x80,0xff,0x03,0x86,0x95,0x00,0x00,0x00,0x9f,0x9f,0x00,0x00,0x00,
 0x00,0xdb,0x00,0x00,0x00,0x00,0x78,0x00,0x00,0x00};
