#define noname_width 33
#define noname_height 13
static char noname_bits[] = {
 0xcf,0xf3,0x00,0x00,0x00,0x86,0x61,0x00,0x00,0x00,0x86,0x21,0x00,0x00,0x00,
 0xc6,0x31,0x00,0x00,0x00,0xc6,0x11,0x00,0x00,0x00,0xe6,0x19,0x00,0x00,0x00,
 0xa6,0x09,0xc0,0xff,0x01,0x96,0x0d,0x00,0x00,0x00,0x96,0x05,0x00,0x00,0x00,
 0x8e,0x03,0xc0,0xff,0x01,0x8e,0x03,0x00,0x00,0x00,0x06,0x01,0x00,0x00,0x00,
 0x04,0x01,0x00,0x00,0x00};
