#define noname_width 265
#define noname_height 35
static char noname_bits[] = {
 0x00,0x00,0x00,0x00,0x00,0x00,0x00,0x00,0x00,0x00,0x00,0x00,0x00,0xf0,0xf1,
 0x01,0x00,0x00,0x00,0x00,0x00,0x00,0x00,0x00,0x00,0x00,0x00,0x00,0x00,0x00,
 0x00,0x00,0x00,0x00,0x00,0x00,0x00,0x00,0x00,0x80,0x01,0x00,0x80,0x01,0x00,
 0x00,0x80,0x11,0x13,0x03,0x00,0x00,0x03,0x00,0x00,0x00,0x00,0x00,0x00,0x00,
 0x00,0x00,0x00,0x00,0x00,0x00,0x00,0x00,0x00,0x00,0x00,0x00,0x00,0xc0,0x00,
 0x00,0x00,0x03,0x00,0x00,0xc0,0x38,0x3b,0x03,0x00,0x00,0x06,0x00,0x00,0x00,
 0x00,0x00,0x00,0x00,0x00,0x00,0x00,0x00,0x00,0x00,0x00,0x00,0x00,0x00,0x00,
 0x00,0x00,0xc0,0x00,0x00,0x00,0x03,0x00,0x00,0xc0,0x38,0x3b,0x03,0x00,0x00,
 0x06,0x00,0x00,0x00,0x00,0x00,0x00,0x00,0x00,0x00,0x00,0x00,0x00,0x00,0x00,
 0x00,0x00,0x00,0x00,0x00,0x00,0x60,0xf0,0x0f,0x00,0x06,0x00,0x00,0x60,0x00,
 0x03,0x03,0x00,0x00,0x0c,0x00,0x00,0x00,0x00,0x00,0x00,0x00,0x00,0x00,0x00,
 0x00,0x00,0x00,0x00,0x00,0x00,0x00,0x00,0x00,0x00,0x30,0x58,0x03,0x00,0x0c,
 0x00,0x00,0x30,0x80,0x83,0x03,0x00,0x00,0x18,0x00,0x00,0x00,0x00,0x00,0x00,
 0x00,0x00,0x00,0x00,0x00,0x00,0x00,0x00,0x00,0x00,0x00,0x00,0x00,0x00,0x30,
 0x48,0x01,0x00,0x0c,0x00,0x00,0x30,0x80,0x81,0x01,0x00,0x00,0x18,0x00,0x00,
 0x00,0x00,0x00,0x00,0x00,0x00,0x00,0x00,0x00,0x00,0x00,0x00,0x00,0x00,0x00,
 0x00,0x00,0x00,0x18,0x60,0x01,0x00,0x18,0x00,0x00,0x18,0xc0,0xc0,0x00,0x00,
 0x00,0x30,0x00,0x00,0x00,0x00,0x00,0x00,0x00,0x00,0x00,0x00,0x00,0x00,0x00,
 0x00,0x00,0x00,0x00,0x00,0x00,0x00,0x18,0x60,0x01,0x00,0x18,0x00,0x00,0x18,
 0x60,0x62,0x02,0x00,0x00,0x30,0x00,0x00,0x00,0x00,0x00,0x00,0x00,0x00,0x00,
 0x00,0x00,0x00,0x00,0x00,0x00,0x00,0x00,0x00,0x00,0x00,0x08,0x20,0x03,0x00,
 0x10,0x00,0x04,0x08,0x30,0x32,0x02,0x00,0x00,0x20,0x00,0x00,0x00,0x00,0x00,
 0x00,0x00,0x00,0x00,0x00,0x00,0x00,0x00,0x00,0x00,0x00,0x00,0x00,0x00,0x00,
 0x0c,0x30,0x03,0x07,0x30,0x00,0x06,0x0c,0xf8,0xfb,0x03,0x00,0x00,0x60,0x00,
 0x00,0x00,0x00,0x00,0x00,0x00,0x00,0x00,0x00,0x00,0x00,0x38,0x00,0x00,0x08,
 0x00,0x00,0x00,0x00,0x0c,0x00,0x00,0x06,0x30,0x00,0x06,0x0c,0x00,0x00,0x00,
 0x00,0x00,0x60,0x00,0x00,0x00,0x3e,0x80,0x83,0x07,0x00,0x00,0x00,0x00,0x00,
 0x30,0x00,0x00,0x08,0x00,0x00,0x00,0x00,0x0c,0x00,0x00,0x02,0x30,0x00,0x02,
 0x0c,0x00,0x00,0x00,0x00,0x00,0x60,0x00,0x00,0x00,0x66,0xc0,0x43,0x0c,0x00,
 0x00,0x00,0x00,0x00,0x20,0x00,0x00,0x0c,0x00,0x00,0x00,0x00,0x0c,0x00,0x00,
 0x03,0x30,0x00,0x03,0x0c,0x00,0x00,0x00,0x00,0x00,0x60,0x00,0x00,0x00,0x66,
 0x00,0x43,0x08,0x00,0x00,0x00,0x00,0x00,0x20,0x00,0x00,0x0c,0x00,0x00,0x00,
 0x00,0x0c,0x00,0x00,0x03,0x30,0x00,0x03,0x0c,0x00,0x00,0x00,0x00,0x00,0x60,
 0x00,0x00,0x00,0x60,0x00,0xc3,0x0c,0x00,0x00,0x00,0x00,0x00,0x20,0x00,0x00,
 0x1f,0x00,0x00,0x00,0x00,0x04,0x00,0x00,0x3b,0x20,0x00,0x01,0x04,0x00,0x00,
 0xc0,0x1d,0x00,0x40,0x00,0x00,0x00,0x30,0x00,0xc3,0x07,0x3c,0x1f,0x9f,0xcf,
 0x1f,0x3e,0x1e,0x00,0x04,0x00,0x80,0xff,0x03,0x04,0x00,0x00,0x3d,0x20,0x80,
 0x01,0x04,0x00,0x00,0xe0,0x19,0x00,0x40,0x00,0xff,0x07,0x3c,0x00,0x83,0x07,
 0xa6,0xb3,0xd9,0x98,0x11,0x33,0x13,0x00,0x06,0x00,0x00,0x00,0x00,0x04,0xf8,
 0x9f,0x03,0x20,0x80,0x01,0x04,0xf8,0xff,0xaf,0x19,0x00,0x40,0x00,0x00,0x00,
 0x60,0x00,0xc3,0x0e,0xbe,0xff,0xc0,0xb0,0x91,0x21,0x1f,0x00,0x06,0x00,0x00,
 0x00,0x00,0x04,0x00,0x80,0x0f,0x20,0x80,0x00,0x04,0x00,0x00,0xc0,0x08,0x00,
 0x40,0x00,0x00,0x00,0x62,0x00,0x63,0x0c,0xbc,0xc1,0xc0,0xb0,0x91,0x21,0x1e,
 0x00,0xd6,0x7f,0x80,0xff,0x03,0x04,0x00,0x80,0x2d,0x20,0x80,0x00,0x04,0x00,
 0x00,0xc0,0xe8,0x3f,0x40,0x00,0xff,0x07,0x67,0x00,0x63,0x08,0xe2,0xc1,0xc0,
 0xb0,0x91,0x21,0x31,0x00,0xda,0x6d,0x00,0x00,0x00,0x04,0x00,0x80,0x2c,0x20,
 0xc0,0x00,0x04,0x00,0x00,0xc0,0xe4,0x36,0x40,0x00,0x00,0x00,0x63,0x06,0x63,
 0x08,0xe6,0xa3,0xd1,0x99,0x11,0x33,0xb3,0x01,0x8e,0x6d,0x00,0x00,0x00,0x0c,
 0x00,0xc0,0x1c,0x30,0x40,0x00,0x0c,0x00,0x00,0x80,0xc7,0x36,0x60,0x00,0x00,
 0x00,0x76,0xc6,0xcf,0x0e,0x3e,0x1f,0x8f,0xcf,0x7f,0xfe,0x9f,0x01,0x80,0xa4,
 0x00,0x00,0x00,0x0c,0xe0,0x03,0x00,0x30,0x40,0x00,0x0c,0xe0,0xf0,0x03,0x40,
 0x52,0x60,0x00,0x00,0x00,0x1c,0x00,0x80,0x03,0x00,0x00,0x00,0x00,0x00,0x00,
 0x00,0x00,0x80,0x64,0x00,0x00,0x00,0x0c,0x20,0x06,0x00,0x30,0x60,0x00,0x0c,
 0xf0,0xf0,0x01,0x40,0x32,0x60,0x00,0x00,0x00,0x00,0x00,0x00,0x00,0x00,0x00,
 0x00,0x00,0x00,0x00,0x00,0x00,0x00,0x00,0x00,0x00,0x00,0x0c,0x70,0x06,0x00,
 0x30,0x20,0x00,0x0c,0xc0,0x10,0x00,0x00,0x00,0x60,0x00,0x00,0x00,0x00,0x00,
 0x00,0x00,0x00,0x00,0x00,0x00,0x00,0x00,0x00,0x00,0x00,0x00,0x00,0x00,0x00,
 0x08,0x70,0x06,0x00,0x10,0x20,0x00,0x08,0xc0,0x10,0x00,0x00,0x00,0x20,0x00,
 0x00,0x00,0x00,0x00,0x00,0x00,0x00,0x00,0x00,0x00,0x00,0x00,0x00,0x00,0x00,
 0x00,0x00,0x00,0x00,0x18,0x00,0x06,0x00,0x18,0x00,0x00,0x18,0xc0,0xf0,0x01,
 0x00,0x00,0x30,0x00,0x00,0x00,0x00,0x00,0x00,0x00,0x00,0x00,0x00,0x00,0x00,
 0x00,0x00,0x00,0x00,0x00,0x00,0x00,0x00,0x18,0x00,0x07,0x00,0x18,0x00,0x00,
 0x18,0xc0,0x30,0x03,0x00,0x00,0x30,0x00,0x00,0x00,0x00,0x00,0x00,0x00,0x00,
 0x00,0x00,0x00,0x00,0x00,0x00,0x00,0x00,0x00,0x00,0x00,0x00,0x10,0x00,0x03,
 0x00,0x08,0x00,0x00,0x10,0xc0,0x00,0x03,0x00,0x00,0x10,0x00,0x00,0x00,0x00,
 0x00,0x00,0x00,0x00,0x00,0x00,0x00,0x00,0x00,0x00,0x00,0x00,0x00,0x00,0x00,
 0x00,0x30,0x80,0x01,0x00,0x0c,0x00,0x00,0x30,0xc0,0x10,0x03,0x00,0x00,0x18,
 0x00,0x00,0x00,0x00,0x00,0x00,0x00,0x00,0x00,0x00,0x00,0x00,0x00,0x00,0x00,
 0x00,0x00,0x00,0x00,0x00,0x30,0xc0,0x04,0x00,0x0c,0x00,0x00,0x30,0xc0,0x18,
 0x03,0x00,0x00,0x18,0x00,0x00,0x00,0x00,0x00,0x00,0x00,0x00,0x00,0x00,0x00,
 0x00,0x00,0x00,0x00,0x00,0x00,0x00,0x00,0x00,0x60,0x60,0x04,0x00,0x06,0x00,
 0x00,0x60,0xc0,0x18,0x03,0x00,0x00,0x0c,0x00,0x00,0x00,0x00,0x00,0x00,0x00,
 0x00,0x00,0x00,0x00,0x00,0x00,0x00,0x00,0x00,0x00,0x00,0x00,0x00,0xc0,0xf0,
 0x07,0x00,0x03,0x00,0x00,0xc0,0xf0,0xb3,0x01,0x00,0x00,0x06,0x00,0x00,0x00,
 0x00,0x00,0x00,0x00,0x00,0x00,0x00,0x00,0x00,0x00,0x00,0x00,0x00,0x00,0x00,
 0x00,0x00,0x80,0x01,0x00,0x80,0x01,0x00,0x00,0x80,0x01,0xe0,0x00,0x00,0x00,
 0x03,0x00,0x00,0x00,0x00,0x00,0x00,0x00,0x00,0x00,0x00,0x00,0x00,0x00,0x00,
 0x00,0x00,0x00,0x00,0x00,0x00,0x00,0x01,0x00,0x80,0x00,0x00,0x00,0x00,0x01,
 0x00,0x00,0x00,0x00,0x01,0x00,0x00,0x00,0x00,0x00,0x00,0x00,0x00,0x00,0x00,
 0x00,0x00,0x00,0x00,0x00};
