#define noname_width 6
#define noname_height 19
static char noname_bits[] = {
 0x0e,0x0c,0x0c,0x0c,0x0c,0x0c,0x1e,0x00,0x3f,0x00,0x00,0x00,0x1e,0x13,0x1a,
 0x18,0x0c,0x16,0x1f};
