#define noname_width 24
#define noname_height 7
static char noname_bits[] = {
 0x7e,0x00,0x00,0x6d,0xe0,0xff,0x0d,0x00,0x00,0x06,0x00,0x00,0x06,0xe0,0xff,
 0x06,0x00,0x00,0x06,0x00,0x00};
