#define noname_width 31
#define noname_height 13
static char noname_bits[] = {
 0x00,0x00,0x02,0x00,0x00,0x00,0xfe,0x7e,0x00,0x00,0x7e,0x3e,0x00,0x00,0x62,
 0x02,0x00,0x00,0x20,0x02,0x00,0x00,0x10,0x3e,0xff,0x07,0x18,0x66,0x00,0x00,
 0x18,0x60,0x00,0x00,0x08,0x62,0xff,0x07,0x0c,0x63,0x00,0x00,0x0c,0x63,0x00,
 0x00,0x0c,0x36,0x00,0x00,0x08,0x1c};
