#define noname_width 104
#define noname_height 13
static char noname_bits[] = {
 0x00,0x00,0x9e,0xe7,0x01,0x00,0x00,0x00,0x00,0x00,0x00,0x00,0x00,0x00,0x00,
 0x0c,0xc3,0x00,0x00,0x00,0x00,0x00,0x00,0x00,0x3e,0x30,0x00,0x00,0x0c,0x43,
 0x00,0x00,0x00,0x00,0x00,0x00,0x00,0x62,0x30,0x00,0x00,0x8c,0x63,0x00,0x00,
 0x00,0x00,0x00,0x00,0x00,0x67,0x38,0x00,0x00,0x8c,0x23,0x00,0x00,0x00,0x00,
 0x00,0x00,0x00,0x67,0x3c,0x00,0x00,0xcc,0x33,0x00,0x00,0x80,0xb3,0x01,0x00,
 0x00,0x60,0x34,0xff,0x07,0x4c,0x13,0x00,0x00,0xc0,0xb3,0x01,0xff,0x07,0x70,
 0x36,0x00,0x00,0x2c,0x1b,0x80,0xff,0x43,0x33,0x01,0x00,0x00,0x30,0x32,0x00,
 0x00,0x2c,0x0b,0x80,0xff,0x83,0x19,0x01,0x00,0x00,0x18,0xff,0xff,0x07,0x1c,
 0x07,0x00,0x00,0x80,0x99,0x01,0xff,0x07,0x4c,0x30,0x00,0x00,0x1c,0x07,0x00,
 0x00,0x80,0x99,0x00,0x00,0x00,0x46,0x30,0x00,0x00,0x0c,0x02,0x00,0x00,0x00,
 0xff,0x00,0x00,0x00,0x7f,0x78,0x00,0x00,0x08,0x02,0x00,0x00,0x00,0x00,0x00,
 0x00,0x00,0x00,0x00};
