#define noname_width 33
#define noname_height 14
static char noname_bits[] = {
 0xfc,0x01,0x00,0x00,0x00,0x30,0x07,0x00,0x00,0x00,0x18,0x06,0x00,0x00,0x00,
 0x18,0x06,0x00,0x00,0x00,0x18,0x07,0x00,0x00,0x00,0x98,0x03,0x00,0x00,0x00,
 0xfc,0x61,0xc0,0xff,0x01,0x8c,0x21,0x00,0x00,0x00,0x8c,0x01,0x00,0x00,0x00,
 0x8c,0x31,0xc0,0xff,0x01,0x86,0x3d,0x00,0x00,0x00,0x9f,0x37,0x00,0x00,0x00,
 0x00,0x33,0x00,0x00,0x00,0x00,0x30,0x00,0x00,0x00};
