#define noname_width 23
#define noname_height 12
static char noname_bits[] = {
 0x00,0x00,0x7c,0x00,0x00,0x66,0x00,0x00,0x66,0x00,0x00,0x06,0x00,0x00,0x3f,
 0xff,0x07,0x67,0x00,0x00,0x63,0x00,0x00,0x63,0xff,0x07,0x62,0x00,0x00,0x66,
 0x00,0x00,0x3e,0x00,0x00,0x18};
