#define noname_width 29
#define noname_height 9
static char noname_bits[] = {
 0x7e,0x00,0x00,0x00,0x6d,0x06,0xfc,0x1f,0x0d,0x02,0x00,0x00,0x06,0x00,0x00,
 0x00,0x06,0x03,0xfc,0x1f,0x86,0x03,0x00,0x00,0x06,0x03,0x00,0x00,0x00,0x03,
 0x00,0x00,0x00,0x03,0x00,0x00};
