#define noname_width 8
#define noname_height 7
static char noname_bits[] = {
 0x7c,0xce,0xc6,0xe7,0x63,0x62,0x3e};
