#define noname_width 30
#define noname_height 9
static char noname_bits[] = {
 0x7e,0x00,0x00,0x00,0x6d,0x00,0xf8,0x3f,0x0d,0x00,0x00,0x00,0x06,0x00,0x00,
 0x00,0x06,0x0e,0xf8,0x3f,0x06,0x09,0x00,0x00,0x86,0x09,0x00,0x00,0x80,0x0d,
 0x00,0x00,0x80,0x07,0x00,0x00};
