#define noname_width 31
#define noname_height 12
static char noname_bits[] = {
 0xf8,0x3c,0x00,0x00,0x70,0x18,0x00,0x00,0x60,0x0c,0x00,0x00,0xe0,0x06,0x00,
 0x00,0xc0,0x03,0x00,0x00,0xc0,0x01,0x00,0x00,0xc0,0x01,0xf0,0x7f,0xe0,0x01,
 0x00,0x00,0xb0,0x03,0x00,0x00,0x18,0x03,0xf0,0x7f,0x0c,0x03,0x00,0x00,0x8f,
 0x0f,0x00,0x00};
