#define noname_width 5
#define noname_height 12
static char noname_bits[] = {
 0x18,0x18,0x00,0x00,0x00,0x0e,0x0f,0x0d,0x06,0x16,0x0e,0x0e};
