#define noname_width 108
#define noname_height 19
static char noname_bits[] = {
 0x00,0x00,0x00,0x00,0x00,0x80,0x03,0x00,0x00,0x00,0x00,0x00,0x00,0x00,0x00,
 0x00,0x00,0x00,0x00,0x00,0x83,0xe7,0x79,0x00,0x00,0x00,0x00,0x00,0x00,0x00,
 0x00,0x00,0x00,0x00,0x03,0xc3,0x30,0x00,0x00,0x80,0x8f,0x07,0x00,0x00,0x00,
 0x00,0x00,0x00,0x03,0xc3,0x10,0x00,0x00,0xc0,0xcc,0x0c,0x00,0x00,0x00,0x00,
 0x00,0x00,0x03,0xe3,0x18,0x00,0x00,0xc0,0x4c,0x0c,0x00,0x00,0x00,0x00,0x00,
 0x00,0x03,0xe3,0x08,0x00,0x00,0xc0,0x60,0x0c,0x00,0x00,0x7e,0x00,0x00,0x80,
 0x07,0xf3,0x0c,0x00,0x00,0xe0,0x67,0x0c,0xff,0x07,0x6d,0x00,0x00,0x00,0x00,
 0xd3,0x04,0xe0,0xff,0xe0,0x6c,0x0c,0x00,0x00,0x0d,0xe0,0xff,0xc0,0x0f,0xcb,
 0x06,0x00,0x00,0x60,0x6c,0x0c,0x00,0x00,0x06,0xe0,0xff,0x00,0x00,0xcb,0x02,
 0x00,0x00,0x60,0x6c,0x0c,0xff,0x07,0x06,0x00,0x00,0x00,0x00,0xc7,0x01,0xe0,
 0xff,0x40,0x4c,0x0c,0x00,0x00,0x06,0x00,0x00,0x00,0x00,0xc7,0x01,0x00,0x00,
 0xc0,0xcc,0x0c,0x00,0x00,0x06,0x00,0x00,0x80,0x07,0x83,0x00,0x00,0x00,0xc0,
 0xc7,0x07,0x00,0x00,0x00,0x00,0x00,0xc0,0x04,0x82,0x00,0x00,0x00,0x00,0x03,
 0x03,0x00,0x00,0x00,0x00,0x00,0x80,0x06,0x00,0x00,0x00,0x00,0x00,0x00,0x00,
 0x00,0x00,0x00,0x00,0x00,0x00,0x06,0x00,0x00,0x00,0x00,0x00,0x00,0x00,0x00,
 0x00,0x00,0x00,0x00,0x00,0x03,0x00,0x00,0x00,0x00,0x00,0x00,0x00,0x00,0x00,
 0x00,0x00,0x00,0x80,0x05,0x00,0x00,0x00,0x00,0x00,0x00,0x00,0x00,0x00,0x00,
 0x00,0x00,0xc0,0x07,0x00,0x00,0x00,0x00,0x00,0x00,0x00};
