#define noname_width 109
#define noname_height 19
static char noname_bits[] = {
 0x00,0x00,0x00,0x00,0x00,0x00,0xe0,0x00,0x00,0x00,0x00,0x00,0x00,0x00,0x00,
 0x00,0x00,0x00,0x00,0x00,0xc0,0x00,0x00,0x00,0x00,0x00,0x40,0x00,0x00,0x00,
 0x00,0x00,0x00,0x00,0xc0,0x00,0x00,0x00,0x00,0x80,0xc7,0x1f,0x00,0x00,0x00,
 0x00,0x00,0x00,0xc0,0x00,0x00,0x00,0x00,0x40,0xcc,0x0f,0x00,0x00,0x00,0x00,
 0x00,0x00,0xc0,0x00,0x00,0x00,0x00,0x40,0x48,0x0c,0x00,0x00,0x00,0x00,0x00,
 0x00,0xc0,0x00,0x00,0x00,0x00,0xc0,0x0c,0x04,0x00,0x00,0x7e,0x00,0x00,0x00,
 0xe0,0xe1,0x6c,0x00,0x00,0xc0,0x07,0x02,0xff,0x07,0x6d,0x00,0x00,0x00,0x00,
 0xf0,0x6c,0xe0,0xff,0x80,0x07,0x03,0x00,0x00,0x0d,0x00,0xf8,0x3f,0xf0,0xd3,
 0x4c,0x00,0x00,0xc0,0x0e,0x03,0x00,0x00,0x06,0x00,0xf8,0x3f,0x00,0x60,0x46,
 0x00,0x00,0x60,0x0c,0x01,0xff,0x07,0x06,0x1c,0x00,0x00,0x00,0x60,0x66,0xe0,
 0xff,0x60,0x88,0x01,0x00,0x00,0x06,0x12,0x00,0x00,0x00,0x60,0x26,0x00,0x00,
 0x60,0x88,0x01,0x00,0x00,0x06,0x13,0x00,0x00,0xe0,0xc1,0x3f,0x00,0x00,0xc0,
 0x8e,0x01,0x00,0x00,0x00,0x1b,0x00,0x00,0x30,0x01,0x00,0x00,0x00,0x80,0x03,
 0x01,0x00,0x00,0x00,0x0f,0x00,0x00,0xa0,0x01,0x00,0x00,0x00,0x00,0x00,0x00,
 0x00,0x00,0x00,0x00,0x00,0x00,0x80,0x01,0x00,0x00,0x00,0x00,0x00,0x00,0x00,
 0x00,0x00,0x00,0x00,0x00,0xc0,0x00,0x00,0x00,0x00,0x00,0x00,0x00,0x00,0x00,
 0x00,0x00,0x00,0x00,0x60,0x01,0x00,0x00,0x00,0x00,0x00,0x00,0x00,0x00,0x00,
 0x00,0x00,0x00,0xf0,0x01,0x00,0x00,0x00,0x00,0x00,0x00};
