#define noname_width 106
#define noname_height 19
static char noname_bits[] = {
 0x00,0x00,0x00,0x00,0x00,0x00,0x38,0x00,0x00,0x00,0x00,0x00,0x00,0x00,0x00,
 0x00,0x00,0x00,0x00,0x00,0x30,0x00,0x00,0x00,0x00,0x00,0x00,0x00,0x00,0x00,
 0x00,0x00,0x00,0x00,0x30,0x00,0x00,0x00,0x00,0xe0,0xf3,0x01,0x00,0x00,0x00,
 0x00,0x40,0x00,0x30,0x00,0x00,0x00,0x00,0x30,0x33,0x03,0x00,0x00,0x00,0x00,
 0x40,0x00,0x30,0x00,0x00,0x00,0x00,0x30,0x33,0x03,0x00,0x00,0x00,0x00,0x40,
 0x00,0x30,0x00,0x00,0x00,0x00,0x30,0x00,0x03,0x00,0x00,0x7e,0x00,0x40,0x00,
 0x78,0x38,0x1b,0x00,0x00,0xf8,0x81,0x01,0xff,0x07,0x6d,0x0c,0x40,0x00,0x00,
 0x3c,0x1b,0xf8,0x3f,0x38,0xe3,0x01,0x00,0x00,0x0d,0x04,0xfe,0x0f,0xfc,0x34,
 0x13,0x00,0x00,0x18,0x03,0x03,0x00,0x00,0x06,0x00,0xfe,0x0f,0x00,0x98,0x11,
 0x00,0x00,0x18,0x13,0x03,0xff,0x07,0x06,0x06,0x40,0x00,0x00,0x98,0x19,0xf8,
 0x3f,0x10,0x3b,0x03,0x00,0x00,0x06,0x07,0x40,0x00,0x00,0x98,0x09,0x00,0x00,
 0x30,0x1b,0x03,0x00,0x00,0x06,0x06,0x40,0x00,0x78,0xf0,0x0f,0x00,0x00,0xf0,
 0xb1,0x03,0x00,0x00,0x00,0x06,0x40,0x00,0x4c,0x00,0x00,0x00,0x00,0xc0,0xe0,
 0x00,0x00,0x00,0x00,0x06,0x40,0x00,0x68,0x00,0x00,0x00,0x00,0x00,0x00,0x00,
 0x00,0x00,0x00,0x00,0x00,0x00,0x60,0x00,0x00,0x00,0x00,0x00,0x00,0x00,0x00,
 0x00,0x00,0x00,0x00,0x00,0x30,0x00,0x00,0x00,0x00,0x00,0x00,0x00,0x00,0x00,
 0x00,0x00,0x00,0x00,0x58,0x00,0x00,0x00,0x00,0x00,0x00,0x00,0x00,0x00,0x00,
 0x00,0x00,0x00,0x7c,0x00,0x00,0x00,0x00,0x00,0x00,0x00};
