#define noname_width 108
#define noname_height 19
static char noname_bits[] = {
 0x00,0x00,0x00,0x00,0x00,0x80,0x03,0x00,0x00,0x00,0x00,0x00,0x00,0x00,0x00,
 0x00,0x00,0x00,0x00,0x00,0xc3,0xf3,0x3c,0x00,0x00,0x00,0x00,0x00,0x00,0x00,
 0x00,0x00,0x00,0x00,0x83,0x61,0x18,0x00,0x00,0x80,0x87,0x07,0x00,0x00,0x00,
 0x00,0x04,0x00,0x83,0x61,0x08,0x00,0x00,0xc0,0xcc,0x0c,0x00,0x00,0x00,0x00,
 0x04,0x00,0x83,0x71,0x0c,0x00,0x00,0x60,0x4c,0x0c,0x00,0x00,0x00,0x00,0x04,
 0x00,0x83,0x71,0x04,0x00,0x00,0x60,0x6c,0x0c,0x00,0x00,0x7e,0x00,0x04,0x80,
 0x87,0x79,0x06,0x00,0x00,0x60,0x6c,0x0c,0xff,0x07,0x6d,0x00,0x04,0x00,0x80,
 0x69,0x02,0xe0,0xff,0xc0,0x6c,0x0c,0x00,0x00,0x0d,0xe0,0xff,0xc0,0x8f,0x65,
 0x03,0x00,0x00,0xc0,0x6e,0x0c,0x00,0x00,0x06,0xe0,0xff,0x00,0x80,0x65,0x01,
 0x00,0x00,0x80,0x6f,0x0c,0xff,0x07,0x06,0x00,0x04,0x00,0x80,0xe3,0x00,0xe0,
 0xff,0x00,0x4c,0x0c,0x00,0x00,0x06,0x00,0x04,0x00,0x80,0xe3,0x00,0x00,0x00,
 0xc0,0xcc,0x0c,0x00,0x00,0x06,0x00,0x04,0x80,0x87,0x41,0x00,0x00,0x00,0x40,
 0xc6,0x07,0x00,0x00,0x00,0x00,0x04,0xc0,0x04,0x41,0x00,0x00,0x00,0x80,0x01,
 0x03,0x00,0x00,0x00,0x00,0x04,0x80,0x06,0x00,0x00,0x00,0x00,0x00,0x00,0x00,
 0x00,0x00,0x00,0x00,0x00,0x00,0x06,0x00,0x00,0x00,0x00,0x00,0x00,0x00,0x00,
 0x00,0x00,0x00,0x00,0x00,0x03,0x00,0x00,0x00,0x00,0x00,0x00,0x00,0x00,0x00,
 0x00,0x00,0x00,0x80,0x05,0x00,0x00,0x00,0x00,0x00,0x00,0x00,0x00,0x00,0x00,
 0x00,0x00,0xc0,0x07,0x00,0x00,0x00,0x00,0x00,0x00,0x00};
