#define noname_width 27
#define noname_height 13
static char noname_bits[] = {
 0x00,0x00,0x08,0x00,0x00,0x00,0x08,0x00,0x00,0x00,0x0c,0x00,0x00,0x00,0x0c,
 0x00,0x00,0x00,0x1f,0x00,0xff,0x07,0x04,0x00,0x00,0x00,0x06,0x00,0x00,0x00,
 0x06,0x00,0xff,0x07,0x16,0x07,0x00,0x00,0x9a,0x04,0x00,0x00,0xce,0x04,0x00,
 0x00,0xc0,0x06,0x00,0x00,0xc0,0x03};
