#define noname_width 248
#define noname_height 18
static char noname_bits[] = {
 0x00,0x00,0x00,0x00,0x00,0x00,0x00,0x00,0x80,0x00,0x00,0x00,0x00,0x00,0x00,
 0x00,0x00,0x00,0x00,0x00,0x00,0x01,0x00,0x00,0x00,0x00,0x00,0x00,0x00,0x00,
 0x00,0x1c,0x00,0x00,0x00,0x00,0x00,0x00,0x00,0xc0,0xe0,0x0f,0x00,0x00,0x00,
 0x00,0x80,0x00,0x80,0x00,0xfe,0x00,0x03,0x00,0x00,0x00,0x00,0x00,0x00,0x1e,
 0x00,0x00,0x18,0x00,0x00,0x00,0x1f,0x80,0xe1,0x80,0x41,0x80,0x39,0x00,0x00,
 0x00,0x78,0x80,0x3f,0x8f,0x3f,0x98,0x03,0x02,0x00,0x00,0xe0,0x80,0xf1,0x03,
 0x1e,0x00,0x20,0x08,0x00,0x00,0x00,0x33,0x80,0xf1,0x80,0x61,0xc0,0x30,0x00,
 0x00,0x00,0xcc,0x80,0x9f,0x99,0x1f,0x0c,0x03,0x06,0x00,0x00,0xf0,0x80,0xf1,
 0x01,0x03,0x00,0x20,0x0c,0x00,0x00,0x00,0x33,0xc0,0xc1,0xc0,0x21,0xc0,0x30,
 0x00,0x00,0x00,0xc4,0x80,0x98,0x98,0x18,0x0c,0x03,0x04,0x00,0x00,0xc0,0xc0,
 0x11,0x00,0x03,0x00,0x20,0x0c,0x00,0x00,0x00,0x30,0xe0,0xc1,0xe0,0x31,0xc0,
 0x38,0x00,0x00,0x00,0xc6,0x00,0xc8,0x18,0x08,0x8c,0x03,0x0c,0x00,0x00,0xc0,
 0xe0,0x11,0x00,0x03,0x00,0x30,0xec,0x00,0x00,0x00,0x18,0xa0,0xc1,0xa0,0x31,
 0xc0,0x1c,0x00,0x00,0x00,0xc6,0x00,0xc4,0x18,0x04,0xcc,0x01,0x0c,0x00,0x00,
 0xc0,0xa0,0xf1,0x81,0xef,0xe3,0xfb,0xf4,0xc0,0xff,0x01,0x1e,0xb0,0xc1,0xb0,
 0x31,0xe0,0x0f,0x00,0x00,0x00,0xc6,0x00,0xc6,0x18,0x06,0xfe,0x30,0x0c,0xf8,
 0x3f,0xc0,0xb0,0x31,0x03,0x73,0x76,0x36,0x0e,0x00,0x00,0x00,0x30,0x90,0xc1,
 0x90,0x31,0x60,0x0c,0x00,0xfe,0x0f,0xc6,0x00,0xc6,0x18,0x06,0xc6,0x10,0x0c,
 0x00,0x00,0xc0,0x90,0x01,0x03,0xf3,0xf7,0x37,0x3e,0x00,0x00,0x00,0x31,0xf8,
 0xc7,0xf8,0x37,0x60,0x0c,0x00,0xfe,0x0f,0xc6,0x00,0xc2,0x18,0x02,0xc6,0x00,
 0x0c,0x00,0x00,0xc0,0xf8,0x17,0x03,0x33,0x30,0x30,0xb6,0xc0,0xff,0x81,0x33,
 0x80,0xc1,0x80,0x31,0x60,0x0c,0x07,0x00,0x00,0xc4,0x00,0x83,0x18,0x03,0xc6,
 0x18,0x0c,0xf8,0x3f,0xc0,0x80,0x19,0x03,0x33,0x30,0xb0,0xb2,0x00,0x00,0x80,
 0x31,0x83,0xc1,0x80,0x31,0x30,0xac,0x04,0x00,0x00,0xcc,0x0c,0x83,0x19,0x03,
 0xc3,0x1e,0x0c,0x00,0x00,0xc0,0x80,0x19,0x03,0x73,0x74,0xb4,0x73,0x00,0x00,
 0x00,0x3b,0xc3,0xf3,0xc3,0x33,0xf8,0xfc,0x04,0x00,0x00,0x7c,0x0c,0x83,0x0f,
 0x83,0xcf,0x1b,0x0c,0x00,0x00,0xf0,0xc3,0xb3,0x81,0xe7,0xe3,0xe3,0x00,0x00,
 0x00,0x00,0x0e,0x00,0x00,0x00,0x20,0x00,0xd8,0x06,0x00,0x00,0x30,0x00,0x02,
 0x06,0x02,0x80,0x19,0x04,0x00,0x00,0x00,0x00,0xe0,0x00,0x00,0x00,0x00,0x00,
 0x00,0x00,0x00,0x00,0x00,0x00,0x00,0x60,0x00,0xc0,0x03,0x00,0x00,0x00,0x00,
 0x00,0x00,0x00,0x00,0x18,0x06,0x00,0x00,0x00,0x00,0x00,0x00,0x00,0x00,0x00,
 0x00,0x00,0x00,0x00,0x00,0x00,0x00,0x00,0x40,0x00,0x00,0x00,0x00,0x00,0x00,
 0x00,0x00,0x00,0x00,0x00,0x00,0x02,0x00,0x00,0x00,0x00,0x00,0x00,0x00,0x00,
 0x00,0x00,0x00,0x00,0x00,0x00,0x00,0x00,0x00,0xc0,0x00,0x00,0x00,0x00,0x00,
 0x00,0x00,0x00,0x00,0x00,0x00,0x00,0x03,0x00,0x00,0x00,0x00,0x00,0x00,0x00,
 0x00,0x00,0x00,0x00,0x00,0x00,0x00,0x00,0x00,0x00,0x80,0x00,0x00,0x00,0x00,
 0x00,0x00,0x00,0x00,0x00,0x00,0x00,0x00,0x01,0x00,0x00,0x00,0x00,0x00,0x00,
 0x00,0x00,0x00};
