#define noname_width 359
#define noname_height 35
static char noname_bits[] = {
 0x00,0x00,0x00,0x00,0x00,0x00,0x00,0x00,0x02,0x00,0x00,0x00,0x00,0x00,0x00,
 0x00,0x00,0x00,0x00,0x00,0x00,0x00,0x00,0x00,0x00,0x00,0x00,0x00,0x00,0x00,
 0x00,0x00,0x00,0x00,0x00,0x00,0x00,0x00,0x00,0x00,0x00,0x00,0x00,0x00,0x00,
 0x00,0x00,0x00,0x00,0xe0,0x01,0x7e,0x1c,0xfe,0x00,0x00,0x00,0x00,0x00,0x00,
 0x00,0x00,0x00,0x00,0x00,0x00,0x00,0x00,0x00,0x00,0x00,0x00,0x00,0x00,0x00,
 0x00,0x00,0x00,0x00,0x00,0x00,0x00,0x00,0x00,0x00,0x00,0x00,0x00,0x00,0x00,
 0x00,0x00,0x00,0x00,0x30,0x03,0x3e,0x1e,0x7e,0x00,0x00,0x00,0x00,0x00,0x00,
 0x00,0x00,0x00,0x00,0x00,0x00,0x00,0x00,0x00,0x00,0x00,0x00,0x00,0x00,0x00,
 0x00,0x00,0x00,0x00,0x00,0x00,0x00,0x00,0x00,0x00,0x00,0x00,0x00,0x00,0x00,
 0x00,0x00,0x00,0x00,0x10,0x03,0x02,0x18,0x62,0x00,0x00,0x00,0x00,0x00,0x00,
 0x00,0x00,0x00,0x00,0x00,0x00,0x00,0x00,0x00,0x00,0x00,0x00,0x00,0x00,0x00,
 0x00,0x00,0x00,0x00,0x00,0x00,0x00,0x00,0x00,0x00,0x00,0x00,0x00,0x00,0x00,
 0x00,0x00,0x00,0x00,0x18,0x03,0x02,0x18,0x20,0x00,0x00,0x00,0x00,0x00,0x00,
 0x00,0x00,0x00,0x00,0x00,0x00,0x00,0x00,0x00,0x00,0x00,0x00,0x00,0x00,0x00,
 0x00,0x00,0x00,0x00,0x00,0x00,0x00,0x00,0x00,0x00,0x00,0x00,0x00,0x00,0x00,
 0x00,0x00,0x00,0x00,0x18,0x03,0x3e,0x18,0x10,0x00,0x00,0x00,0x00,0x00,0x00,
 0x00,0x00,0x00,0x00,0x00,0x00,0x00,0x00,0x00,0x00,0x00,0x00,0x00,0x00,0x00,
 0x00,0x00,0x00,0x00,0x00,0x00,0x00,0x00,0x00,0x00,0x00,0x00,0x00,0x00,0x00,
 0x00,0x00,0x00,0x00,0x18,0x03,0x66,0x18,0x18,0x00,0x00,0x00,0x00,0x00,0x00,
 0x00,0x00,0x00,0x00,0x00,0x00,0x00,0x00,0x00,0x00,0x00,0x00,0x00,0x00,0x00,
 0x00,0x00,0x00,0x00,0x00,0x00,0x00,0x00,0x00,0x00,0x00,0x00,0x00,0x00,0x00,
 0x00,0x00,0x00,0x00,0x18,0x03,0x60,0x18,0x18,0x00,0x00,0x00,0x00,0x00,0x00,
 0x00,0x00,0x00,0x00,0x00,0x00,0x00,0x00,0x00,0x00,0x00,0x00,0x00,0x00,0x00,
 0x00,0x00,0x00,0x00,0x00,0x00,0x00,0x00,0x00,0x00,0x00,0x00,0x00,0x00,0x00,
 0x00,0x00,0x00,0x00,0x18,0x03,0x62,0x18,0x08,0x00,0x00,0x00,0x00,0x00,0x00,
 0x00,0x00,0x00,0xc0,0x03,0x00,0x00,0x00,0x00,0x00,0x00,0x00,0x00,0x00,0x00,
 0x00,0x00,0x00,0x00,0x00,0x00,0x00,0xf0,0x00,0x00,0x00,0x00,0x00,0x00,0x00,
 0x00,0x00,0x00,0x00,0x10,0x03,0x63,0x18,0x0c,0x00,0x00,0x00,0x00,0x00,0x00,
 0x00,0x00,0x00,0x60,0x02,0x00,0x00,0x00,0x00,0x00,0x00,0x00,0x00,0x00,0x00,
 0x00,0x00,0x00,0x00,0x00,0x00,0x00,0x98,0x00,0x00,0x00,0x00,0x00,0x00,0x00,
 0x00,0x00,0x00,0x00,0x30,0x33,0x63,0x18,0x0c,0x00,0x04,0x00,0x80,0x00,0x00,
 0x00,0x00,0x04,0x41,0x03,0x00,0x00,0x00,0x00,0x00,0x00,0x00,0x00,0x80,0x00,
 0x00,0x10,0x00,0x00,0x00,0x80,0x20,0xd0,0x00,0x00,0x00,0x00,0x00,0x00,0x00,
 0xfc,0x07,0x00,0x00,0xf0,0x31,0x36,0x7e,0x0c,0x00,0x06,0x00,0xc0,0x00,0x00,
 0x00,0x07,0x0c,0x03,0x03,0x00,0x00,0x00,0x00,0x00,0x00,0x00,0x00,0xc0,0x00,
 0x00,0x18,0x00,0x00,0xe0,0x80,0x61,0xc0,0x00,0x00,0x00,0x00,0x00,0x70,0x00,
 0x30,0x06,0x00,0x00,0xc0,0x00,0x1c,0x00,0x08,0x00,0x02,0x00,0x40,0x00,0x00,
 0x00,0x06,0x08,0x82,0x01,0x00,0x00,0xf0,0x00,0x1e,0x0e,0x3e,0x0e,0x40,0x00,
 0x00,0x08,0x00,0x00,0xc0,0x00,0x41,0x60,0x00,0x00,0x00,0x00,0x00,0x60,0x00,
 0x18,0x04,0x00,0x00,0x00,0x00,0x00,0x00,0x00,0x00,0x03,0x00,0x60,0x00,0x00,
 0x00,0x06,0x18,0xc6,0x02,0x00,0x00,0x98,0x01,0x33,0x0f,0x33,0x0f,0x60,0x00,
 0x00,0x0c,0x00,0x00,0xc0,0x00,0xc3,0xb0,0x00,0x00,0x00,0x00,0x00,0x40,0x00,
 0x18,0x04,0x00,0x00,0x00,0x00,0x00,0x00,0x00,0x00,0x01,0x00,0x20,0x00,0x00,
 0x00,0x06,0x10,0xe4,0x03,0x00,0x00,0x88,0x01,0x31,0x0c,0x33,0x0c,0x20,0x00,
 0x00,0x04,0x00,0x00,0xc0,0x00,0x82,0xf8,0x00,0x00,0x00,0x00,0x00,0x40,0x00,
 0x98,0x04,0x00,0x00,0x00,0x00,0x00,0x00,0x00,0x80,0x01,0x00,0x30,0x00,0x00,
 0x00,0x06,0x30,0x0c,0x00,0x00,0x00,0x8c,0x81,0x31,0x0c,0x03,0x0c,0x30,0x00,
 0x00,0x06,0x00,0x00,0xc0,0x00,0x86,0x01,0x00,0x00,0x00,0x00,0x00,0x40,0x00,
 0xd8,0x00,0x00,0x00,0x00,0x00,0x00,0x00,0x00,0x80,0xe1,0x0e,0x30,0xfe,0x9f,
 0x3f,0x7e,0x30,0x0c,0x00,0x00,0x00,0x8c,0x81,0x31,0x8c,0x1f,0x0c,0x30,0xdc,
 0x01,0xc6,0xff,0xf3,0xc7,0x0f,0x86,0x01,0xe0,0x8f,0xcf,0x9d,0x3f,0x7c,0x3c,
 0xfc,0x00,0xfe,0x0f,0x00,0x00,0x00,0x00,0x00,0x80,0xf1,0x0c,0x30,0x8c,0x11,
 0x63,0x46,0x30,0x0c,0x00,0xfc,0x1f,0x8c,0x81,0x31,0x8c,0x33,0x0c,0x30,0x9e,
 0x01,0x86,0x31,0x62,0xcc,0x08,0x86,0x01,0xc0,0xd8,0x98,0x11,0x23,0x66,0x26,
 0xcc,0x00,0x00,0x00,0xf8,0xff,0xff,0xff,0xff,0x81,0xd1,0x0c,0x30,0x8c,0x11,
 0x63,0x46,0x30,0x0c,0x00,0x00,0x00,0x8c,0x81,0x31,0x8c,0x31,0x0c,0x30,0x9a,
 0x01,0x86,0x31,0x62,0xcc,0x08,0x86,0x01,0xc0,0xd8,0xb0,0x11,0x23,0x43,0x3e,
 0x4c,0x00,0x00,0x00,0x00,0x00,0x00,0x00,0x00,0x80,0x61,0x04,0x30,0x8c,0x11,
 0x63,0x46,0x30,0x0c,0x00,0x00,0x00,0x8c,0x81,0x31,0x8c,0x31,0x0c,0x30,0x8c,
 0x00,0x86,0x31,0x62,0xcc,0x08,0x86,0x01,0xc0,0xd8,0xb0,0x11,0x23,0x43,0x3c,
 0x0c,0x00,0xfe,0x0f,0x00,0x00,0x00,0x00,0x00,0x80,0x61,0x04,0x30,0x8c,0x11,
 0x63,0x46,0x30,0x0c,0x00,0xfc,0x1f,0x88,0x01,0x31,0x0c,0x31,0x0c,0x30,0x8c,
 0x00,0x86,0x31,0x62,0xcc,0x08,0x86,0x01,0xc0,0xd8,0xb0,0x11,0x23,0x43,0x62,
 0x06,0x00,0x00,0x00,0x00,0x00,0x00,0x00,0x00,0x80,0x61,0x02,0x30,0x8c,0x11,
 0x63,0x46,0x30,0x0c,0x00,0x00,0x00,0x98,0x19,0x33,0x0c,0x33,0x0c,0x30,0x4c,
 0x00,0x86,0x31,0x62,0xcc,0x08,0x86,0x01,0xc0,0xd8,0x99,0x19,0x23,0x66,0x66,
 0x1f,0x00,0x00,0x00,0x00,0x00,0x00,0x00,0x00,0x80,0xc1,0x03,0x30,0xde,0x7f,
 0x3f,0xff,0x31,0x0c,0x00,0x00,0x00,0xf8,0x18,0x1f,0x3f,0x1f,0x3f,0x30,0x78,
 0x00,0xc6,0xfb,0xef,0xe7,0x3f,0x86,0x01,0xc0,0x8f,0x0f,0xff,0xff,0xfc,0x3f,
 0x00,0x00,0x00,0x00,0x00,0x1f,0x1f,0xc0,0x01,0x00,0x01,0x00,0x20,0x00,0x00,
 0x03,0x00,0x10,0x04,0x00,0x00,0x00,0x60,0x00,0x0c,0x00,0x0c,0x00,0x20,0x00,
 0x00,0x04,0x00,0x60,0x00,0x00,0x82,0x00,0xc0,0x00,0x00,0x00,0x00,0x00,0x00,
 0x00,0x00,0x00,0x00,0x00,0x33,0x31,0xe0,0x01,0x00,0x03,0x00,0x60,0x00,0x00,
 0x03,0x00,0x18,0x06,0x00,0x00,0x00,0x00,0x00,0x00,0x00,0x00,0x00,0x60,0x00,
 0x00,0x0c,0x00,0x60,0x00,0x00,0xc3,0x00,0xc0,0x00,0x00,0x00,0x00,0x00,0x00,
 0x00,0x00,0x00,0x00,0x00,0xb3,0x33,0x80,0x01,0x00,0x02,0x00,0x40,0x00,0x00,
 0x03,0x00,0x08,0x02,0x00,0x00,0x00,0x00,0x00,0x00,0x00,0x00,0x00,0x40,0x00,
 0x00,0x08,0x00,0x60,0x00,0x00,0x41,0x00,0xc0,0x00,0x00,0x00,0x00,0x00,0x00,
 0x00,0x00,0x00,0x00,0x00,0xb0,0x33,0x80,0x01,0x00,0x06,0x00,0xc0,0x00,0x80,
 0x07,0x00,0x0c,0x03,0x00,0x00,0x00,0x00,0x00,0x00,0x00,0x00,0x00,0xc0,0x00,
 0x00,0x18,0x00,0xf0,0x00,0x80,0x61,0x00,0xe0,0x01,0x00,0x00,0x00,0x00,0x00,
 0x00,0x00,0x00,0x00,0x00,0x18,0x30,0x80,0x01,0x00,0x04,0x00,0x80,0x00,0x00,
 0x00,0x00,0x04,0x01,0x00,0x00,0x00,0x00,0x00,0x00,0x00,0x00,0x00,0x80,0x00,
 0x00,0x10,0x00,0x00,0x00,0x80,0x20,0x00,0x00,0x00,0x00,0x00,0x00,0x00,0x00,
 0x00,0x00,0x00,0x00,0x00,0x1e,0x38,0x80,0x01,0x00,0x00,0x00,0x00,0x00,0x00,
 0x00,0x00,0x00,0x00,0x00,0x00,0x00,0x00,0x00,0x00,0x00,0x00,0x00,0x00,0x00,
 0x00,0x00,0x00,0x00,0x00,0x00,0x00,0x00,0x00,0x00,0x00,0x00,0x00,0x00,0x00,
 0x00,0x00,0x00,0x00,0x00,0x30,0x18,0x80,0x01,0x00,0x00,0x00,0x00,0x00,0x00,
 0x00,0x00,0x00,0x00,0x00,0x00,0x00,0x00,0x00,0x00,0x00,0x00,0x00,0x00,0x00,
 0x00,0x00,0x00,0x00,0x00,0x00,0x00,0x00,0x00,0x00,0x00,0x00,0x00,0x00,0x00,
 0x00,0x00,0x00,0x00,0x00,0x31,0x0c,0x80,0x01,0x00,0x00,0x00,0x00,0x00,0x00,
 0x00,0x00,0x00,0x00,0x00,0x00,0x00,0x00,0x00,0x00,0x00,0x00,0x00,0x00,0x00,
 0x00,0x00,0x00,0x00,0x00,0x00,0x00,0x00,0x00,0x00,0x00,0x00,0x00,0x00,0x00,
 0x00,0x00,0x00,0x00,0x80,0x33,0x26,0x80,0x01,0x00,0x00,0x00,0x00,0x00,0x00,
 0x00,0x00,0x00,0x00,0x00,0x00,0x00,0x00,0x00,0x00,0x00,0x00,0x00,0x00,0x00,
 0x00,0x00,0x00,0x00,0x00,0x00,0x00,0x00,0x00,0x00,0x00,0x00,0x00,0x00,0x00,
 0x00,0x00,0x00,0x00,0x80,0x31,0x23,0x83,0x01,0x00,0x00,0x00,0x00,0x00,0x00,
 0x00,0x00,0x00,0x00,0x00,0x00,0x00,0x00,0x00,0x00,0x00,0x00,0x00,0x00,0x00,
 0x00,0x00,0x00,0x00,0x00,0x00,0x00,0x00,0x00,0x00,0x00,0x00,0x00,0x00,0x00,
 0x00,0x00,0x00,0x00,0x00,0xbb,0x3f,0xe3,0x07,0x00,0x00,0x00,0x00,0x00,0x00,
 0x00,0x00,0x00,0x00,0x00,0x00,0x00,0x00,0x00,0x00,0x00,0x00,0x00,0x00,0x00,
 0x00,0x00,0x00,0x00,0x00,0x00,0x00,0x00,0x00,0x00,0x00,0x00,0x00,0x00,0x00,
 0x00,0x00,0x00,0x00,0x00,0x0e,0x00,0x00,0x00,0x00,0x00,0x00,0x00,0x00,0x00,
 0x00,0x00,0x00,0x00,0x00,0x00,0x00,0x00,0x00,0x00,0x00,0x00,0x00,0x00,0x00,
 0x00,0x00,0x00,0x00,0x00,0x00,0x00,0x00,0x00,0x00,0x00,0x00,0x00,0x00,0x00};
