#define noname_width 34
#define noname_height 14
static char noname_bits[] = {
 0xf0,0x05,0x00,0x00,0x00,0x18,0x07,0x00,0x00,0x00,0x0c,0x06,0x00,0x00,0x00,
 0x06,0x06,0x00,0x00,0x00,0x07,0x02,0x00,0x00,0x00,0x03,0x00,0x00,0x00,0x00,
 0x03,0x80,0x81,0xff,0x03,0x03,0x80,0x01,0x00,0x00,0x01,0x81,0x00,0x00,0x00,
 0x03,0xf1,0x80,0xff,0x03,0x83,0xd0,0x00,0x00,0x00,0x66,0xd8,0x00,0x00,0x00,
 0x1c,0x48,0x01,0x00,0x00,0x00,0xf8,0x01,0x00,0x00};
