#define noname_width 25
#define noname_height 11
static char noname_bits[] = {
 0x78,0x00,0x00,0x00,0xcc,0xc0,0xff,0x01,0xcc,0x00,0x00,0x00,0xc6,0x00,0x00,
 0x00,0xe6,0xc0,0xff,0x01,0x66,0x00,0x00,0x00,0x3e,0x00,0x00,0x00,0x03,0x00,
 0x00,0x00,0x03,0x00,0x00,0x00,0x03,0x00,0x00,0x00,0x03,0x00,0x00,0x00};
