#define noname_width 405
#define noname_height 40
static char noname_bits[] = {
 0x00,0x00,0x00,0x00,0x00,0x00,0x00,0x00,0x00,0x00,0x00,0x00,0x00,0x00,0x00,
 0x00,0x00,0x00,0x00,0x00,0x00,0x00,0x00,0x00,0x00,0x00,0x00,0x00,0x00,0x00,
 0x00,0x00,0x00,0x80,0x0f,0x00,0x00,0x00,0x00,0x00,0x00,0x00,0x00,0x00,0x00,
 0x00,0x00,0x00,0x00,0x00,0x00,0x00,0x00,0x00,0x00,0x00,0x00,0x00,0x00,0x00,
 0x9c,0x03,0x00,0x00,0x00,0x00,0x00,0x00,0x00,0x00,0x00,0x00,0x80,0x63,0x00,
 0x00,0x00,0x00,0x00,0x00,0x00,0x00,0x00,0x00,0x80,0x09,0x00,0x00,0x00,0x00,
 0x00,0x00,0x00,0x00,0x80,0x3b,0x00,0x00,0x00,0x00,0x00,0x00,0x00,0x00,0x00,
 0x00,0x00,0x00,0x00,0x00,0x00,0x18,0x03,0x00,0x00,0x00,0x00,0x00,0x00,0xe0,
 0xe0,0xe1,0xe1,0x01,0x63,0x04,0x00,0x00,0x00,0x38,0x00,0x00,0x00,0x20,0x00,
 0x00,0x0c,0x00,0x00,0x00,0x00,0x00,0x00,0x00,0x00,0x00,0x33,0x00,0x00,0x00,
 0x00,0x00,0x00,0x00,0x00,0x00,0x00,0x00,0x00,0x00,0x00,0x00,0x18,0x03,0x00,
 0x00,0x00,0x00,0x00,0x00,0xf0,0x30,0x33,0x33,0x03,0x63,0x04,0x00,0x00,0x00,
 0x3c,0x00,0x00,0x00,0x20,0x00,0x00,0x0e,0x00,0x00,0x00,0x00,0x00,0x00,0x00,
 0x00,0x00,0x33,0x00,0x00,0x00,0x00,0x00,0x00,0x00,0x00,0x00,0x00,0x00,0x00,
 0x00,0x00,0x00,0x18,0x03,0x00,0x00,0x00,0x00,0x00,0x00,0xc0,0x10,0x13,0x13,
 0x03,0x03,0x04,0x00,0x00,0x00,0x30,0x00,0x00,0x00,0x20,0x00,0x00,0x18,0x00,
 0x00,0x00,0x00,0x00,0x00,0x00,0x00,0x00,0x33,0x00,0x00,0x00,0x00,0x00,0x00,
 0x00,0x00,0x00,0x00,0x00,0x08,0x00,0x00,0x00,0x18,0x03,0x00,0x00,0x00,0x00,
 0x00,0x00,0xc0,0x18,0x1b,0x1b,0x03,0x03,0x06,0x00,0x00,0x00,0x30,0x00,0x00,
 0x00,0x30,0x00,0x80,0x19,0x00,0x00,0x00,0x00,0x00,0x00,0x00,0x00,0x00,0x33,
 0x00,0x00,0x00,0x00,0x00,0x00,0x00,0x00,0x00,0x00,0xc0,0xff,0xff,0x01,0x00,
 0x18,0x3f,0xe0,0xff,0xf1,0xf1,0x3c,0x00,0xc0,0x18,0x1b,0x1b,0x03,0x73,0x1f,
 0xdf,0xef,0x01,0x30,0xe0,0xff,0xf1,0xf9,0x7c,0xbf,0x0f,0x00,0x00,0x00,0x00,
 0x00,0x00,0x00,0x00,0x00,0xf3,0x03,0xfe,0x1f,0x1f,0x8f,0x07,0x00,0x00,0x00,
 0x00,0x60,0xc6,0x18,0x01,0x00,0x18,0x63,0xc0,0x18,0xb1,0x99,0x26,0x00,0xc0,
 0x18,0x1b,0x1b,0x03,0x63,0x86,0xb3,0x3d,0x01,0x30,0xc0,0x18,0x39,0x33,0xce,
 0x36,0x00,0x00,0x00,0x00,0x00,0x00,0x00,0x00,0x00,0x00,0x33,0x06,0x8c,0x11,
 0x9b,0xc9,0x04,0x00,0x00,0x00,0x00,0x60,0xc6,0x18,0x01,0x00,0x18,0x63,0xc0,
 0x18,0xc1,0xf9,0x3e,0x00,0xc0,0x18,0x1b,0x1b,0x03,0x63,0x86,0xbf,0xf1,0x01,
 0x30,0xc0,0x18,0xf9,0x33,0xfe,0x06,0x00,0x00,0x00,0x00,0x00,0x00,0x00,0x00,
 0x00,0x00,0x33,0x06,0x8c,0x11,0x9c,0xcf,0x07,0x00,0x00,0x00,0x00,0xc0,0xc6,
 0x18,0x01,0x00,0x18,0x63,0xdf,0x18,0x71,0xf1,0x3c,0x00,0xc0,0x18,0x1b,0x1b,
 0x03,0x63,0x86,0x81,0xe1,0x01,0x30,0xc0,0x18,0x19,0x30,0x06,0x06,0x00,0x00,
 0x00,0x00,0x00,0x00,0x00,0x00,0x00,0x00,0x33,0xf6,0x8d,0x11,0x17,0x8f,0x07,
 0x00,0x00,0x00,0x00,0xc0,0xc3,0x18,0x01,0x00,0x18,0x63,0xc0,0x18,0x39,0x8d,
 0x63,0x00,0xc0,0x10,0x13,0x13,0x03,0x63,0x96,0x81,0x11,0x03,0x30,0xc0,0x18,
 0x19,0xb0,0x06,0x06,0x00,0x00,0x00,0x00,0x00,0x00,0x00,0x00,0x00,0x00,0x33,
 0x06,0x8c,0x91,0xd3,0x58,0x0c,0x00,0x00,0x00,0x00,0x40,0xc0,0x18,0x01,0x00,
 0x18,0x63,0xc0,0x18,0x99,0x9d,0x67,0x00,0xc0,0x30,0x33,0x33,0x03,0x63,0x96,
 0xa3,0x31,0x03,0x30,0xc0,0x18,0x39,0xb2,0x8e,0x06,0x00,0x00,0x00,0x00,0x00,
 0x00,0x00,0x00,0x00,0x00,0x33,0x06,0x8c,0x91,0xd9,0xd9,0x0c,0x00,0x00,0x00,
 0x00,0xc0,0xef,0xfd,0x07,0x00,0x3c,0x3f,0xe0,0xfd,0xf7,0xff,0x3e,0x00,0xf0,
 0xf3,0xf1,0xf1,0x81,0xf7,0x1c,0xdf,0xf7,0x01,0xfc,0xe0,0xfd,0xf7,0xe1,0x7c,
 0x1f,0x00,0x00,0x00,0x00,0x00,0x00,0x00,0x00,0x00,0x80,0xf7,0x03,0xde,0x7f,
 0xff,0xcf,0x07,0x00,0x00,0x00,0x00,0x60,0x1c,0x00,0x00,0x00,0x00,0x00,0x00,
 0x00,0x00,0x00,0x00,0x00,0x00,0xc0,0xc0,0xc0,0x00,0x00,0x00,0x00,0x00,0x00,
 0x00,0x00,0x00,0x00,0x00,0x00,0x00,0x00,0x00,0x00,0x00,0x00,0x00,0x00,0x00,
 0x00,0x00,0x00,0x00,0x00,0x00,0x00,0x00,0x00,0x0e,0xe0,0xc3,0x03,0x20,0x18,
 0x00,0x00,0x00,0x00,0x00,0x00,0x00,0x00,0x00,0x00,0x00,0x00,0x00,0x00,0x00,
 0x00,0x00,0x00,0x00,0x00,0x00,0x00,0x00,0x00,0x00,0x00,0x00,0x00,0x00,0x00,
 0x00,0xc0,0x03,0x78,0x78,0x78,0x38,0x00,0x00,0x00,0x00,0x00,0x00,0x00,0x00,
 0x0f,0x20,0x66,0x06,0x60,0x0c,0x00,0x00,0x00,0x00,0x00,0x00,0x00,0x00,0x00,
 0x00,0x00,0x00,0x00,0x00,0x00,0x00,0x00,0x00,0x00,0x00,0x00,0x00,0x00,0x00,
 0x00,0x00,0x00,0x00,0x00,0x00,0x00,0x60,0x06,0xcc,0xc4,0xcc,0x3c,0x00,0x00,
 0x00,0x00,0x00,0x00,0x00,0x00,0x0c,0x70,0x36,0x06,0xc0,0x07,0x00,0x00,0x00,
 0x00,0x00,0x00,0x00,0x00,0x00,0x00,0x00,0x00,0x00,0x00,0x00,0x00,0x00,0x00,
 0x00,0x00,0x00,0x00,0x00,0x00,0x00,0x00,0x00,0x00,0x00,0x00,0x00,0x20,0x06,
 0xc4,0x84,0xc4,0x30,0x00,0x00,0x00,0x00,0x00,0x00,0x00,0x00,0x0c,0x70,0x36,
 0x06,0x00,0x00,0x00,0x00,0x00,0x00,0x00,0x00,0x00,0x00,0x00,0x00,0x00,0x00,
 0x00,0x00,0x00,0x00,0x00,0x00,0x00,0x00,0x00,0x00,0x00,0x00,0x00,0x00,0x00,
 0x00,0x00,0x00,0x00,0x30,0x06,0xc6,0xcc,0xc6,0x30,0x00,0x00,0x00,0x00,0x00,
 0x00,0x00,0x00,0x0c,0x00,0x36,0x06,0x00,0x00,0x00,0x00,0x00,0x00,0x00,0x00,
 0x00,0x00,0x00,0x00,0x00,0x00,0x00,0x00,0x00,0x00,0x00,0x00,0x00,0x00,0x00,
 0x00,0x00,0x00,0x00,0x00,0x00,0x00,0x00,0x00,0x00,0x30,0x06,0xc6,0x7c,0xc6,
 0x30,0x00,0x00,0x00,0x00,0x00,0x00,0x00,0x00,0x0c,0x00,0x67,0x06,0x00,0x00,
 0x00,0x00,0x00,0x00,0x00,0x00,0x00,0x00,0x00,0x00,0x00,0x00,0x00,0x00,0x00,
 0x00,0x00,0x00,0x00,0x00,0x00,0x00,0x00,0x00,0x00,0x00,0x00,0x00,0x00,0xf0,
 0x7f,0x30,0x06,0xc6,0x78,0xc6,0x30,0x00,0x00,0x00,0x00,0x00,0x00,0x00,0x00,
 0x0c,0x00,0x63,0x07,0xfc,0xff,0xff,0x7f,0xe0,0xff,0xff,0xff,0xff,0xff,0xff,
 0xff,0x0f,0xf8,0xff,0xff,0xff,0xff,0xff,0xff,0xff,0xff,0x07,0xfe,0xff,0xff,
 0xff,0xff,0xff,0xff,0x1f,0x00,0x00,0x30,0x06,0xc6,0xec,0xc6,0x30,0x80,0xff,
 0xff,0xff,0xff,0xff,0xff,0x1f,0x0c,0x80,0xc1,0x07,0x00,0x00,0x00,0x00,0x00,
 0x00,0x00,0x00,0x00,0x00,0x00,0x00,0x00,0x00,0x00,0x00,0x00,0x00,0x00,0x00,
 0x00,0x00,0x00,0x00,0x00,0x00,0x00,0x00,0x00,0x00,0x00,0x00,0x00,0x30,0x06,
 0xc6,0xc6,0xc6,0x30,0x00,0x00,0x00,0x00,0x00,0x00,0x00,0x00,0x0c,0xc0,0x04,
 0x06,0x00,0x00,0x00,0x00,0x00,0x00,0x00,0x00,0x00,0x00,0x00,0x00,0x00,0x00,
 0x00,0x00,0x00,0x00,0x00,0x00,0x00,0x00,0x00,0x00,0x00,0x00,0x00,0x00,0x00,
 0x00,0x00,0xf0,0x7f,0x20,0x06,0xc4,0x86,0xc4,0x30,0x00,0x00,0x00,0x00,0x00,
 0x00,0x00,0x00,0x0c,0x63,0x64,0x06,0x00,0x00,0x00,0x00,0x00,0x00,0x00,0x00,
 0x00,0x00,0x00,0x00,0x00,0x00,0x00,0x00,0x00,0x00,0x00,0x00,0x00,0x00,0x00,
 0x00,0x00,0x00,0x00,0x00,0x00,0x00,0x00,0x00,0x00,0x60,0x66,0xcc,0x86,0xcc,
 0x30,0x00,0x00,0x00,0x00,0x00,0x00,0x00,0x00,0x3f,0xf3,0x27,0x03,0x9c,0x01,
 0x00,0x00,0x00,0x00,0x00,0x00,0x00,0x00,0x00,0x00,0x00,0x00,0x00,0x00,0x00,
 0x00,0x00,0x00,0xc0,0x07,0x00,0x00,0x00,0x00,0x00,0x00,0xf0,0xc0,0x07,0x00,
 0x00,0xe0,0x63,0x7c,0xec,0x7c,0xfc,0x00,0x00,0x00,0x3c,0xf0,0x01,0x00,0x00,
 0x00,0x00,0xc0,0x00,0x98,0x21,0x00,0x00,0x00,0xc6,0xcf,0x07,0xf0,0x01,0x00,
 0x00,0x00,0x00,0x38,0x00,0x00,0x00,0x10,0x00,0xc0,0x04,0x00,0xf8,0xf8,0x81,
 0x1f,0x07,0xf0,0xc2,0x04,0x00,0x00,0x80,0x01,0x30,0x38,0x30,0x00,0x00,0x00,
 0x00,0xbc,0x30,0x01,0x00,0x00,0x00,0x00,0x00,0x00,0x98,0x21,0x00,0x00,0x00,
 0xc6,0xc7,0x0c,0x98,0x01,0x00,0x00,0x00,0x00,0x3c,0x00,0x00,0x00,0x10,0x00,
 0x00,0x06,0x00,0x98,0xf9,0x80,0x8f,0x07,0x18,0x02,0x06,0x00,0x00,0x00,0x00,
 0x00,0x00,0x00,0x00,0x00,0x00,0x00,0x86,0x80,0x01,0x00,0x00,0x00,0x00,0x00,
 0x00,0x18,0x20,0x00,0x00,0x00,0x47,0xc0,0x0c,0x98,0x01,0x00,0x00,0x00,0x00,
 0x30,0x00,0x00,0x00,0x10,0x00,0x00,0x07,0x00,0x98,0x09,0x80,0x00,0x06,0x18,
 0x02,0x07,0x00,0x00,0x00,0x00,0x00,0x00,0x00,0x00,0x00,0x00,0x00,0x86,0xc0,
 0x01,0x00,0x00,0x00,0x00,0x00,0x00,0x18,0x30,0x00,0x00,0x80,0x47,0x00,0x0c,
 0x18,0x00,0x10,0x00,0x00,0x00,0x30,0x00,0x00,0x00,0x18,0x00,0x00,0x0c,0x00,
 0x80,0x09,0x80,0x00,0x06,0x18,0x03,0x0c,0x00,0x00,0x00,0x00,0x00,0x00,0x00,
 0x00,0x00,0x00,0x00,0xc6,0x00,0x03,0x00,0x00,0x00,0x00,0x00,0x00,0xd8,0xf9,
 0x7c,0x7e,0x80,0xc6,0x07,0x06,0xfc,0x80,0xff,0xff,0x03,0x00,0x30,0xe0,0xff,
 0xf1,0x7d,0x7c,0xff,0x0c,0x00,0xc0,0xf8,0x80,0x0f,0x06,0xfc,0xcf,0x0c,0x00,
 0x00,0x00,0x00,0x00,0x00,0x00,0x00,0x00,0x00,0x00,0xff,0x33,0x03,0x00,0x00,
 0x00,0x00,0x00,0x00,0x98,0x31,0xce,0x6c,0xc0,0xc6,0x8c,0x07,0x9c,0xc1,0x8c,
 0x31,0x02,0x00,0x30,0xc0,0x18,0x39,0x1b,0xce,0xf6,0x07,0x00,0xf0,0x98,0x81,
 0x19,0x06,0x18,0xc3,0x07,0x00,0x00,0x00,0x00,0x00,0x00,0x00,0x00,0x00,0x00,
 0x00,0xc6,0xf0,0x01,0x00,0x00,0x00,0x00,0x00,0x00,0x98,0x31,0xfe,0x0c,0x40,
 0x06,0x0c,0x0c,0x8c,0xc1,0x8c,0x31,0x02,0x00,0x30,0xc0,0x18,0xf9,0x1b,0xfe,
 0x06,0x00,0x00,0x80,0x81,0x01,0x18,0x06,0x18,0x03,0x00,0x00,0x00,0x00,0x00,
 0x00,0x00,0x00,0x00,0x00,0x00,0x00,0xc6,0x00,0x00,0x00,0x00,0x00,0x00,0x00,
 0x00,0x98,0x31,0x06,0x0c,0xe0,0x5f,0x4c,0x0c,0x8c,0x81,0x8d,0x31,0x02,0x00,
 0x30,0xc0,0x18,0x19,0x18,0x06,0x06,0x00,0x00,0x88,0x89,0x81,0x18,0x06,0x18,
 0x03,0x00,0x00,0x00,0x00,0x00,0x00,0x00,0x00,0x00,0x00,0x00,0x00,0xc6,0x00,
 0x00,0x00,0x00,0x00,0x00,0x00,0x00,0x98,0xb1,0x06,0x0c,0x00,0x66,0xec,0x0c,
 0x88,0x81,0x87,0x31,0x02,0x00,0x30,0xc0,0x18,0x19,0x58,0x06,0x06,0x00,0x00,
 0x9c,0x8d,0xc1,0x18,0x06,0x18,0x0b,0x00,0x00,0x00,0x00,0x00,0x00,0x00,0x00,
 0x00,0x00,0x00,0x00,0xc6,0x02,0x00,0x00,0x00,0x00,0x00,0x00,0x00,0x98,0xb1,
 0x8e,0x0c,0x00,0x66,0x6c,0xcc,0x98,0x81,0x80,0x31,0x02,0x00,0x30,0xc0,0x18,
 0x39,0x5a,0x8e,0x06,0x00,0x00,0x8c,0x8d,0xd9,0x18,0x06,0x18,0x0b,0x00,0x00,
 0x00,0x00,0x00,0x00,0x00,0x00,0x00,0x00,0x00,0x00,0xc6,0x02,0x00,0x00,0x00,
 0x00,0x00,0x00,0x00,0xfc,0xe3,0x7c,0x3e,0x00,0xcf,0xc6,0xce,0xf8,0x80,0xdf,
 0xfb,0x0f,0x00,0xfc,0xe0,0xfd,0xf7,0x71,0x7c,0x1f,0x00,0x00,0xd8,0xd9,0x98,
 0x8d,0x1f,0x3c,0x0e,0x00,0x00,0x00,0x00,0x00,0x00,0x00,0x00,0x00,0x00,0x00,
 0x00,0x8f,0x03,0x00,0x00,0x00,0x00,0x00,0x00,0x00,0x00,0x00,0x00,0x00,0x00,
 0x80,0x83,0x03,0x60,0xc0,0x38,0x00,0x00,0x00,0x00,0x00,0x00,0x00,0x00,0x00,
 0x00,0x00,0x00,0x70,0x70,0x00,0x07,0x00,0x00,0x00,0x00,0x00,0x00,0x00,0x00,
 0x00,0x00,0x00,0x00,0x00,0x00,0x00,0x00,0x00,0x00,0x00,0x00,0x00,0x00,0x00,
 0x00,0x00,0x00,0x00,0x00,0x00,0x00,0x00,0x00,0x00,0x40,0x30,0x00,0x00,0x00,
 0x00,0x00,0x00,0x00,0x00,0x00,0x00,0x00,0x00,0x00,0x00,0x00,0x00,0x00,0x00,
 0x00,0x00,0x00,0x00,0x00,0x00,0x00,0x00,0x00,0x00,0x00,0x00,0x00,0x00,0x00,
 0x00,0x00,0x00,0x00,0x00,0x00,0x00,0x00,0x00,0x00,0x00,0x00,0x00,0x00,0x00,
 0x00,0xc0,0x18,0x00,0x00,0x00,0x00,0x00,0x00,0x00,0x00,0x00,0x00,0x00,0x00,
 0x00,0x00,0x00,0x00,0x00,0x00,0x00,0x00,0x00,0x00,0x00,0x00,0x00,0x00,0x00,
 0x00,0x00,0x00,0x00,0x00,0x00,0x00,0x00,0x00,0x00,0x00,0x00,0x00,0x00,0x00,
 0x00,0x00,0x00,0x00,0x00,0x00,0x00,0x80,0x0f,0x00,0x00,0x00,0x00,0x00,0x00,
 0x00,0x00,0x00,0x00,0x00,0x00,0x00,0x00,0x00,0x00,0x00,0x00,0x00,0x00,0x00,
 0x00,0x00,0x00,0x00,0x00,0x00,0x00,0x00,0x00,0x00,0x00,0x00,0x00,0x00,0x00};
