#define noname_width 517
#define noname_height 42
static char noname_bits[] = {
 0x00,0x00,0x00,0x00,0x00,0x00,0x00,0x00,0x00,0x00,0x00,0x00,0x00,0x00,0x00,
 0x00,0x00,0x00,0x00,0x00,0x00,0x00,0x00,0x00,0x00,0x00,0x00,0x00,0x00,0x06,
 0x00,0x00,0x00,0x00,0x00,0x00,0x00,0x00,0x00,0x00,0x00,0x00,0x00,0x00,0x00,
 0x18,0x00,0x00,0x00,0x00,0x00,0x00,0x00,0x00,0x00,0x00,0x00,0x00,0x00,0x00,
 0x00,0x00,0x00,0x00,0x00,0x00,0x00,0x00,0x00,0x00,0x00,0x00,0x00,0x00,0x00,
 0x00,0x00,0x00,0x00,0x00,0x00,0x00,0x00,0x00,0x00,0x00,0x00,0x00,0x00,0x00,
 0x00,0x00,0x00,0x00,0x03,0x00,0x00,0x00,0x00,0x00,0x00,0x00,0x00,0x00,0x00,
 0x00,0x00,0x00,0x00,0x00,0x10,0x00,0x00,0x00,0x00,0x00,0x00,0x00,0x00,0x00,
 0x00,0x00,0x00,0x00,0x00,0x00,0x00,0x00,0x00,0x00,0x00,0x00,0x00,0x00,0x00,
 0x00,0x00,0x00,0x00,0x00,0x00,0x00,0x00,0x00,0x00,0x00,0x00,0x00,0x00,0x00,
 0x00,0x00,0x00,0x00,0x00,0x00,0x00,0x00,0x80,0x01,0x00,0x00,0x00,0x00,0xe0,
 0x1c,0x00,0x00,0x00,0x00,0x00,0x00,0x00,0x00,0x00,0x30,0x00,0x00,0x00,0x00,
 0x00,0x00,0x00,0x00,0x00,0x00,0x00,0x80,0x3b,0x00,0x00,0x00,0x00,0x00,0x00,
 0x00,0x00,0x00,0x00,0xc0,0x01,0x00,0x00,0x00,0x00,0x00,0x00,0x00,0x00,0x00,
 0x00,0x00,0x00,0x00,0x00,0x00,0x00,0x00,0x00,0x00,0x00,0x00,0x00,0x80,0x01,
 0x00,0x00,0x00,0x00,0xc0,0x18,0x00,0x00,0x00,0x00,0x00,0x00,0x00,0x00,0x00,
 0x60,0x00,0x00,0x00,0x00,0x00,0x00,0x00,0x00,0x00,0x00,0x00,0x00,0x33,0x00,
 0x00,0x00,0x00,0x00,0x00,0x00,0x00,0x00,0x00,0xe0,0x01,0x00,0x00,0x00,0x00,
 0x00,0x00,0x00,0x00,0x00,0x00,0x00,0x00,0x00,0x00,0x00,0x00,0x00,0x00,0x00,
 0x00,0x00,0x00,0xc0,0x00,0x00,0x00,0x00,0x00,0xc0,0x18,0x00,0x00,0x00,0x00,
 0x00,0x00,0x00,0x00,0x00,0x60,0x00,0x00,0x00,0x00,0x00,0x00,0x00,0x00,0x00,
 0x00,0x00,0x00,0x33,0x00,0x00,0x00,0x00,0x00,0x00,0x00,0x00,0x00,0x00,0x80,
 0x01,0x00,0x00,0x00,0x00,0x00,0x00,0x00,0x00,0x00,0x00,0x00,0x00,0x00,0x00,
 0x00,0x00,0x00,0x00,0x00,0x00,0x00,0x00,0xc0,0x00,0x00,0x00,0x00,0x00,0xc0,
 0x18,0x00,0x00,0x00,0x00,0x00,0x00,0x00,0x00,0x00,0xc0,0x00,0x00,0x00,0x00,
 0x00,0x00,0x00,0x00,0x00,0x00,0x00,0x00,0x33,0x00,0x00,0x00,0x00,0x00,0x00,
 0x00,0x00,0x00,0x00,0x80,0x01,0x00,0x00,0x00,0x00,0x00,0x00,0x00,0x00,0x00,
 0x00,0x00,0x00,0x00,0x00,0x00,0x00,0x00,0x00,0x00,0x00,0x00,0x00,0x60,0x00,
 0x00,0x00,0x00,0x00,0xc0,0x18,0x00,0x00,0x00,0x00,0x00,0x00,0x00,0x00,0x00,
 0xc0,0x00,0x00,0x00,0x00,0x00,0x00,0x00,0x00,0x00,0x00,0x00,0x00,0x33,0x00,
 0x00,0x00,0x00,0x00,0x00,0x00,0x00,0x00,0x00,0x80,0x01,0x00,0x00,0x00,0x00,
 0x00,0x00,0x00,0x00,0x00,0x00,0x00,0x00,0x00,0x00,0x00,0x00,0x00,0x00,0x00,
 0x00,0x00,0x00,0x60,0x00,0x00,0x00,0x00,0x00,0xc0,0xf8,0x01,0xff,0x8f,0x8f,
 0xc7,0x03,0x00,0x00,0x00,0x80,0x01,0x00,0x00,0x00,0x00,0x00,0x00,0x00,0x00,
 0x00,0x00,0x00,0xf3,0x03,0xfe,0x1f,0x1f,0x8f,0x07,0x00,0x00,0x00,0x00,0x80,
 0x01,0x00,0x00,0x00,0x00,0x00,0x00,0x00,0x00,0x00,0x00,0x00,0x18,0x00,0x00,
 0x00,0x00,0x00,0x00,0x00,0x00,0x60,0x00,0x60,0x00,0x00,0x00,0x00,0x00,0xc0,
 0x18,0x03,0xc6,0x88,0xcd,0x64,0x02,0x00,0x00,0x00,0x80,0x01,0x00,0x00,0x00,
 0x00,0x00,0x00,0x00,0x00,0x00,0x00,0x00,0x33,0x06,0x8c,0x11,0x9b,0xc9,0x04,
 0x00,0x00,0x00,0x00,0x80,0x01,0x00,0x00,0x00,0x00,0x00,0x00,0x00,0x00,0x00,
 0x00,0x00,0x0c,0x00,0x00,0x00,0x00,0x00,0x00,0x00,0x00,0xc0,0x00,0x30,0x00,
 0x00,0x00,0x00,0x00,0xc0,0x18,0x03,0xc6,0x08,0xce,0xe7,0x03,0x00,0x00,0x00,
 0x80,0x01,0x00,0x00,0x00,0x00,0x00,0x00,0x00,0x00,0x00,0x00,0x00,0x33,0x06,
 0x8c,0x11,0x9c,0xcf,0x07,0x00,0x00,0x00,0x00,0x80,0x01,0x00,0x00,0x00,0x00,
 0x00,0x00,0x00,0x00,0x00,0x00,0x00,0x0c,0x00,0x00,0x00,0x00,0x00,0x00,0x00,
 0x00,0xc0,0x00,0x30,0x00,0x00,0x00,0x00,0x00,0xc0,0x18,0xfb,0xc6,0x88,0x8b,
 0xc7,0x03,0x00,0x00,0x00,0x00,0x03,0x00,0x00,0x00,0x00,0x00,0x00,0x00,0x00,
 0x00,0x00,0x00,0x33,0xf6,0x8d,0x11,0x17,0x8f,0x07,0x00,0x00,0x00,0x00,0x80,
 0x01,0x00,0x00,0x00,0x00,0x00,0x00,0x00,0x00,0x00,0x00,0x00,0x06,0x00,0x00,
 0x00,0xe0,0x01,0x00,0x00,0x00,0x80,0x01,0x30,0x00,0x00,0x00,0x00,0x00,0xc0,
 0x18,0x03,0xc6,0xc8,0x69,0x2c,0x06,0x00,0x00,0x00,0x00,0x03,0x00,0x3c,0x00,
 0x00,0x00,0x00,0x00,0x00,0x00,0xf0,0x00,0x33,0x06,0x8c,0x91,0xd3,0x58,0x0c,
 0x00,0x00,0x00,0x00,0x80,0x01,0x10,0x00,0x00,0x00,0x00,0x00,0x00,0x00,0x00,
 0x20,0x00,0x06,0x00,0x00,0x00,0x30,0x01,0x00,0x00,0x00,0x80,0x01,0x30,0x00,
 0x00,0x00,0x00,0x00,0xc0,0x18,0x03,0xc6,0xc8,0xec,0x6c,0x06,0x00,0x00,0x00,
 0x00,0x03,0x00,0x26,0x00,0x00,0x00,0x00,0x00,0x00,0x00,0x98,0x00,0x33,0x06,
 0x8c,0x91,0xd9,0xd9,0x0c,0xfc,0x07,0x00,0x00,0xe0,0x07,0x18,0x00,0x00,0x00,
 0x00,0x00,0x00,0xc0,0x17,0x60,0x00,0x03,0x00,0x00,0x78,0xa0,0x01,0x00,0x00,
 0x00,0x02,0x03,0x38,0x00,0x00,0x00,0x00,0x00,0xe0,0xf9,0x01,0xef,0xbf,0xff,
 0xe7,0x03,0x00,0x00,0x00,0x00,0x03,0x00,0x34,0x00,0x00,0x00,0x00,0x00,0x00,
 0x00,0xd0,0x80,0xf7,0x03,0xde,0x7f,0xff,0xcf,0x07,0x30,0x06,0x00,0x00,0x00,
 0x00,0x08,0x0f,0xf0,0xe1,0x01,0x00,0x00,0x60,0x1c,0x40,0x00,0xc3,0x87,0x07,
 0x78,0x81,0x01,0x00,0x00,0x00,0x07,0x03,0x18,0xe0,0x01,0x3c,0x3c,0x3c,0x00,
 0x00,0x00,0x00,0x00,0x00,0x00,0x00,0x00,0x00,0x00,0x00,0x03,0x00,0x30,0x00,
 0x00,0x80,0x07,0xf8,0xc0,0x00,0xc0,0x00,0x00,0x00,0x00,0x00,0x00,0x00,0x00,
 0x18,0x04,0x00,0x00,0x00,0x00,0x8c,0x19,0x30,0x33,0x03,0x00,0x00,0x30,0x18,
 0xc0,0x00,0x43,0xcc,0x0c,0x0c,0xc1,0x00,0x00,0x00,0x00,0x07,0x03,0x18,0x30,
 0x03,0x66,0x62,0x66,0x00,0x00,0x00,0x00,0x00,0x00,0x00,0x00,0x00,0x00,0x00,
 0x00,0x03,0x00,0x18,0x00,0x00,0xc0,0x0c,0x88,0xc1,0x00,0x60,0x00,0x00,0x00,
 0x00,0x00,0x00,0x00,0x00,0x18,0x04,0x00,0x00,0x00,0x00,0x84,0x18,0x30,0x13,
 0x03,0x00,0x00,0x18,0x18,0x80,0x00,0xe1,0x4c,0x0c,0x0c,0x61,0x01,0x00,0x00,
 0x80,0x07,0x02,0x18,0x10,0x03,0x62,0x42,0x62,0x00,0x00,0x00,0x00,0x00,0x00,
 0x00,0x00,0x00,0x00,0x00,0x00,0x07,0x00,0x2c,0x00,0x00,0x40,0x0c,0x9c,0xe1,
 0x00,0xb0,0x00,0x00,0x00,0x00,0x00,0x00,0x00,0x00,0x98,0x04,0x00,0x00,0x00,
 0x00,0xc6,0x18,0x00,0x1b,0x03,0x00,0x00,0x1c,0x08,0x80,0x81,0xe1,0x6c,0x0c,
 0x8c,0xf1,0x01,0x00,0x00,0x80,0x06,0x06,0x18,0x18,0x03,0x63,0x66,0x63,0x00,
 0x00,0x00,0x00,0x00,0x00,0x00,0x00,0x00,0x00,0x00,0x00,0x06,0x00,0x3e,0x00,
 0x00,0x60,0x0c,0x9c,0xf1,0x00,0xf8,0x00,0x00,0x00,0x00,0x00,0x00,0x00,0x00,
 0xd8,0x00,0x00,0x00,0x00,0x00,0xc6,0x18,0x80,0x19,0x03,0x00,0x00,0x0c,0x00,
 0x80,0x81,0x01,0x6c,0x0c,0xfe,0x07,0x00,0x00,0x00,0x40,0x06,0x06,0x18,0x18,
 0x03,0x63,0x3e,0x63,0x00,0x00,0x00,0x00,0x00,0x00,0x00,0x00,0x00,0x00,0xe0,
 0x01,0x06,0xee,0x00,0x00,0x00,0x60,0x0c,0x80,0xd1,0xb8,0x03,0x00,0x00,0x00,
 0x00,0x00,0x00,0x00,0x00,0xfc,0x00,0xfc,0x1f,0x00,0x00,0xc6,0x18,0xe0,0x19,
 0x03,0xfe,0x0f,0x0c,0x00,0x86,0x81,0x01,0x6e,0x0c,0x8c,0x01,0x00,0xff,0x07,
 0x60,0x06,0x06,0x18,0x18,0x03,0x63,0x3c,0x63,0x00,0x00,0x00,0x00,0x00,0x00,
 0x00,0x00,0xfc,0x1f,0x30,0x03,0x06,0xcf,0x00,0xe0,0xff,0x60,0x0c,0xc0,0xd9,
 0x3c,0x03,0x00,0x00,0x00,0x00,0x00,0x00,0x00,0x00,0xcc,0x00,0x00,0x00,0xf0,
 0x1f,0xc6,0x18,0x00,0x1b,0x03,0x00,0x00,0x0c,0x00,0x86,0x81,0x01,0x66,0x0c,
 0x8c,0x01,0x00,0x00,0x00,0xe0,0x07,0x06,0x18,0x18,0x03,0x63,0x76,0x63,0xe0,
 0xff,0xff,0xff,0xff,0xff,0xff,0x07,0x00,0x00,0x30,0x03,0x06,0xcd,0x00,0x00,
 0x00,0x60,0x0c,0xc0,0xc8,0x34,0x03,0x80,0xff,0xff,0xff,0xff,0xff,0xff,0x1f,
 0x4c,0x00,0x00,0x00,0x00,0x00,0xc6,0x18,0x10,0x1b,0x03,0x00,0x00,0x04,0x04,
 0x82,0x81,0x01,0x63,0x0c,0x8c,0x01,0x00,0x00,0x00,0x30,0x06,0x06,0x18,0x18,
 0x03,0x63,0x63,0x63,0x00,0x00,0x00,0x00,0x00,0x00,0x00,0x00,0x00,0x00,0x18,
 0x03,0x06,0x46,0x00,0x00,0x00,0x60,0x0c,0x60,0xfc,0x1b,0x01,0x00,0x00,0x00,
 0x00,0x00,0x00,0x00,0x00,0x0c,0x00,0xfc,0x1f,0x00,0x00,0x86,0x18,0x38,0x13,
 0x03,0xfe,0x0f,0x0c,0xc4,0x83,0x81,0x81,0x49,0x0c,0x8c,0x05,0x00,0xff,0x07,
 0x10,0x06,0x06,0x18,0x10,0x03,0x62,0x43,0x62,0x00,0x00,0x00,0x00,0x00,0x00,
 0x00,0x00,0xfc,0x1f,0x98,0x03,0x06,0x46,0x00,0xe0,0xff,0x40,0x0c,0x30,0xc1,
 0x18,0x01,0x00,0x00,0x00,0x00,0x00,0x00,0x00,0x00,0x06,0x00,0x00,0x00,0x00,
 0x00,0x86,0x99,0x19,0x33,0x03,0x00,0x00,0x0c,0x42,0x83,0x81,0xc1,0xc8,0x0c,
 0x8c,0x05,0x00,0x00,0x00,0x08,0x0e,0x06,0x18,0x30,0x33,0x66,0x43,0x66,0x00,
 0x00,0x00,0x00,0x00,0x00,0x00,0x00,0x00,0x00,0x98,0x01,0x06,0x26,0x00,0x00,
 0x00,0xc0,0xcc,0x18,0xc1,0x98,0x00,0x00,0x00,0x00,0x00,0x00,0x00,0x00,0x00,
 0x1f,0x00,0x00,0x00,0x00,0x00,0x86,0x8f,0xb1,0xf3,0x01,0x00,0x00,0x98,0x61,
 0x83,0x01,0xe1,0xcf,0x07,0x1e,0x07,0x00,0x00,0x00,0x1e,0x1f,0x02,0x18,0xf0,
 0x31,0x3e,0x76,0x3e,0x00,0x00,0x00,0x1e,0x00,0x00,0x00,0x00,0x00,0x00,0xf8,
 0x00,0x06,0x3c,0x00,0x00,0x00,0xc0,0xc7,0xfc,0xe1,0xf1,0x00,0x00,0x00,0x00,
 0xc0,0x03,0x00,0x00,0x00,0x00,0x00,0x00,0x00,0xe0,0x03,0x04,0x06,0xe0,0xc0,
 0x00,0x00,0x00,0x70,0x20,0x85,0x00,0x01,0x00,0x03,0x00,0x00,0x00,0x00,0x00,
 0x00,0x00,0x02,0x18,0xc0,0x00,0x18,0x1c,0x18,0x00,0x00,0x00,0x5e,0x7c,0x00,
 0x00,0x00,0x00,0x00,0x0c,0x00,0x07,0x00,0x00,0x00,0x00,0x00,0x03,0x00,0x00,
 0x00,0x00,0x00,0x00,0x00,0xc0,0x0b,0x00,0x00,0x00,0x00,0x00,0x00,0x00,0x20,
 0x06,0x0c,0x00,0x00,0x00,0x00,0x00,0x00,0x00,0xe0,0xc7,0x00,0x03,0x00,0x00,
 0x00,0x00,0x00,0x00,0x00,0x00,0x00,0x03,0x18,0x00,0x00,0x00,0x00,0x00,0x00,
 0x00,0x00,0x43,0x4c,0x00,0x00,0x00,0x00,0x00,0x0c,0x00,0x03,0x00,0x00,0x00,
 0x00,0x00,0x00,0x00,0x00,0x00,0x00,0x00,0x00,0x00,0x60,0x08,0x00,0x00,0x00,
 0x00,0x00,0x00,0x00,0x70,0x06,0x08,0x00,0x00,0x00,0x00,0x00,0x00,0x00,0x00,
 0x40,0x00,0x03,0x00,0x00,0x00,0x00,0x00,0x00,0x00,0x00,0x00,0x03,0x18,0x00,
 0x00,0x00,0x00,0x00,0x00,0x00,0x00,0x43,0x60,0x00,0x00,0x00,0x00,0x00,0x0c,
 0x00,0x03,0x00,0x00,0x00,0x00,0x00,0x00,0x00,0x00,0x00,0x00,0x00,0x00,0x00,
 0x60,0x08,0x00,0x00,0x00,0x00,0x00,0x00,0x00,0x70,0x06,0x18,0x00,0x00,0x00,
 0x00,0x00,0x00,0x00,0x00,0x60,0x00,0x02,0x00,0x00,0x00,0x00,0x00,0x00,0x00,
 0x00,0x00,0x01,0x38,0x00,0x00,0x00,0x00,0x00,0x00,0x00,0x00,0x63,0x70,0x00,
 0x00,0x00,0x00,0x00,0x0c,0x00,0x03,0x00,0x00,0x00,0x00,0x00,0x00,0x00,0x00,
 0x00,0x00,0x00,0x00,0x00,0x60,0x0c,0x00,0x00,0x00,0x00,0x00,0x00,0x00,0x00,
 0x06,0x10,0x00,0x00,0x00,0x00,0x00,0x00,0x00,0x00,0x20,0x00,0x06,0x00,0x00,
 0x00,0x00,0x00,0x00,0x00,0x00,0x80,0x01,0x30,0x00,0x00,0x00,0x00,0x00,0x00,
 0x00,0x80,0xff,0xc1,0x00,0x00,0x00,0x00,0x00,0x00,0x00,0x03,0x00,0x00,0x00,
 0x00,0x00,0x00,0x00,0x00,0x00,0x00,0x00,0x00,0x00,0xf0,0x3f,0x00,0x00,0x00,
 0x00,0x00,0x00,0x00,0x00,0x07,0x00,0x00,0x00,0x00,0x00,0x00,0x00,0x00,0x00,
 0x00,0x00,0x04,0x00,0x00,0x00,0x00,0x00,0x00,0x00,0x00,0x80,0x00,0x30,0x00,
 0x00,0x00,0x00,0x00,0x00,0x00,0x00,0x63,0xcc,0x00,0x00,0x00,0x00,0x00,0x00,
 0x00,0x03,0x00,0x00,0x00,0x00,0x00,0x00,0x00,0x00,0x00,0x00,0x00,0x00,0x00,
 0x60,0x0c,0x00,0x00,0x00,0x00,0x00,0x00,0x00,0x00,0x03,0x00,0x00,0x00,0x00,
 0x00,0x00,0x00,0x00,0x00,0x00,0x00,0x0c,0x00,0x00,0x00,0x00,0x00,0x00,0x00,
 0x00,0xc0,0x00,0x30,0x00,0x00,0x00,0x00,0x00,0x00,0x00,0x00,0x63,0x7c,0x00,
 0x00,0x00,0x00,0x00,0x00,0x00,0x03,0x00,0x00,0x00,0x00,0x00,0x00,0x00,0x00,
 0x00,0x00,0x00,0x00,0x00,0x60,0x0c,0x00,0x00,0x00,0x00,0x00,0x00,0x00,0x80,
 0x01,0x00,0x00,0x00,0x00,0x00,0x00,0x00,0x00,0x00,0x00,0x00,0x18,0x00,0x00,
 0x00,0x00,0x00,0x00,0x00,0x00,0x60,0x00,0x30,0x00,0x00,0x00,0x00,0x00,0x00,
 0x00,0x00,0x63,0x00,0x00,0x00,0x00,0x00,0x00,0x00,0x80,0x01,0x00,0x00,0x00,
 0x00,0x00,0x00,0x00,0x00,0x00,0x00,0x00,0x00,0x00,0x60,0x0c,0x00,0x00,0x00,
 0x00,0x00,0x00,0x00,0xc0,0x04,0x00,0x00,0x00,0x00,0x00,0x00,0x00,0x00,0x00,
 0x00,0x00,0x00,0x00,0x00,0x00,0x00,0x00,0x00,0x00,0x00,0x00,0x00,0x60,0x00,
 0x00,0x00,0x00,0x00,0x00,0x00,0x00,0x63,0x01,0x00,0x00,0x00,0x00,0x00,0x00,
 0x80,0x01,0x00,0x00,0x00,0x00,0x00,0x00,0x00,0x00,0x00,0x00,0x00,0x00,0x00,
 0x60,0x2c,0x00,0x00,0x00,0x00,0x00,0x00,0x00,0x60,0x04,0x00,0x00,0x00,0x00,
 0x00,0x00,0x00,0x00,0x00,0x00,0x00,0x00,0x00,0x00,0x00,0x00,0x00,0x00,0x00,
 0x00,0x00,0x00,0x60,0x00,0x00,0x00,0x00,0x00,0x00,0x00,0x00,0x63,0x01,0x00,
 0x00,0x00,0x00,0x00,0x00,0x80,0x01,0x00,0x00,0x00,0x00,0x00,0x00,0x00,0x00,
 0x00,0x00,0x00,0x00,0x00,0x60,0x2c,0x00,0x00,0x00,0x00,0x00,0x00,0x00,0xf0,
 0x07,0x00,0x00,0x00,0x00,0x00,0x00,0x00,0x00,0x00,0x00,0x00,0x00,0x00,0x00,
 0x00,0x00,0x00,0x00,0x00,0x00,0x00,0x00,0x60,0x00,0x00,0x00,0x00,0x00,0x00,
 0x00,0x80,0xc7,0x01,0x00,0x00,0x00,0x00,0x00,0x00,0xc0,0x00,0x00,0x00,0x00,
 0x00,0x00,0x00,0x00,0x00,0x00,0x00,0x00,0x00,0x00,0xf0,0x38,0x00,0x00,0x00,
 0x00,0x00,0x00,0x00,0x00,0x00,0x00,0x00,0x00,0x00,0x00,0x00,0x00,0x00,0x00,
 0x00,0x00,0x00,0x00,0x00,0x00,0x00,0x00,0x00,0x00,0x00,0x00,0x00,0xc0,0x00,
 0x00,0x00,0x00,0x00,0x00,0x00,0x00,0x00,0x00,0x00,0x00,0x00,0x00,0x00,0x00,
 0xc0,0x00,0x00,0x00,0x00,0x00,0x00,0x00,0x00,0x00,0x00,0x00,0x00,0x00,0x00,
 0x00,0x00,0x00,0x00,0x00,0x00,0x00,0x00,0x00,0x00,0x00,0x00,0x00,0x00,0x00,
 0x00,0x00,0x00,0x00,0x00,0x00,0x00,0x00,0x00,0x00,0x00,0x00,0x00,0x00,0x00,
 0x00,0x00,0x00,0xc0,0x00,0x00,0x00,0x00,0x00,0x00,0x00,0x00,0x00,0x00,0x00,
 0x00,0x00,0x00,0x00,0x00,0x60,0x00,0x00,0x00,0x00,0x00,0x00,0x00,0x00,0x00,
 0x00,0x00,0x00,0x00,0x00,0x00,0x00,0x00,0x00,0x00,0x00,0x00,0x00,0x00,0x00,
 0x00,0x00,0x00,0x00,0x00,0x00,0x00,0x00,0x00,0x00,0x00,0x00,0x00,0x00,0x00,
 0x00,0x00,0x00,0x00,0x00,0x00,0x00,0x00,0x80,0x01,0x00,0x00,0x00,0x00,0x00,
 0x00,0x00,0x00,0x00,0x00,0x00,0x00,0x00,0x00,0x00,0x60,0x00,0x00,0x00,0x00,
 0x00,0x00,0x00,0x00,0x00,0x00,0x00,0x00,0x00,0x00,0x00,0x00,0x00,0x00,0x00,
 0x00,0x00,0x00,0x00,0x00,0x00,0x00,0x00,0x00,0x00,0x00,0x00,0x00,0x00,0x00,
 0x00,0x00,0x00,0x00,0x00,0x00,0x00,0x00,0x00,0x00,0x00,0x00,0x00,0x80,0x01,
 0x00,0x00,0x00,0x00,0x00,0x00,0x00,0x00,0x00,0x00,0x00,0x00,0x00,0x00,0x00,
 0x30,0x00,0x00,0x00,0x00,0x00,0x00,0x00,0x00,0x00,0x00,0x00,0x00,0x00,0x00,
 0x00,0x00,0x00,0x00,0x00,0x00,0x00,0x00,0x00,0x00,0x00,0x00,0x00,0x00,0x00,
 0x00,0x00,0x00,0x00,0x00,0x00,0x00,0x00,0x00,0x00,0x00,0x00,0x00,0x00,0x00,
 0x00,0x00,0x00,0x00,0x03,0x00,0x00,0x00,0x00,0x00,0x00,0x00,0x00,0x00,0x00,
 0x00,0x00,0x00,0x00,0x00,0x10,0x00,0x00,0x00,0x00,0x00,0x00,0x00,0x00,0x00,
 0x00,0x00,0x00,0x00,0x00,0x00,0x00,0x00,0x00,0x00,0x00,0x00,0x00,0x00,0x00,
 0x00,0x00,0x00,0x00,0x00,0x00,0x00,0x00,0x00,0x00,0x00,0x00,0x00,0x00,0x00,
 0x00,0x00,0x00,0x00,0x00,0x00,0x00,0x00,0x00,0x06,0x00,0x00,0x00,0x00,0x00,
 0x00,0x00,0x00,0x00,0x00,0x00,0x00,0x00,0x00,0x00,0x18,0x00,0x00,0x00,0x00,
 0x00,0x00,0x00,0x00,0x00,0x00,0x00,0x00,0x00,0x00,0x00,0x00,0x00,0x00,0x00};
