#define noname_width 66
#define noname_height 17
static char noname_bits[] = {
 0x00,0x00,0x00,0x00,0x00,0x00,0x00,0x10,0x00,0x00,0x00,0x00,0x00,0x00,0x00,
 0x00,0xd8,0x01,0x0e,0xe0,0xc3,0x03,0x00,0x00,0x00,0x98,0x01,0x0f,0x20,0x66,
 0x06,0x00,0x00,0x00,0x88,0x01,0x0c,0x70,0x36,0x06,0x00,0x00,0x00,0x8c,0x01,
 0x0c,0x70,0x36,0x06,0x40,0x00,0x00,0x8c,0x01,0x0c,0x00,0x36,0x06,0xfe,0xff,
 0x0f,0x84,0x01,0x0c,0x00,0x67,0x06,0x33,0xc6,0x08,0x86,0x01,0x0c,0x00,0x63,
 0x07,0x33,0xc6,0x08,0x86,0x01,0x0c,0x80,0xc1,0x07,0x36,0xc6,0x08,0x82,0x01,
 0x0c,0xc0,0x04,0x06,0x1e,0xc6,0x08,0x82,0x01,0x0c,0x63,0x64,0x06,0x02,0xc6,
 0x08,0x83,0x01,0x3f,0xf3,0x27,0x03,0x7e,0xef,0x3f,0xc1,0x03,0x00,0x00,0xc0,
 0x00,0xe3,0x00,0x00,0x01,0x00,0x00,0x00,0x00,0x00,0xc1,0x00,0x80,0x01,0x00,
 0x00,0x00,0x00,0x00,0x63,0x00,0x80,0x00,0x00,0x00,0x00,0x00,0x00,0x3e,0x00,
 0x80,0x00,0x00};
