#define noname_width 394
#define noname_height 37
static char noname_bits[] = {
 0x00,0x00,0x00,0x00,0x00,0x00,0x00,0x00,0x00,0x00,0x0f,0xe0,0xe1,0xe0,0xe3,
 0x00,0xf8,0xf8,0x00,0x00,0x00,0x00,0x00,0x00,0x1e,0xf0,0xf1,0x83,0x01,0x00,
 0x00,0x00,0x00,0x00,0x00,0x00,0x00,0x00,0x00,0x00,0x00,0x00,0x00,0x00,0x00,
 0x00,0x00,0x00,0x00,0x00,0x00,0x00,0x00,0x00,0x00,0x00,0x00,0x00,0x00,0x80,
 0x19,0x30,0xf3,0x30,0xf3,0x00,0x88,0x89,0x01,0x00,0x00,0x00,0x00,0x00,0x33,
 0x30,0xf3,0x81,0x01,0x00,0x00,0x00,0x00,0x00,0x00,0x00,0x00,0x00,0x00,0x00,
 0x00,0x00,0x00,0x00,0x00,0x00,0x00,0x00,0x00,0x00,0x00,0x00,0x00,0x00,0x00,
 0x00,0x00,0x00,0x00,0x80,0x18,0x10,0xc3,0x30,0xc3,0x00,0x9c,0x9d,0x01,0x00,
 0x00,0x00,0x00,0x00,0x31,0x30,0x13,0xc0,0x01,0x00,0x00,0x00,0x00,0x00,0x00,
 0x00,0x00,0x00,0x00,0x00,0x00,0x00,0x00,0x00,0x00,0x00,0x00,0x00,0x00,0x00,
 0x00,0x00,0x00,0x00,0x00,0x00,0x00,0x00,0x00,0xc0,0x18,0x18,0xc3,0x30,0xc0,
 0x00,0x9c,0x9d,0x01,0x00,0x00,0x00,0x00,0x80,0x31,0x00,0x13,0xe0,0x01,0x00,
 0x00,0x00,0x00,0x00,0x00,0x00,0x00,0x00,0x00,0x00,0x00,0x00,0x00,0x00,0x00,
 0x00,0x00,0x00,0x00,0x00,0x00,0x00,0x00,0x00,0x00,0x00,0x00,0x00,0x00,0xc0,
 0x18,0x18,0xc3,0xf8,0xc1,0x00,0x80,0x81,0x01,0x00,0x00,0x00,0x00,0x80,0x31,
 0x80,0xf1,0xa1,0x01,0x00,0x00,0x00,0x00,0x00,0x00,0x00,0x00,0x00,0x00,0x00,
 0x00,0x00,0x00,0x00,0x00,0x00,0x00,0x00,0x00,0x00,0x00,0x00,0x00,0x00,0x00,
 0x00,0x00,0x00,0x00,0xc0,0x18,0x18,0xc3,0x38,0xc3,0x00,0xc0,0xc1,0x01,0x00,
 0x00,0x00,0x00,0x80,0x31,0xe0,0x31,0xb3,0x01,0x00,0x00,0x00,0x00,0x00,0x00,
 0x00,0x00,0x00,0x00,0x00,0x00,0x00,0x00,0x00,0x00,0x00,0x00,0x00,0x00,0x00,
 0x00,0x00,0x00,0x00,0x00,0x00,0x00,0x00,0x00,0xc0,0x18,0x18,0xc3,0x18,0xc3,
 0x00,0xc0,0xc0,0x00,0x00,0x00,0x00,0x00,0x80,0x31,0x00,0x03,0x93,0x01,0x00,
 0x00,0x00,0x00,0x00,0x00,0x00,0x00,0x00,0x00,0x00,0x00,0x00,0x00,0x00,0x00,
 0x00,0x00,0x00,0x00,0x00,0x00,0x00,0x00,0x00,0x00,0x00,0x00,0x00,0x00,0xc0,
 0x18,0x18,0xc3,0x18,0xc3,0x00,0x60,0x60,0x00,0x00,0x00,0x00,0x00,0x80,0x31,
 0x10,0x13,0xfb,0x07,0x00,0x00,0x00,0x00,0x00,0x00,0x00,0x00,0x00,0x3e,0x00,
 0x00,0x00,0x00,0x00,0x00,0x00,0x00,0x00,0x00,0x00,0x00,0x00,0x00,0x00,0x00,
 0x00,0x00,0x00,0x00,0x80,0x18,0x10,0xc3,0x10,0xc3,0x00,0x30,0x31,0x01,0x00,
 0x3e,0x00,0x00,0x00,0x31,0x38,0x1b,0x83,0x01,0x00,0x00,0x00,0x00,0x00,0x00,
 0x00,0x00,0x00,0x26,0x00,0x00,0x00,0x00,0x00,0x00,0x00,0x00,0x00,0x00,0x00,
 0x00,0x00,0x00,0x00,0x00,0x00,0x00,0x00,0x00,0x80,0x99,0x31,0xc3,0x30,0xc3,
 0x00,0x18,0x19,0x01,0x00,0x26,0x00,0x00,0x00,0x33,0x1b,0x1b,0x83,0x01,0x20,
 0x00,0x00,0x04,0x00,0x00,0x00,0x20,0x08,0x30,0x00,0x00,0x00,0x00,0x00,0x00,
 0x00,0x00,0x00,0x00,0x00,0xfc,0x01,0x00,0x00,0xf0,0x1f,0x00,0x00,0x00,0x80,
 0x8f,0xf1,0xf1,0xf3,0xf1,0x03,0xfc,0xfd,0x01,0x00,0x30,0x00,0x00,0x00,0x1f,
 0xb3,0xb3,0xc1,0x03,0x30,0x00,0x00,0x06,0x00,0x00,0x38,0x60,0x18,0x38,0x38,
 0x00,0x00,0x00,0x00,0x00,0x00,0x00,0x00,0x00,0x00,0x30,0x07,0x00,0x00,0xc0,
 0x18,0x00,0x00,0x00,0x00,0x06,0xc0,0x00,0xc0,0x00,0x00,0x00,0x00,0x00,0x00,
 0x38,0x00,0x00,0x00,0x0c,0xe0,0xe0,0x00,0x00,0x10,0x00,0x00,0x02,0x00,0x00,
 0x30,0x40,0x10,0x60,0x30,0x00,0x00,0x00,0x00,0x00,0x00,0x00,0x00,0x00,0x00,
 0x18,0x06,0x00,0x00,0x60,0x10,0x00,0x00,0x00,0x00,0x00,0x00,0x00,0x00,0x00,
 0x00,0x00,0x00,0x00,0x00,0x60,0x00,0x00,0x00,0x00,0x00,0x00,0x00,0x00,0x18,
 0x00,0x00,0x03,0x00,0x00,0x30,0xc0,0x30,0x66,0x30,0x00,0x00,0x00,0x00,0x00,
 0x00,0x00,0x00,0x00,0x00,0x18,0x06,0x00,0x00,0x60,0x10,0x00,0x00,0x00,0x00,
 0x00,0x00,0x00,0x00,0x00,0x00,0x00,0x00,0x00,0x00,0x66,0x00,0x00,0x00,0x00,
 0x00,0x00,0x00,0x00,0x08,0x00,0x00,0x01,0x00,0x00,0x30,0x80,0x20,0x3e,0x30,
 0x00,0x00,0x00,0x00,0x00,0x00,0x00,0x00,0x00,0x00,0x18,0x06,0x00,0x00,0x60,
 0x12,0x00,0x00,0x00,0x00,0x00,0x00,0x00,0x00,0x00,0x00,0x00,0x00,0x00,0x00,
 0x3e,0x00,0x00,0x00,0x00,0x00,0x00,0x00,0x00,0x0c,0x00,0x80,0x01,0x00,0x00,
 0x30,0x80,0x61,0x00,0x30,0x00,0x00,0x00,0x00,0x00,0x00,0x00,0x00,0x00,0x00,
 0x18,0x03,0x00,0x00,0x60,0x83,0x3b,0x00,0x00,0x00,0x00,0x00,0x00,0x00,0x00,
 0x00,0x00,0x00,0x00,0xee,0x00,0x00,0x00,0x00,0x00,0x00,0x00,0x00,0x00,0x0c,
 0x77,0x80,0xf1,0xff,0xfc,0xf1,0x83,0x61,0x00,0xf0,0xe3,0xf3,0x7b,0x7c,0x7f,
 0x7c,0xfe,0xef,0xf3,0x03,0xfc,0x01,0xfe,0x0f,0xf0,0xc3,0x33,0xf0,0x7f,0x00,
 0x00,0x00,0x00,0x00,0x00,0x00,0x00,0x00,0x00,0xcf,0x00,0xe0,0xff,0x00,0x00,
 0x00,0x00,0x00,0x00,0x8c,0x67,0x80,0x61,0x8c,0x18,0x33,0x82,0x61,0x00,0x30,
 0x32,0x66,0x4f,0xce,0xc6,0xc6,0xcc,0x74,0x66,0x03,0x0c,0x00,0x00,0x00,0x30,
 0x43,0x33,0x00,0x00,0xc0,0xff,0xff,0xff,0xff,0xff,0x0f,0xfc,0xff,0x07,0xcd,
 0x00,0x00,0x00,0x80,0xff,0xff,0xff,0xff,0x1f,0x8c,0x66,0x80,0x61,0x8c,0x18,
 0x33,0x82,0x61,0x00,0x30,0x32,0x6c,0x7c,0xfe,0xc6,0x86,0xed,0xf4,0x67,0x00,
 0x0c,0x00,0x00,0x00,0x30,0x81,0x11,0x00,0x00,0x00,0x00,0x00,0x00,0x00,0x00,
 0x00,0x00,0x00,0x00,0x46,0x00,0x00,0x00,0x00,0x00,0x00,0x00,0x00,0x00,0x0c,
 0x23,0x80,0x61,0x8c,0x18,0x33,0x82,0x61,0x00,0x30,0x32,0x6c,0x78,0x06,0xc6,
 0x86,0xb9,0x37,0x60,0x00,0x0c,0x00,0xfe,0x0f,0x30,0x80,0x11,0xf0,0x7f,0x00,
 0x00,0x00,0x00,0x00,0x00,0x00,0x00,0x00,0x00,0x46,0x00,0xe0,0xff,0x00,0x00,
 0x00,0x00,0x00,0x00,0x0c,0x23,0x80,0x61,0x8c,0x18,0x33,0x82,0x61,0x00,0x30,
 0x32,0x6c,0xc4,0x06,0xc6,0x86,0xb9,0x33,0x60,0x00,0x06,0x00,0x00,0x00,0x18,
 0x80,0x09,0x00,0x00,0x00,0x00,0x00,0x00,0x00,0x00,0x00,0x00,0x00,0x00,0x26,
 0x00,0x00,0x00,0x00,0x00,0x00,0x00,0x00,0x00,0x0c,0x13,0x80,0x61,0x8c,0x18,
 0x33,0x82,0x61,0x00,0x30,0x72,0x66,0xcc,0x8e,0xc6,0xce,0x38,0x73,0x64,0x00,
 0x1f,0x00,0x00,0x00,0x7c,0x00,0x0f,0x00,0x00,0x00,0x00,0x00,0x00,0x00,0x00,
 0x00,0x00,0x00,0x00,0x3c,0x00,0x00,0x00,0x00,0x00,0x00,0x00,0x00,0x00,0x0c,
 0x1e,0x80,0xf1,0xfe,0xfb,0xf9,0x8f,0x61,0x00,0xf8,0xef,0xf3,0x7d,0x7c,0x7e,
 0x7c,0x10,0xe3,0xf3,0x01,0x00,0x00,0x00,0x00,0x00,0x00,0x00,0x00,0x00,0x00,
 0x00,0xfc,0xfc,0x78,0x00,0x00,0x70,0xf8,0x01,0x00,0x00,0x00,0x00,0x00,0x1e,
 0xf0,0xf1,0xe3,0x01,0x08,0x00,0x00,0x01,0x00,0x18,0x00,0x80,0x20,0x00,0x00,
 0x00,0x00,0x00,0x00,0x06,0x00,0x00,0x00,0x00,0x00,0x00,0x00,0x00,0x00,0x00,
 0x00,0x00,0x00,0x00,0x00,0x00,0x7c,0x7c,0xcc,0x00,0x00,0x78,0xf8,0x00,0x00,
 0x00,0x00,0x00,0x00,0x31,0x10,0xf3,0x31,0x03,0x18,0x00,0x00,0x03,0x00,0x18,
 0x00,0xc0,0x30,0x00,0x00,0x00,0x00,0x00,0x00,0x06,0x00,0x00,0x00,0x00,0x00,
 0x00,0x00,0x00,0x00,0x00,0x00,0x00,0x00,0x00,0x00,0x00,0x04,0x04,0xc4,0x00,
 0x00,0x60,0x08,0x00,0x00,0x00,0x00,0x00,0x00,0x21,0x38,0x13,0x10,0x03,0x10,
 0x00,0x00,0x02,0x00,0x18,0x00,0x40,0x10,0x00,0x00,0x00,0x00,0x00,0x00,0x06,
 0x00,0x00,0x00,0x00,0x00,0x00,0x00,0x00,0x00,0x00,0x00,0x00,0x00,0x00,0x00,
 0x00,0x04,0x04,0xc6,0x00,0x00,0x60,0x08,0x00,0x00,0x00,0x00,0x00,0x00,0x33,
 0x38,0x13,0x18,0x03,0x30,0x00,0x00,0x06,0x00,0x3c,0x00,0x60,0x18,0x00,0x00,
 0x00,0x00,0x00,0x00,0x0f,0x00,0x00,0x00,0x00,0x00,0x00,0x00,0x00,0x00,0x00,
 0x00,0x00,0x00,0x00,0x00,0x00,0x7c,0x7c,0xc6,0x00,0x00,0x60,0xf8,0x00,0x00,
 0x00,0x00,0x00,0x00,0x1f,0x00,0xf3,0x19,0x03,0x20,0x00,0x00,0x04,0x00,0x00,
 0x00,0x20,0x08,0x00,0x00,0x00,0x00,0x00,0x00,0x00,0x00,0x00,0x00,0x00,0x00,
 0x00,0x00,0x00,0x00,0x00,0x00,0x00,0x00,0x00,0x00,0x00,0xcc,0xcc,0xc6,0x00,
 0x00,0x60,0x98,0x01,0x00,0x00,0x00,0x00,0x00,0x1e,0x80,0x33,0x1b,0x03,0x00,
 0x00,0x00,0x00,0x00,0x00,0x00,0x00,0x00,0x00,0x00,0x00,0x00,0x00,0x00,0x00,
 0x00,0x00,0x00,0x00,0x00,0x00,0x00,0x00,0x00,0x00,0x00,0x00,0x00,0x00,0x00,
 0x00,0xc0,0xc0,0xc6,0x00,0x00,0x60,0x80,0x01,0x00,0x00,0x00,0x00,0x00,0x3b,
 0x80,0x01,0x1b,0x03,0x00,0x00,0x00,0x00,0x00,0x00,0x00,0x00,0x00,0x00,0x00,
 0x00,0x00,0x00,0x00,0x00,0x00,0x00,0x00,0x00,0x00,0x00,0x00,0x00,0x00,0x00,
 0x00,0x00,0x00,0x00,0x00,0x00,0xc4,0xc4,0xc6,0x00,0x00,0x60,0x88,0x01,0x00,
 0x00,0x00,0x00,0x80,0x31,0xc0,0x10,0x1b,0x03,0x00,0x00,0x00,0x00,0x00,0x00,
 0x00,0x00,0x00,0x00,0x00,0x00,0x00,0x00,0x00,0x00,0x00,0x00,0x00,0x00,0x00,
 0x00,0x00,0x00,0x00,0x00,0x00,0x00,0x00,0x00,0x00,0x00,0xc6,0xc6,0xc4,0x00,
 0x00,0x60,0x8c,0x01,0x00,0x00,0x00,0x00,0x80,0x21,0x60,0x1a,0x13,0x03,0x00,
 0x00,0x00,0x00,0x00,0x00,0x00,0x00,0x00,0x00,0x00,0x00,0x00,0x00,0x00,0x00,
 0x00,0x00,0x00,0x00,0x00,0x00,0x00,0x00,0x00,0x00,0x00,0x00,0x00,0x00,0x00,
 0x00,0xc6,0xc6,0xcc,0x00,0x00,0x60,0x8c,0x01,0x00,0x00,0x00,0x00,0x80,0x21,
 0x33,0x1a,0x33,0x03,0x00,0x00,0x00,0x00,0x00,0x00,0x00,0x00,0x00,0x00,0x00,
 0x00,0x00,0x00,0x00,0x00,0x00,0x00,0x00,0x00,0x00,0x00,0x00,0x00,0x00,0x00,
 0x00,0x00,0x00,0x00,0x00,0x00,0x6c,0x6c,0x7c,0x00,0x00,0xf8,0xd9,0x00,0x00,
 0x00,0x00,0x00,0x00,0x3b,0xff,0xb3,0xf1,0x01,0x00,0x00,0x00,0x00,0x00,0x00,
 0x00,0x00,0x00,0x00,0x00,0x00,0x00,0x00,0x00,0x00,0x00,0x00,0x00,0x00,0x00,
 0x00,0x00,0x00,0x00,0x00,0x00,0x00,0x00,0x00,0x00,0x00,0x38,0x38,0x30,0x00,
 0x00,0x00,0x70,0x00,0x00,0x00,0x00,0x00,0x00,0x0e,0x04,0xe0,0xc0,0x00,0x00,
 0x00,0x00,0x00,0x00,0x00,0x00,0x00,0x00,0x00,0x00,0x00,0x00,0x00,0x00,0x00,
 0x00,0x00,0x00,0x00,0x00,0x00,0x00,0x00,0x00,0x00,0x00,0x00,0x00,0x00,0x00,
 0x00,0x00,0x00,0x00,0x00,0x00,0x00,0x00,0x00,0x00,0x00,0x00,0x00,0x00,0x00,
 0x06,0x00,0x00,0x00,0x00,0x00,0x00,0x00,0x00,0x00,0x00,0x00,0x00,0x00,0x00,
 0x00,0x00,0x00,0x00,0x00,0x00,0x00,0x00,0x00,0x00,0x00,0x00,0x00,0x00,0x00,
 0x00,0x00,0x00,0x00,0x00,0x00,0x00,0x00,0x00,0x00,0x00,0x00,0x00,0x00,0x00,
 0x00,0x00,0x00,0x00,0x00,0x02,0x00,0x00,0x00,0x00,0x00,0x00,0x00,0x00,0x00,
 0x00,0x00,0x00,0x00,0x00,0x00,0x00,0x00,0x00,0x00,0x00,0x00,0x00,0x00,0x00,
 0x00,0x00,0x00,0x00,0x00,0x00,0x00,0x00,0x00,0x00,0x00,0x00,0x00,0x00,0x00,
 0x00,0x00,0x00,0x00,0x00,0x00,0x00,0x00,0x00,0x00,0x01,0x00,0x00,0x00,0x00,
 0x00,0x00,0x00,0x00,0x00,0x00,0x00,0x00,0x00,0x00,0x00,0x00,0x00,0x00,0x00,
 0x00,0x00,0x00,0x00,0x00};
