#define noname_width 102
#define noname_height 17
static char noname_bits[] = {
 0x00,0x00,0x00,0x00,0x00,0x00,0x00,0x00,0x00,0x04,0x00,0x00,0x3c,0xe7,0x00,
 0x00,0x00,0x00,0x00,0x00,0x78,0x00,0x06,0x00,0x00,0x26,0xc6,0x00,0x00,0x00,
 0x00,0x00,0x00,0x78,0x01,0x06,0x00,0x00,0x34,0xc6,0x00,0x00,0x00,0x00,0x00,
 0x00,0x0c,0x01,0x02,0x00,0x00,0x30,0xc6,0x00,0x00,0x00,0x00,0x00,0x00,0x0c,
 0x01,0x03,0x00,0x00,0x18,0xc6,0x00,0x00,0x00,0x00,0x00,0x00,0x8c,0x01,0x03,
 0x00,0x00,0x2c,0xc6,0x0f,0xf8,0x7f,0x7c,0x3c,0x0f,0xfe,0x07,0xe1,0xf1,0xf1,
 0x3f,0xc6,0x18,0x30,0x46,0x6c,0xa6,0x09,0x8c,0x81,0x31,0x39,0x9b,0x01,0xc6,
 0x18,0x30,0x46,0x70,0xbe,0x0f,0x8c,0x81,0xf1,0xf9,0x0f,0x00,0xc6,0xd8,0x37,
 0x46,0x5c,0x3c,0x0f,0x8c,0x81,0xe0,0x19,0x0c,0x00,0xc6,0x18,0x30,0x46,0x4e,
 0xe3,0x18,0x8c,0x85,0x10,0x1b,0x0c,0x00,0xc6,0x18,0x30,0x46,0x66,0xe7,0x19,
 0x8c,0xc5,0x30,0x3b,0x1a,0x01,0xcf,0x0f,0x78,0xff,0xfd,0xbf,0x0f,0x1e,0x47,
 0xf0,0xf1,0xf1,0x00,0x00,0x00,0x00,0x00,0x00,0x00,0x00,0x00,0x40,0x00,0x00,
 0x00,0x00,0x00,0x00,0x00,0x00,0x00,0x00,0x00,0x00,0x60,0x00,0x00,0x00,0x00,
 0x00,0x00,0x00,0x00,0x00,0x00,0x00,0x00,0x20,0x00,0x00,0x00,0x00,0x00,0x00,
 0x00,0x00,0x00,0x00,0x00,0x00,0x20,0x00,0x00,0x00,0x00};
