#define noname_width 98
#define noname_height 33
static char noname_bits[] = {
 0x00,0x00,0x00,0x00,0xc0,0x01,0x00,0x00,0x00,0x00,0x00,0x00,0x00,0x00,0x00,
 0x00,0x00,0xe0,0x01,0x00,0x00,0x00,0x00,0x00,0x00,0x00,0x00,0x00,0x00,0x00,
 0x80,0x01,0x00,0x00,0x00,0x00,0x00,0x00,0x00,0x00,0x00,0x00,0x00,0x80,0x01,
 0x00,0x00,0x00,0x00,0x00,0x00,0x00,0x00,0x00,0x00,0x00,0x80,0x01,0x00,0x00,
 0x00,0x00,0x00,0x00,0x00,0x00,0x00,0x00,0x00,0x80,0x01,0x00,0x00,0x00,0x00,
 0x00,0x00,0x00,0x00,0x00,0x00,0x00,0x80,0x01,0x00,0x00,0x00,0x00,0x00,0x00,
 0x00,0x00,0x00,0x00,0x00,0x80,0x01,0x00,0x00,0x00,0x00,0x00,0x00,0x00,0x00,
 0x00,0x00,0x00,0x80,0x01,0x00,0x00,0x00,0x00,0x00,0xc0,0x03,0x00,0x00,0x00,
 0x00,0x80,0x01,0x00,0x00,0x00,0x00,0x00,0x60,0x02,0xfc,0x07,0x00,0x00,0xe0,
 0x07,0xf8,0x02,0x00,0x01,0x00,0x40,0x03,0x30,0x06,0x00,0x00,0x00,0x00,0x8c,
 0x03,0x80,0x03,0x00,0x00,0x03,0x18,0x04,0x00,0x00,0x00,0x00,0x06,0x03,0x80,
 0x03,0x00,0x80,0x01,0x18,0x04,0x00,0x00,0x00,0x00,0x03,0x03,0xc0,0x03,0x00,
 0xc0,0x02,0x98,0x04,0x00,0x00,0x00,0x80,0x03,0x01,0x40,0x03,0x00,0xe0,0x03,
 0xd8,0x00,0x00,0x00,0x00,0x80,0x01,0x00,0x20,0x83,0xc7,0x1d,0x00,0xfc,0x00,
 0xfc,0x1f,0x00,0x80,0x01,0x60,0x30,0xc3,0xec,0x19,0x00,0xcc,0x00,0x00,0x00,
 0xf0,0x9f,0x01,0x60,0xf0,0xc3,0xac,0x19,0x00,0x4c,0x00,0x00,0x00,0x00,0x80,
 0x80,0x20,0x18,0x63,0xcc,0x08,0x00,0x0c,0x00,0xfc,0x1f,0x00,0x80,0x81,0x3c,
 0x08,0x63,0xce,0x08,0x00,0x06,0x00,0x00,0x00,0x00,0x80,0x41,0x34,0x04,0x67,
 0xc6,0x04,0x00,0x1f,0x00,0x00,0x00,0x00,0x00,0x33,0x36,0x8f,0xef,0x83,0x07,
 0x00,0x00,0x00,0x00,0x00,0xe0,0x03,0x0e,0x52,0x00,0x30,0x00,0x00,0x00,0x00,
 0x00,0x00,0x00,0x20,0x06,0x00,0x7e,0x00,0x30,0x00,0x00,0x00,0x00,0x00,0x00,
 0x00,0x70,0x06,0x00,0x00,0x00,0x30,0x00,0x00,0x00,0x00,0x00,0x00,0x00,0x70,
 0x06,0x00,0x00,0x00,0x30,0x00,0x00,0x00,0x00,0x00,0x00,0x00,0x00,0x06,0x00,
 0x00,0x00,0x00,0x00,0x00,0x00,0x00,0x00,0x00,0x00,0x00,0x07,0x00,0x00,0x00,
 0x00,0x00,0x00,0x00,0x00,0x00,0x00,0x00,0x00,0x03,0x00,0x00,0x00,0x00,0x00,
 0x00,0x00,0x00,0x00,0x00,0x00,0x80,0x01,0x00,0x00,0x00,0x00,0x00,0x00,0x00,
 0x00,0x00,0x00,0x00,0xc0,0x04,0x00,0x00,0x00,0x00,0x00,0x00,0x00,0x00,0x00,
 0x00,0x00,0x60,0x04,0x00,0x00,0x00,0x00,0x00,0x00,0x00,0x00,0x00,0x00,0x00,
 0xf0,0x07,0x00,0x00,0x00,0x00,0x00,0x00,0x00};
