#define noname_width 29
#define noname_height 12
static char noname_bits[] = {
 0x00,0x01,0x00,0x00,0x80,0x03,0x00,0x00,0x80,0x03,0x00,0x00,0xc0,0x03,0x00,
 0x00,0x40,0x03,0x00,0x00,0x20,0x03,0x00,0x00,0x30,0x03,0xfc,0x1f,0xf0,0x03,
 0x00,0x00,0x18,0x03,0x00,0x00,0x08,0x03,0xfc,0x1f,0x04,0x07,0x00,0x00,0x8f,
 0x0f,0x00,0x00};
