#define noname_width 358
#define noname_height 35
static char noname_bits[] = {
 0x00,0x00,0x0c,0x04,0x00,0x00,0x00,0x00,0x00,0x00,0x00,0x00,0x00,0xc0,0x40,
 0x00,0x00,0x00,0x00,0x00,0x00,0x00,0x00,0x00,0x00,0x00,0x00,0x00,0x00,0x00,
 0x00,0x00,0x00,0x00,0x00,0x00,0x00,0x00,0x00,0x00,0x00,0x00,0x00,0x00,0x00,
 0x02,0x00,0x16,0x06,0x00,0xc0,0x03,0x00,0x00,0x00,0x00,0x00,0x00,0x60,0x61,
 0x00,0x00,0x1e,0x00,0x00,0x00,0x00,0x00,0x00,0x00,0x00,0x00,0x00,0x00,0x00,
 0x00,0x00,0x00,0x00,0x00,0x00,0x00,0x00,0x00,0x00,0x00,0x00,0x00,0x00,0x00,
 0xfe,0x3c,0xf6,0x07,0x00,0xc0,0x03,0x1f,0x1e,0x00,0x00,0xe0,0xc3,0x61,0x7f,
 0x00,0x00,0x1e,0xf8,0xf8,0x00,0x00,0x00,0x7c,0x78,0x80,0x07,0x06,0x00,0x00,
 0x00,0x00,0x00,0x00,0x00,0x00,0x00,0x00,0x00,0x00,0x00,0x00,0x00,0x00,0x00,
 0x7e,0x66,0x22,0x03,0x00,0x60,0x00,0x31,0x31,0x00,0x02,0x20,0xe6,0x21,0x32,
 0x00,0x00,0x03,0x98,0x89,0x01,0x00,0x00,0xc4,0xc4,0x40,0x0c,0x06,0x00,0x00,
 0x00,0x00,0x00,0x00,0x00,0x00,0x00,0x00,0x00,0x00,0x00,0x00,0x00,0x00,0x00,
 0x62,0x63,0x22,0x01,0x00,0x60,0x80,0x33,0x21,0x00,0x02,0x70,0x86,0x21,0x12,
 0x00,0x00,0x03,0x98,0x9d,0x01,0x00,0x00,0xce,0x84,0x40,0x08,0x07,0x00,0x00,
 0x00,0x00,0x00,0x00,0x00,0x00,0x00,0x00,0x00,0x00,0x00,0x00,0x00,0x00,0x00,
 0x20,0x63,0xb6,0x01,0x00,0x60,0x80,0x33,0x33,0x00,0x02,0x70,0x86,0x61,0x1b,
 0x00,0x00,0x03,0x80,0x9d,0x01,0x00,0x00,0xce,0xcc,0xc0,0x8c,0x07,0x80,0x00,
 0x00,0x00,0x00,0x00,0x00,0x00,0x00,0x00,0x00,0x00,0x00,0x00,0x00,0x00,0x00,
 0x10,0x63,0xd6,0x00,0xe0,0xf3,0x01,0x30,0x1f,0x00,0x02,0x00,0x86,0x61,0x0d,
 0x00,0x9f,0x0f,0xc0,0x80,0x01,0x00,0x00,0xc0,0x7c,0xc0,0x87,0x06,0xfc,0x7f,
 0x3e,0xff,0x8f,0x07,0x00,0x00,0x00,0x00,0x00,0x00,0x00,0x00,0x00,0x00,0x00,
 0x18,0x66,0x4c,0x0e,0x30,0x66,0x00,0x38,0x1e,0x00,0x02,0x00,0x87,0xc1,0xe4,
 0x80,0x31,0x03,0xf0,0xc0,0x01,0xff,0x07,0xe0,0x78,0x80,0xc7,0x06,0x66,0x6c,
 0x36,0xc6,0xc8,0x04,0x00,0x00,0x00,0x00,0x00,0x00,0x00,0x00,0x00,0x00,0x00,
 0x18,0x76,0x60,0x0b,0x30,0x6c,0x00,0x18,0x3b,0xf0,0x7f,0x00,0x83,0x01,0xb6,
 0x80,0x61,0x03,0x80,0xc1,0x00,0x00,0x00,0x60,0xec,0xc0,0x4e,0x06,0x66,0x0c,
 0x38,0xc6,0xc8,0x07,0x00,0x00,0x00,0x00,0x00,0x00,0x00,0x00,0x00,0x00,0x00,
 0x08,0x7c,0x30,0x11,0x30,0x6c,0x00,0x8c,0x31,0xf0,0x7f,0x80,0x81,0x01,0x13,
 0x81,0x61,0x03,0x88,0x61,0x00,0x00,0x00,0x30,0xc6,0x60,0xec,0x1f,0x6c,0x0c,
 0x2e,0xc6,0x88,0x07,0x00,0x00,0x00,0x00,0x00,0x00,0x00,0x00,0x00,0x00,0x00,
 0x0c,0x60,0x30,0x11,0x30,0x6c,0x00,0xa6,0x21,0x00,0x02,0xc0,0x84,0x01,0x13,
 0x81,0x61,0x03,0x9c,0x31,0x01,0xff,0x07,0x98,0x86,0x60,0x08,0x06,0x3c,0x0c,
 0xa7,0xc6,0x48,0x0c,0x00,0x00,0x00,0x00,0x00,0x00,0x00,0x00,0x00,0x00,0x00,
 0x0c,0x66,0x18,0x11,0x70,0x66,0x00,0xa3,0x21,0x00,0x02,0x60,0x84,0x81,0x11,
 0x81,0x33,0x03,0x8c,0x19,0x01,0x00,0x00,0x8c,0x86,0x6c,0x08,0x06,0x04,0x0c,
 0xb3,0xc6,0xc8,0x0c,0x00,0x00,0x00,0x00,0x00,0x00,0x00,0x00,0x00,0x00,0x01,
 0x0c,0x32,0x08,0x0b,0xe0,0xf3,0x80,0x3f,0x3b,0x00,0x02,0xf0,0xe7,0x87,0xb0,
 0x00,0x9f,0x07,0xd8,0xfd,0x01,0x00,0x00,0xfe,0xec,0xcc,0x0e,0x0f,0xfc,0x3e,
 0xfe,0xef,0xff,0x07,0x00,0x00,0x00,0x00,0x00,0x00,0x00,0x00,0x00,0x80,0x1d,
 0x08,0x0c,0x0c,0x0e,0x00,0x00,0x00,0x00,0x0e,0x00,0x02,0x00,0x00,0xc0,0xe0,
 0x00,0x00,0x00,0x70,0x00,0x00,0x00,0x00,0x00,0x38,0x80,0x03,0x00,0xc6,0x01,
 0x00,0x00,0x00,0x00,0x00,0x00,0xe0,0x00,0x3e,0x3c,0x00,0x00,0x00,0x80,0x19,
 0x00,0x00,0x00,0x00,0x00,0x00,0x00,0x00,0x00,0x00,0x02,0x00,0x00,0x00,0x00,
 0x00,0x00,0x00,0x00,0x00,0x00,0x00,0x00,0x00,0x00,0x00,0x00,0x00,0x82,0x01,
 0x00,0x00,0x00,0x00,0x00,0x00,0xf0,0x00,0x62,0x66,0x00,0x00,0x00,0x80,0x18,
 0x00,0x00,0x00,0x00,0x00,0x00,0x00,0x00,0x00,0x00,0x00,0x00,0x00,0x00,0x00,
 0x00,0x00,0x00,0x00,0x00,0x00,0x00,0x00,0x00,0x00,0x00,0x00,0x00,0xc6,0x00,
 0x00,0x00,0x00,0x00,0x00,0x00,0xc0,0x00,0x67,0x63,0x00,0x00,0x00,0xc0,0x18,
 0x00,0x00,0x00,0x00,0x00,0x00,0x00,0x00,0x00,0x00,0x00,0x00,0x00,0x00,0x00,
 0x00,0x00,0x00,0x00,0x00,0x00,0x00,0x00,0x00,0x00,0x00,0x00,0x00,0x7c,0x00,
 0x00,0x00,0x00,0x00,0x00,0x00,0xc0,0x00,0x67,0x63,0x00,0x04,0x00,0xc0,0x18,
 0x00,0x00,0x00,0x00,0x00,0x00,0x00,0x00,0x00,0x00,0x00,0x00,0x00,0x00,0x00,
 0x00,0x00,0x00,0x00,0x00,0x00,0x00,0x00,0x00,0x00,0x00,0x00,0x00,0x00,0x00,
 0x00,0x00,0x00,0x00,0x00,0x00,0xc0,0x00,0x60,0x63,0xe0,0xff,0xff,0x40,0x18,
 0x00,0x00,0x00,0x00,0x00,0x00,0x00,0x00,0x00,0x00,0x00,0x00,0x00,0x00,0x00,
 0x00,0x00,0x00,0x00,0x00,0x00,0x00,0x00,0x00,0x00,0x00,0x00,0x00,0x00,0x00,
 0x00,0x00,0x00,0x00,0xf8,0x3f,0xc0,0x00,0x70,0x66,0x30,0x63,0x8c,0x60,0x18,
 0xff,0xff,0xff,0xff,0xff,0xff,0xff,0xff,0xff,0xff,0xff,0xff,0xff,0xff,0xff,
 0xff,0xff,0xff,0xff,0xff,0xff,0xff,0xff,0xff,0xff,0xff,0xff,0xff,0xff,0xff,
 0xff,0xff,0xff,0x0f,0x00,0x00,0xc0,0x00,0x30,0x76,0x30,0x63,0x8c,0x60,0x18,
 0x00,0x00,0x00,0x00,0x00,0x00,0x00,0x00,0x00,0x00,0x00,0x00,0x00,0x00,0x00,
 0x00,0x00,0x00,0x00,0x00,0x00,0x00,0x00,0x00,0x00,0x00,0x00,0x00,0x00,0x00,
 0x00,0x00,0x00,0x00,0x00,0x00,0xc0,0x00,0x18,0x7c,0x60,0x63,0x8c,0x20,0x18,
 0x00,0x00,0x00,0x00,0x00,0x00,0x00,0x00,0x00,0x00,0x00,0x00,0x00,0x00,0x00,
 0x00,0x00,0x00,0x00,0x00,0x00,0x00,0x00,0x00,0x00,0x00,0x00,0x00,0x00,0x00,
 0x00,0x00,0x00,0x00,0xf8,0x3f,0xc0,0x00,0x4c,0x60,0xe0,0x61,0x8c,0x20,0x18,
 0x00,0x00,0x00,0x00,0x00,0x00,0x00,0x00,0x00,0x00,0x00,0x00,0x00,0x00,0x00,
 0x00,0x00,0x00,0x00,0x00,0x00,0x00,0x00,0x00,0x00,0x00,0x00,0x00,0x00,0x00,
 0x00,0x00,0x00,0x00,0x00,0x00,0xc0,0x30,0x46,0x66,0x20,0x60,0x8c,0x30,0x18,
 0x00,0x00,0x00,0x00,0x00,0x00,0x00,0x00,0x00,0x00,0x00,0x00,0x00,0x00,0x00,
 0x00,0xe0,0x0c,0x00,0x00,0x00,0x00,0x00,0x00,0x00,0x00,0x00,0x00,0x00,0x00,
 0x00,0x00,0x00,0x00,0x00,0x00,0xf0,0x33,0x7f,0x32,0xe0,0xf7,0xfe,0x13,0x3c,
 0x00,0x00,0x00,0x00,0x00,0x00,0x00,0x00,0x00,0x00,0x00,0x00,0xe0,0xe3,0x03,
 0x60,0xc0,0x0c,0x01,0x00,0x00,0x00,0x00,0x00,0x00,0x00,0x00,0x00,0x00,0x00,
 0x00,0x00,0x00,0x00,0x00,0x00,0x00,0x00,0x00,0x0c,0x30,0x0e,0x00,0x10,0x00,
 0x00,0x00,0x00,0x00,0x00,0x00,0x00,0x00,0x00,0x00,0x00,0x00,0x20,0x26,0x06,
 0x60,0xc0,0x0c,0x01,0x00,0x00,0x00,0x00,0x00,0x00,0x00,0x00,0x00,0x00,0x00,
 0x00,0x00,0x00,0x00,0x00,0x00,0x00,0x00,0x00,0x00,0x10,0x0c,0x00,0x18,0x00,
 0x00,0x00,0x00,0x00,0x00,0x00,0x00,0x00,0x00,0x00,0x00,0x00,0x70,0x76,0x06,
 0x70,0xc0,0x00,0x01,0x00,0x00,0x00,0x00,0x00,0x00,0x00,0x00,0x00,0x00,0x00,
 0x00,0x00,0x00,0x00,0x00,0x00,0x00,0x00,0x00,0x00,0x30,0x06,0x00,0x08,0x00,
 0x00,0x00,0x00,0x00,0x00,0x00,0x00,0x00,0x00,0x00,0x00,0x00,0x70,0x76,0x06,
 0x78,0xc0,0x80,0x01,0x00,0x00,0x00,0x00,0x00,0x00,0x00,0x00,0x00,0x00,0x00,
 0x00,0x00,0x00,0x00,0x00,0x00,0x00,0x00,0x00,0x00,0xe0,0x03,0x00,0x08,0x00,
 0x00,0x00,0x00,0x00,0x00,0x00,0x00,0x00,0x00,0x00,0x00,0x00,0x00,0x06,0x06,
 0x68,0xc0,0xce,0xe7,0xf3,0x7b,0x00,0x00,0x00,0x00,0x00,0x00,0x00,0x00,0x00,
 0x00,0x00,0x00,0x00,0x00,0x00,0x00,0x00,0x00,0x00,0x00,0x00,0x00,0x00,0x00,
 0x00,0x00,0x00,0x00,0x00,0x00,0x00,0x00,0x00,0x00,0x00,0x00,0x00,0x07,0x07,
 0x6c,0xc0,0x8c,0x71,0x66,0x4f,0x00,0x00,0x00,0x00,0x00,0x00,0x00,0x00,0x00,
 0x00,0x00,0x00,0x00,0x00,0x00,0x00,0x00,0x00,0x00,0x00,0x00,0x00,0x00,0x00,
 0x00,0x00,0x00,0x00,0x00,0x00,0x00,0x00,0x00,0x00,0x00,0x00,0x00,0x03,0x03,
 0x64,0xc0,0x8c,0xf1,0x67,0x7c,0x00,0x00,0x00,0x00,0x00,0x00,0x00,0x00,0x00,
 0x00,0x00,0x00,0x00,0x00,0x00,0x00,0x00,0x00,0x00,0x00,0x00,0x00,0x00,0x00,
 0x00,0x00,0x00,0x00,0x00,0x00,0x00,0x00,0x00,0x00,0x00,0x00,0x80,0x81,0x01,
 0xfe,0xc1,0x8c,0x31,0x60,0x78,0x00,0x00,0x00,0x00,0x00,0x00,0x00,0x00,0x00,
 0x00,0x00,0x00,0x00,0x00,0x00,0x00,0x00,0x00,0x00,0x00,0x00,0x00,0x00,0x00,
 0x00,0x00,0x00,0x00,0x00,0x00,0x00,0x00,0x00,0x00,0x00,0x00,0xc0,0xc4,0x04,
 0x60,0xc0,0x8c,0x35,0x60,0xc4,0x00,0x00,0x00,0x00,0x00,0x00,0x00,0x00,0x00,
 0x00,0x00,0x00,0x00,0x00,0x00,0x00,0x00,0x00,0x00,0x00,0x00,0x00,0x00,0x00,
 0x00,0x00,0x00,0x00,0x00,0x00,0x00,0x00,0x00,0x00,0x00,0x00,0x60,0x64,0x64,
 0x60,0xc0,0x8c,0x75,0x64,0xcc,0x00,0x00,0x00,0x00,0x00,0x00,0x00,0x00,0x00,
 0x00,0x00,0x00,0x00,0x00,0x00,0x00,0x00,0x00,0x00,0x00,0x00,0x00,0x00,0x00,
 0x00,0x00,0x00,0x00,0x00,0x00,0x00,0x00,0x00,0x00,0x00,0x00,0xf0,0xf7,0x67,
 0xf0,0xe0,0x1f,0xe7,0xf3,0x7d,0x00,0x00,0x00,0x00,0x00,0x00,0x00,0x00,0x00,
 0x00,0x00,0x00,0x00,0x00,0x00,0x00,0x00,0x00,0x00,0x00,0x00,0x00,0x00,0x00};
