#define noname_width 25
#define noname_height 7
static char noname_bits[] = {
 0xee,0x00,0x00,0x00,0xcf,0xc0,0xff,0x01,0xcd,0x00,0x00,0x00,0x46,0x00,0x00,
 0x00,0x46,0xc0,0xff,0x01,0x26,0x00,0x00,0x00,0x3c,0x00,0x00,0x00};
