#define noname_width 92
#define noname_height 18
static char noname_bits[] = {
 0x00,0x00,0x00,0x00,0x00,0x00,0x10,0x00,0x01,0x00,0x00,0x00,0xcf,0xf3,0x00,
 0x00,0x00,0x70,0x18,0x00,0x03,0x00,0x00,0x00,0x86,0x61,0x00,0x00,0x00,0x78,
 0x08,0x00,0x02,0x00,0x00,0x00,0x86,0x21,0x00,0x00,0x00,0x18,0x0c,0x00,0x06,
 0x00,0x00,0x00,0xc6,0x31,0x00,0x00,0x00,0x18,0x04,0x00,0x04,0x00,0x00,0x00,
 0xc6,0x11,0x00,0x00,0x00,0x08,0x06,0x00,0x0c,0x00,0x00,0x00,0xe6,0x19,0x00,
 0x00,0x00,0x3e,0x06,0x1f,0xcc,0xff,0x81,0x0f,0xa6,0x09,0xc0,0xff,0x01,0x0c,
 0x86,0x19,0xac,0x31,0xc3,0x0c,0x96,0x0d,0x00,0x00,0x00,0x0c,0x86,0x19,0xac,
 0x19,0x63,0x0c,0x96,0x05,0x00,0x00,0x00,0x0c,0xc6,0x19,0xcc,0x98,0x61,0x06,
 0x8e,0x03,0xc0,0xff,0x01,0x04,0xc6,0x28,0xcc,0x98,0x65,0x06,0x8e,0x03,0x00,
 0x00,0x00,0x06,0xc6,0x2c,0xcc,0x88,0x63,0x06,0x06,0x01,0x00,0x00,0x00,0x06,
 0x86,0x1f,0xcc,0x8c,0xe3,0x07,0x04,0x01,0x00,0x00,0x00,0x06,0x04,0x00,0x04,
 0x00,0x00,0x03,0x00,0x00,0x00,0x00,0x80,0x02,0x0c,0x00,0x06,0x00,0x30,0x03,
 0x00,0x00,0x00,0x00,0xc0,0x03,0x08,0x00,0x02,0x00,0xb0,0x01,0x00,0x00,0x00,
 0x00,0x80,0x01,0x18,0x00,0x03,0x00,0xf0,0x00,0x00,0x00,0x00,0x00,0x00,0x00,
 0x10,0x00,0x01,0x00,0x00,0x00};
