#define noname_width 18
#define noname_height 11
static char noname_bits[] = {
 0x8c,0xe0,0x03,0xcc,0x30,0x03,0xcc,0x18,0x03,0xc6,0x98,0x01,0x46,0x99,0x01,
 0x66,0x99,0x01,0xfe,0xf8,0x01,0x03,0xc0,0x00,0x03,0xcc,0x00,0x03,0x6c,0x00,
 0x03,0x3c,0x00};
