#define noname_width 15
#define noname_height 9
static char noname_bits[] = {
 0x7c,0x00,0x66,0x00,0x66,0x00,0x67,0x00,0xa3,0x7c,0xb3,0x5e,0x7e,0x18,0x00,
 0x4a,0x00,0x3e};
