#define noname_width 15
#define noname_height 11
static char noname_bits[] = {
 0x7c,0x00,0x66,0x00,0x66,0x00,0x67,0x00,0xa3,0x6c,0xb3,0x6a,0x7e,0x2c,0x00,
 0x24,0x00,0x3c,0x00,0x36,0x00,0x1e};
