#define noname_width 231
#define noname_height 40
static char noname_bits[] = {
 0x00,0x00,0x00,0x00,0x00,0x00,0x00,0x00,0x00,0x00,0x00,0x00,0x00,0x00,0x00,
 0x00,0x00,0x00,0x20,0x00,0x02,0x00,0x00,0x00,0x00,0x00,0x00,0x00,0x00,0x00,
 0x00,0x00,0x00,0x00,0x00,0x00,0x00,0x00,0x78,0x9e,0x07,0x00,0x00,0x00,0x00,
 0x00,0xc0,0x31,0x00,0x06,0x00,0x00,0x00,0x00,0x00,0x00,0x00,0x00,0x00,0x00,
 0x00,0x00,0x00,0x00,0x00,0x00,0x00,0x30,0x0c,0x03,0x00,0x00,0x00,0x00,0x00,
 0xe0,0x11,0x00,0x04,0x00,0x00,0x00,0x00,0x00,0x00,0x00,0x00,0x00,0x00,0x00,
 0x00,0x00,0x00,0x00,0x00,0x00,0x30,0x0c,0x01,0x00,0x00,0x00,0x00,0x00,0x60,
 0x18,0x00,0x0c,0x00,0x00,0x00,0x00,0x00,0x00,0x00,0x00,0x00,0x00,0x00,0x00,
 0x00,0x00,0x00,0x00,0x00,0x30,0x8e,0x01,0x00,0x00,0x00,0x00,0x00,0x60,0x08,
 0x00,0x08,0x00,0x00,0x00,0x00,0x00,0x00,0x00,0x00,0x00,0x00,0x00,0x00,0x00,
 0x00,0x00,0x00,0x00,0x30,0x8e,0x00,0x00,0x00,0x00,0x00,0x00,0x20,0x0c,0x00,
 0x18,0x00,0x00,0x00,0x00,0x00,0x00,0x00,0x00,0x00,0x00,0x00,0x00,0x00,0x00,
 0x00,0x00,0x18,0x31,0xcf,0x00,0x00,0x00,0x00,0x00,0x23,0xf8,0x0c,0x7c,0x18,
 0xff,0x07,0x1f,0x00,0x00,0x00,0x00,0x00,0x00,0x00,0x00,0x00,0x00,0x00,0x00,
 0x00,0x98,0x31,0x4d,0x00,0x00,0x00,0x00,0x00,0x33,0x30,0x0c,0x66,0x98,0xc6,
 0x8c,0x19,0x00,0x00,0x00,0x00,0x00,0x00,0x00,0x00,0x00,0x00,0x00,0x00,0x00,
 0x98,0xb1,0x6c,0x00,0x00,0x00,0x00,0x00,0x33,0x30,0x0c,0x66,0x98,0x66,0xcc,
 0x18,0x00,0x00,0x00,0x00,0x00,0x00,0x00,0x00,0x00,0x00,0x00,0x00,0x00,0x8c,
 0xb1,0x2c,0x00,0x00,0x00,0x00,0x80,0x31,0x30,0x0c,0x67,0x18,0x63,0xc6,0x0c,
 0x00,0x00,0x00,0x00,0x00,0x00,0x00,0x00,0x00,0x00,0x00,0x00,0x00,0x8c,0x72,
 0x1c,0x00,0x00,0x00,0x00,0x80,0x51,0x10,0x0c,0xa3,0x18,0x63,0xd6,0x0c,0x00,
 0x00,0x00,0x00,0x00,0x00,0x00,0x00,0x00,0x00,0x00,0x00,0x00,0xcc,0x72,0x1c,
 0x00,0x00,0x00,0x00,0x80,0x59,0x18,0x0c,0xb3,0x18,0x23,0xce,0x0c,0x00,0x00,
 0x00,0x00,0x00,0x00,0x00,0x00,0x00,0x00,0x00,0x00,0x00,0xfc,0x31,0x08,0x00,
 0x00,0x00,0x00,0x80,0x3f,0x18,0x0c,0x7e,0x18,0x33,0xce,0x0f,0x00,0x00,0x00,
 0x00,0x00,0x00,0x00,0x00,0x00,0x00,0x00,0x00,0x00,0x06,0x20,0x08,0x00,0x00,
 0x00,0x00,0xc0,0x00,0x18,0x08,0x00,0x08,0x00,0x00,0x06,0x00,0x00,0x00,0x00,
 0x00,0x00,0x00,0x00,0x00,0x00,0x00,0x00,0x00,0x06,0x00,0x00,0x00,0x00,0x00,
 0x00,0xc0,0x00,0x0a,0x18,0x00,0x0c,0x00,0x60,0x06,0x00,0x00,0x00,0x00,0x00,
 0x00,0x00,0x00,0x00,0x00,0x00,0x00,0x00,0x06,0x00,0x00,0x00,0x00,0x00,0x00,
 0xc0,0x00,0x0f,0x10,0x00,0x04,0x00,0x60,0x03,0x00,0x00,0x00,0x00,0x00,0x00,
 0x00,0x00,0x00,0x00,0x00,0x00,0x00,0x06,0x00,0x00,0x00,0x00,0x00,0x00,0xc0,
 0x00,0x06,0x30,0x00,0x06,0x00,0xe0,0x01,0x00,0x00,0x00,0x00,0x00,0x7c,0x00,
 0x00,0x00,0x00,0x00,0x00,0x00,0x00,0x00,0x00,0x00,0x00,0x00,0x00,0x00,0x00,
 0x00,0x20,0x00,0x02,0x00,0x00,0x00,0x00,0x00,0x80,0x11,0x7c,0x66,0x00,0x00,
 0x00,0xc0,0xff,0x01,0x00,0x00,0x00,0x00,0x00,0x00,0xf0,0x7f,0x00,0x00,0x00,
 0x00,0x00,0x00,0x00,0x00,0x00,0xe0,0xff,0x80,0x19,0x66,0x66,0x00,0x00,0x00,
 0x00,0x00,0x00,0xff,0xff,0xff,0xff,0xff,0x3f,0x00,0x00,0xc0,0xff,0xff,0xff,
 0xff,0xff,0xff,0xff,0x3f,0x00,0x00,0x80,0x19,0x63,0x67,0x00,0x00,0x00,0x00,
 0x00,0x00,0x00,0x00,0x00,0x00,0x00,0x00,0x00,0x00,0x00,0x00,0x00,0x00,0x00,
 0x00,0x00,0x00,0x00,0x00,0x00,0xc0,0x18,0x33,0xa3,0xff,0xf1,0x7c,0xc0,0xff,
 0x01,0x00,0x00,0x00,0x00,0x00,0x00,0xf0,0x7f,0x00,0x00,0x00,0x00,0x00,0x00,
 0x00,0x00,0x00,0xe0,0xff,0xc0,0x28,0x33,0xb3,0xb7,0xd1,0x5e,0x00,0x00,0x00,
 0x00,0x20,0x00,0x02,0x00,0x00,0x00,0x00,0x00,0x00,0x00,0x20,0x00,0x02,0x00,
 0x00,0x00,0x00,0x00,0xc0,0x2c,0x33,0x7e,0xb6,0xd9,0x18,0x00,0x00,0x00,0xc0,
 0x31,0x00,0x06,0x00,0x00,0x00,0x00,0x00,0x00,0xe0,0x30,0x00,0x06,0x00,0x00,
 0x00,0x00,0x00,0xc0,0x1f,0x3f,0x00,0x92,0x4a,0x4b,0x00,0x00,0x00,0xe0,0x11,
 0x00,0x04,0x00,0x00,0x00,0x00,0x00,0x00,0xf0,0x10,0x00,0x04,0x00,0x00,0x00,
 0x00,0x00,0x60,0x00,0x18,0x00,0x92,0xf9,0x3f,0x00,0x00,0x00,0x60,0x18,0x00,
 0x0c,0x00,0x00,0x00,0x00,0x00,0x00,0x30,0x18,0x00,0x0c,0x00,0x00,0x00,0x00,
 0x00,0x60,0x80,0x19,0x00,0x00,0x00,0x00,0x00,0x00,0x00,0x60,0x08,0x00,0x08,
 0x00,0x00,0x00,0x00,0x00,0x00,0x30,0x08,0x00,0x08,0x00,0x00,0x00,0x00,0x00,
 0x60,0x80,0x0d,0x00,0x00,0x00,0x00,0x00,0x00,0x00,0x20,0x0c,0x00,0x18,0x00,
 0x00,0x00,0x00,0x00,0x00,0x10,0x0c,0x00,0x18,0x00,0x00,0x00,0x00,0x00,0x60,
 0x80,0x07,0x00,0x00,0x00,0x00,0x00,0x00,0x00,0xf8,0x0c,0x7c,0x18,0xff,0x07,
 0x00,0x00,0x00,0x00,0x7c,0x0c,0x3e,0x98,0xff,0x03,0x00,0x00,0x00,0x00,0x00,
 0x00,0x00,0x00,0x00,0x00,0x00,0x00,0x00,0x30,0x0c,0x66,0x98,0xc6,0x0c,0x00,
 0x00,0x00,0x00,0x18,0x0c,0x33,0x58,0x63,0x06,0x00,0x00,0x00,0x00,0x00,0x00,
 0x00,0x00,0x00,0x00,0x00,0x00,0x00,0x30,0x0c,0x66,0x98,0x66,0x0c,0x00,0x00,
 0x00,0x00,0x18,0x0c,0x33,0x58,0x33,0x06,0x00,0x00,0x00,0x00,0x00,0x00,0x00,
 0x00,0x00,0x00,0x00,0x00,0x00,0x30,0x0c,0x67,0x18,0x63,0x06,0x00,0x00,0x00,
 0x00,0x18,0x8c,0x33,0x98,0x31,0x03,0x00,0x00,0x00,0x00,0x00,0x00,0x00,0x00,
 0x00,0x00,0x00,0x00,0x00,0x10,0x0c,0xa3,0x18,0x63,0x16,0x00,0x00,0x00,0x00,
 0x08,0x8c,0x51,0x98,0x31,0x0b,0x00,0x00,0x00,0x00,0x00,0x00,0x00,0x00,0x00,
 0x00,0x00,0x00,0x00,0x18,0x0c,0xb3,0x18,0x23,0x0e,0x00,0x00,0x00,0x00,0x0c,
 0x8c,0x59,0x98,0x11,0x07,0x00,0x00,0x00,0x00,0x00,0x00,0x00,0x00,0x00,0x00,
 0x00,0x00,0x00,0x18,0x0c,0x7e,0x18,0x33,0x0e,0x00,0x00,0x00,0x00,0x0c,0x0c,
 0x3f,0x98,0x19,0x07,0x00,0x00,0x00,0x00,0x00,0x00,0x00,0x00,0x00,0x00,0x00,
 0x00,0x00,0x18,0x08,0x00,0x08,0x00,0x00,0x00,0x00,0x00,0x00,0x0c,0x08,0x00,
 0x08,0x00,0x00,0x00,0x00,0x00,0x00,0x00,0x00,0x00,0x00,0x00,0x00,0x00,0x00,
 0x00,0x0a,0x18,0x00,0x0c,0x00,0x00,0x00,0x00,0x00,0x00,0x05,0x18,0x00,0x0c,
 0x00,0x00,0x00,0x00,0x00,0x00,0x00,0x00,0x00,0x00,0x00,0x00,0x00,0x00,0x00,
 0x0f,0x10,0x00,0x04,0x00,0x00,0x00,0x00,0x00,0x80,0x07,0x10,0x00,0x04,0x00,
 0x00,0x00,0x00,0x00,0x00,0x00,0x00,0x00,0x00,0x00,0x00,0x00,0x00,0x00,0x06,
 0x30,0x00,0x06,0x00,0x00,0x00,0x00,0x00,0x00,0x03,0x30,0x00,0x06,0x00,0x00,
 0x00,0x00,0x00,0x00,0x00,0x00,0x00,0x00,0x00,0x00,0x00,0x00,0x00,0x00,0x20,
 0x00,0x02,0x00,0x00,0x00,0x00,0x00,0x00,0x00,0x20,0x00,0x02,0x00,0x00,0x00,
 0x00,0x00,0x00,0x00,0x00};
