#define noname_width 149
#define noname_height 18
static char noname_bits[] = {
 0x00,0x00,0x00,0x00,0x00,0x00,0x02,0x00,0x01,0x10,0x00,0x00,0x00,0x00,0x00,
 0x00,0x00,0x00,0x00,0x00,0x00,0x00,0x00,0xfc,0x07,0x03,0x8e,0x01,0x30,0x00,
 0x00,0x00,0x00,0x00,0x00,0x00,0x00,0x00,0x00,0x00,0x00,0x00,0x30,0x06,0x03,
 0x8f,0x00,0x20,0x00,0x00,0x00,0x80,0x01,0x00,0x00,0x00,0x00,0x00,0x00,0x00,
 0x00,0x18,0x04,0x01,0xc3,0x00,0x60,0x00,0x00,0x00,0xe0,0x00,0x00,0x00,0x00,
 0x00,0x00,0x00,0x00,0x00,0x18,0x84,0x01,0x43,0x00,0x40,0x00,0x00,0x00,0x3c,
 0x00,0x00,0x00,0x00,0x00,0x00,0x00,0x00,0x00,0x98,0x84,0x01,0x61,0x00,0xc0,
 0x00,0x00,0x00,0x0f,0x00,0x00,0x00,0x00,0x00,0x7c,0x00,0x00,0x00,0xd8,0x80,
 0xc0,0x67,0xe0,0xc3,0xf8,0x3f,0xc0,0x03,0x00,0x1f,0x00,0x00,0x00,0x66,0x80,
 0xff,0x03,0xfc,0xc0,0x80,0x61,0x30,0xc3,0x34,0x66,0xc0,0x01,0x80,0x19,0x00,
 0x00,0x00,0x66,0x00,0x00,0x00,0xcc,0xc0,0x80,0x61,0x30,0xc3,0x34,0x63,0x00,
 0x07,0x80,0x19,0x00,0x00,0x00,0x67,0x00,0x00,0x00,0x4c,0x40,0x80,0x61,0x38,
 0xc3,0x18,0x33,0x00,0x1c,0xc0,0x19,0x00,0x00,0x00,0xa3,0x80,0xff,0x03,0x0c,
 0x40,0x80,0x60,0x18,0xc5,0x18,0xb3,0x00,0x70,0xc0,0xa8,0xff,0x3c,0x1f,0xb3,
 0x00,0x00,0x00,0x06,0x60,0xc0,0x60,0x98,0xc5,0x18,0x71,0x00,0xc0,0xc1,0xac,
 0xdb,0xb4,0x17,0x7e,0x00,0x00,0x00,0x1f,0x20,0xc0,0x60,0xf0,0xc3,0x98,0x71,
 0x00,0x00,0x80,0x1f,0xdb,0x36,0x06,0x00,0x00,0x00,0x00,0x00,0x20,0xc0,0x40,
 0x00,0x40,0x00,0x00,0x00,0x00,0x00,0x00,0x49,0xd3,0x12,0x00,0x00,0x00,0x00,
 0x00,0x30,0x50,0xc0,0x00,0x60,0x00,0x00,0xc0,0xff,0x00,0x00,0xc9,0xfe,0x0f,
 0x00,0x00,0x00,0x00,0x00,0x10,0x78,0x80,0x00,0x20,0x00,0x00,0xc0,0xff,0x01,
 0x00,0x00,0x00,0x00,0x00,0x00,0x00,0x00,0x00,0x10,0x30,0x80,0x01,0x30,0x00,
 0x00,0x00,0x00,0x00,0x00,0x00,0x00,0x00,0x00,0x00,0x00,0x00,0x00,0x00,0x00,
 0x00,0x01,0x10,0x00,0x00,0x00,0x00,0x00,0x00,0x00,0x00,0x00};
