#define noname_width 30
#define noname_height 18
static char noname_bits[] = {
 0x00,0x40,0x00,0x04,0xc0,0x61,0x00,0x0c,0xe0,0x21,0x00,0x08,0x60,0x30,0x00,
 0x18,0x60,0x10,0x00,0x10,0x20,0x18,0x00,0x30,0xf8,0x18,0x7c,0x30,0x30,0x18,
 0x66,0x30,0x30,0x18,0x66,0x30,0x30,0x18,0x67,0x30,0x10,0x18,0xa3,0x30,0x18,
 0x18,0xb3,0x30,0x18,0x18,0x7e,0x30,0x18,0x10,0x00,0x10,0x0a,0x30,0x00,0x18,
 0x0f,0x20,0x00,0x08,0x06,0x60,0x00,0x0c,0x00,0x40,0x00,0x04};
