#define noname_width 95
#define noname_height 18
static char noname_bits[] = {
 0x00,0x00,0x00,0x00,0x00,0x00,0x01,0x00,0x01,0x10,0x00,0x00,0x00,0x00,0x00,
 0x00,0xfe,0x83,0x01,0x87,0x01,0x30,0x00,0x00,0x00,0x00,0x00,0x00,0x18,0x83,
 0x81,0x87,0x00,0x20,0x00,0x00,0x00,0x00,0x00,0x00,0x0c,0x82,0x80,0xc1,0x00,
 0x60,0x00,0x00,0x00,0x00,0x00,0x00,0x0c,0xc2,0x80,0x41,0x00,0x40,0x00,0x00,
 0x00,0x00,0x00,0x00,0x4c,0xc2,0x80,0x60,0x00,0xc0,0x00,0x00,0x7c,0x00,0x00,
 0x00,0x6c,0x40,0xe0,0x63,0xf0,0xc1,0xfc,0x1f,0x66,0xc0,0xff,0x01,0x7e,0x60,
 0xc0,0x60,0x98,0xc1,0x1a,0x33,0x66,0x00,0x00,0x00,0x66,0x60,0xc0,0x60,0x98,
 0xc1,0x9a,0x31,0x67,0x00,0x00,0x00,0x26,0x20,0xc0,0x60,0x9c,0xc1,0x8c,0x19,
 0xa3,0xc0,0xff,0x01,0x06,0x20,0x40,0x60,0x8c,0xc2,0x8c,0x59,0xb3,0x00,0x00,
 0x00,0x03,0x30,0x60,0x60,0xcc,0xc2,0x8c,0x38,0x7e,0x00,0x00,0x80,0x0f,0x10,
 0x60,0x60,0xf8,0xc1,0xcc,0x38,0x00,0x00,0x00,0x00,0x00,0x10,0x60,0x40,0x00,
 0x40,0x00,0x00,0x00,0x00,0x00,0x00,0x00,0x18,0x28,0xc0,0x00,0x60,0x00,0x00,
 0x00,0x00,0x00,0x00,0x00,0x08,0x3c,0x80,0x00,0x20,0x00,0x00,0x00,0x00,0x00,
 0x00,0x00,0x08,0x18,0x80,0x01,0x30,0x00,0x00,0x00,0x00,0x00,0x00,0x00,0x00,
 0x00,0x00,0x01,0x10,0x00,0x00};
