#define noname_width 31
#define noname_height 9
static char noname_bits[] = {
 0x7c,0x00,0x00,0x00,0x66,0x00,0x00,0x00,0x66,0x00,0x00,0x00,0x67,0x00,0x00,
 0x00,0xa3,0xfe,0xf3,0x7c,0xb3,0x6e,0xd3,0x5e,0x7e,0x6c,0xdb,0x18,0x00,0x24,
 0x4d,0x4b,0x00,0x24,0xfb,0x3f};
