#define noname_width 8
#define noname_height 11
static char noname_bits[] = {
 0xf8,0xcc,0xc6,0x66,0x66,0x66,0x7e,0x30,0x33,0x1b,0x0f};
