#define noname_width 110
#define noname_height 17
static char noname_bits[] = {
 0x00,0x00,0x00,0x00,0x00,0x00,0x00,0x00,0x00,0x00,0x04,0x00,0x00,0x3c,0x00,
 0x00,0x00,0x00,0x00,0x00,0x00,0x00,0x78,0x00,0x06,0x00,0x00,0x26,0x00,0x00,
 0x00,0x80,0x8f,0x0f,0xe0,0x00,0x78,0x01,0x06,0x00,0x00,0x34,0x00,0x00,0x00,
 0x80,0x99,0x18,0xf0,0x00,0x0c,0x01,0x02,0x00,0x00,0x30,0x00,0x00,0x00,0x80,
 0xd9,0x19,0xc0,0x00,0x0c,0x01,0x03,0x00,0x00,0x18,0x00,0x00,0x00,0x00,0xd8,
 0x19,0xc0,0x00,0x8c,0x01,0x03,0x00,0x00,0x2c,0xf8,0x00,0x00,0x00,0x0c,0x18,
 0xc0,0x00,0xfe,0x07,0xe1,0xf9,0xf0,0x3f,0xcc,0xc0,0xff,0x01,0x0f,0x1c,0xc0,
 0x00,0x8c,0x81,0x31,0x9d,0x99,0x01,0xc6,0x00,0x00,0x00,0x18,0x0c,0xc0,0x00,
 0x8c,0x81,0xf1,0xfd,0x0d,0x00,0x66,0x00,0x00,0x80,0x18,0x06,0xc0,0x00,0x8c,
 0x81,0xe0,0x0d,0x0c,0x00,0x66,0xc0,0xff,0xc1,0x19,0x13,0xc0,0x00,0x8c,0x85,
 0x10,0x0f,0x0c,0x00,0x66,0x00,0x00,0xc0,0x98,0x91,0xc1,0x00,0x8c,0xc5,0x30,
 0x1f,0x19,0x01,0x7e,0x00,0x00,0x80,0xdd,0x9f,0xf1,0x03,0x1e,0x47,0xf0,0xf9,
 0xf0,0x00,0x30,0x00,0x00,0x00,0x07,0x00,0x00,0x00,0x00,0x40,0x00,0x00,0x00,
 0x00,0x33,0x00,0x00,0x00,0x00,0x00,0x00,0x00,0x00,0x60,0x00,0x00,0x00,0x00,
 0x1b,0x00,0x00,0x00,0x00,0x00,0x00,0x00,0x00,0x20,0x00,0x00,0x00,0x00,0x0f,
 0x00,0x00,0x00,0x00,0x00,0x00,0x00,0x00,0x20,0x00,0x00,0x00,0x00};
