#define noname_width 11
#define noname_height 13
static char noname_bits[] = {
 0x08,0x00,0x08,0x00,0x0c,0x00,0x0c,0x00,0x1f,0x00,0x04,0x00,0x86,0x03,0x06,
 0x03,0x16,0x03,0x1a,0x03,0x0e,0x03,0x00,0x03,0x80,0x07};
