#define noname_width 8
#define noname_height 11
static char noname_bits[] = {
 0xce,0xcf,0xcd,0x66,0x66,0x66,0x7c,0x30,0x33,0x1b,0x0e};
