#define noname_width 8
#define noname_height 7
static char noname_bits[] = {
 0xdc,0x74,0x30,0x18,0x4c,0x6e,0x3b};
