#define noname_width 52
#define noname_height 32
static char noname_bits[] = {
 0xfc,0x00,0x00,0x00,0xc0,0x0f,0x00,0xf2,0x00,0x00,0x00,0x20,0x0f,0x00,0x32,
 0x3c,0xf0,0x7f,0x20,0xc3,0x01,0x18,0x26,0xf0,0x7f,0x80,0x81,0x01,0x98,0x34,
 0x00,0x00,0x80,0x89,0x01,0xdb,0x30,0x00,0x00,0xb0,0x8d,0x01,0x7f,0x18,0x00,
 0x00,0xf0,0x87,0x01,0x00,0x2c,0x00,0x00,0x00,0x80,0x01,0x00,0x3e,0x00,0x00,
 0x00,0xc0,0x03,0x00,0x00,0x00,0x00,0x00,0x00,0x00,0x00,0x00,0x00,0x00,0x00,
 0x00,0x00,0x00,0x00,0x00,0x00,0x00,0x00,0x00,0x00,0x00,0x00,0x00,0x00,0x00,
 0x00,0xff,0xff,0xff,0xff,0xff,0xff,0x0f,0x00,0x00,0x00,0x00,0x00,0x00,0x00,
 0x00,0x00,0x00,0x00,0x00,0x00,0x00,0x00,0x00,0x00,0x00,0x00,0x00,0x00,0x00,
 0x00,0x00,0x00,0x00,0x00,0x00,0x40,0x00,0x00,0x00,0x80,0x00,0x00,0x40,0x00,
 0x00,0x00,0x80,0x00,0x00,0x60,0x00,0x00,0x00,0xc0,0x00,0x00,0x60,0x00,0x00,
 0x00,0xc0,0x00,0x00,0xf8,0x00,0x00,0x00,0xf0,0x01,0x00,0x20,0x00,0x00,0x00,
 0x40,0x00,0x00,0x30,0x00,0xf0,0x7f,0x60,0x00,0x00,0x30,0x3c,0xf0,0x7f,0x60,
 0x38,0x00,0xb0,0x26,0x00,0x00,0x60,0x31,0x00,0xd0,0x34,0x00,0x00,0xa0,0x31,
 0x00,0x70,0x30,0x00,0x00,0xe0,0x30,0x00,0x00,0x18,0x00,0x00,0x00,0x30,0x00,
 0x00,0x2c,0x00,0x00,0x00,0x30,0x00,0x00,0x3e,0x00,0x00,0x00,0x78,0x00};
