#define noname_width 19
#define noname_height 12
static char noname_bits[] = {
 0x40,0x00,0x00,0xe0,0x00,0x02,0xe0,0x00,0x02,0xf0,0x01,0x03,0x90,0x01,0x03,
 0x98,0xc3,0x07,0x08,0x03,0x01,0x0c,0x87,0x01,0x04,0x86,0x01,0x06,0x8e,0x05,
 0x02,0x8c,0x06,0xff,0x9f,0x03};
