#define noname_width 13
#define noname_height 9
static char noname_bits[] = {
 0xfc,0x00,0xf2,0x18,0x32,0x08,0x18,0x00,0x98,0x0c,0xdb,0x0e,0x7f,0x0c,0x00,
 0x0c,0x00,0x0c};
