#define noname_width 56
#define noname_height 12
static char noname_bits[] = {
 0xfc,0x07,0x00,0x00,0x00,0x00,0x00,0x30,0x06,0x00,0x00,0x00,0x00,0x00,0x18,
 0x04,0x00,0x00,0x00,0x00,0x00,0x18,0x04,0x00,0x00,0x00,0x00,0x00,0x98,0x04,
 0x00,0x00,0x00,0x00,0x00,0xd8,0x00,0x00,0x00,0xf8,0x3f,0x7c,0xfc,0x00,0xfe,
 0x0f,0x34,0x66,0x66,0xcc,0x00,0x00,0x00,0x34,0x63,0x66,0x4c,0x00,0x00,0x00,
 0x18,0x33,0x67,0x0c,0x00,0xfe,0x0f,0x18,0xb3,0xa3,0x06,0x00,0x00,0x00,0x18,
 0x71,0xb3,0x1f,0x00,0x00,0x00,0x98,0x71,0x7e};
