#define noname_width 12
#define noname_height 9
static char noname_bits[] = {
 0xee,0x00,0xcf,0x0c,0xcd,0x04,0x46,0x00,0x46,0x06,0x26,0x07,0x3c,0x06,0x00,
 0x06,0x00,0x06};
