#define noname_width 22
#define noname_height 14
static char noname_bits[] = {
 0xfe,0x07,0x00,0x66,0x04,0x00,0x62,0x04,0x00,0x63,0x04,0x00,0x71,0x04,0x00,
 0x30,0x00,0x00,0x30,0xbc,0x3b,0x30,0x98,0x11,0x38,0x98,0x1b,0x18,0xd8,0x0b,
 0x18,0x58,0x07,0x7e,0x30,0x07,0x00,0x30,0x03,0x00,0x10,0x03};
