#define noname_width 14
#define noname_height 9
static char noname_bits[] = {
 0xee,0x00,0xcf,0x00,0xcd,0x1e,0x46,0x13,0x46,0x33,0x26,0x33,0x3c,0x33,0x00,
 0x13,0x00,0x1e};
