#define noname_width 8
#define noname_height 12
static char noname_bits[] = {
 0x1c,0x18,0x08,0x0c,0x0c,0xec,0xf4,0x0e,0x3e,0xb6,0xb2,0x73};
