#define noname_width 28
#define noname_height 12
static char noname_bits[] = {
 0x3c,0x80,0xc7,0x0f,0x66,0xc0,0xcc,0x07,0x62,0x40,0x4c,0x00,0x63,0x60,0x4c,
 0x00,0x63,0x60,0xcc,0x07,0x63,0x60,0xcc,0x0c,0x63,0x60,0x0c,0x0c,0x63,0x60,
 0x4c,0x0c,0x62,0x40,0x6c,0x0c,0x66,0xc6,0x6c,0x0c,0x3e,0xc6,0xc7,0x06,0x18,
 0x00,0x83,0x03};
