#define noname_width 33
#define noname_height 14
static char noname_bits[] = {
 0x18,0x00,0x00,0x00,0x00,0x18,0x00,0x00,0x70,0x00,0x00,0x80,0x00,0x78,0x00,
 0x00,0x80,0x00,0x60,0x00,0x00,0x80,0x00,0x60,0x00,0x0e,0x80,0x00,0x60,0x00,
 0x0f,0x80,0x00,0x60,0x00,0x0d,0xfc,0x1f,0x60,0x00,0x06,0xfc,0x1f,0x60,0x00,
 0x16,0x80,0x00,0x60,0x00,0x0e,0x80,0x00,0x60,0x00,0x0e,0x80,0x00,0xf8,0x01,
 0x00,0x80,0x00,0x00,0x00,0x00,0x80,0x00,0x00,0x00};
