#define noname_width 7
#define noname_height 12
static char noname_bits[] = {
 0x3c,0x66,0x62,0x63,0x63,0x63,0x63,0x63,0x62,0x66,0x3e,0x18};
