#define noname_width 10
#define noname_height 13
static char noname_bits[] = {
 0x08,0x00,0x08,0x00,0x0c,0x00,0x0c,0x00,0x1f,0x00,0x04,0x03,0x06,0x01,0x06,
 0x00,0x96,0x01,0xda,0x01,0x8e,0x01,0x80,0x01,0x80,0x01};
