#define noname_width 26
#define noname_height 9
static char noname_bits[] = {
 0xee,0x00,0x00,0x00,0xcf,0x0c,0x00,0x00,0xcd,0x04,0xc0,0x01,0x46,0x00,0x80,
 0x01,0x46,0x06,0x80,0x01,0x26,0x07,0x80,0x01,0x3c,0xe6,0x8f,0x01,0x00,0x06,
 0x80,0x01,0x00,0x06,0xc0,0x03};
