#define noname_width 9
#define noname_height 11
static char noname_bits[] = {
 0x8c,0x00,0xcc,0x00,0xcc,0x00,0xc6,0x00,0x46,0x01,0x66,0x01,0xfe,0x00,0x03,
 0x00,0x03,0x00,0x03,0x00,0x03,0x00};
