#define noname_width 8
#define noname_height 7
static char noname_bits[] = {
 0xee,0xcf,0xcd,0x46,0x46,0x26,0x3c};
